<svg xmlns="http://www.w3.org/2000/svg" xmlns:xlink="http://www.w3.org/1999/xlink" fill="none" version="1.1" width="34.7666015625" height="46" viewBox="0 0 34.7666015625 46"><defs><linearGradient x1="0.5" y1="-0.0000028806168757000705" x2="0.5" y2="0.9999921321868896" id="master_svg0_0_1014"><stop offset="0%" stop-color="#19AADE" stop-opacity="1"/><stop offset="3.2999999821186066%" stop-color="#19AADE" stop-opacity="1"/><stop offset="95.09999752044678%" stop-color="#134E8E" stop-opacity="1"/></linearGradient><linearGradient x1="0.5000007748603821" y1="2.220446049250313e-16" x2="0.5000007748603821" y2="1" id="master_svg1_0_1017"><stop offset="0%" stop-color="#E02527" stop-opacity="1"/><stop offset="13.199999928474426%" stop-color="#E02527" stop-opacity="1"/><stop offset="74.19999837875366%" stop-color="#A1141C" stop-opacity="1"/></linearGradient><linearGradient x1="0.000039847465814091265" y1="0.5000197887420654" x2="1" y2="0.5000197887420654" id="master_svg2_0_1020"><stop offset="0%" stop-color="#71251D" stop-opacity="1"/><stop offset="0.4999999888241291%" stop-color="#71251D" stop-opacity="1"/><stop offset="74.19999837875366%" stop-color="#C73127" stop-opacity="1"/></linearGradient><linearGradient x1="0.00003485999695840292" y1="0.499988853931427" x2="1.0000206232070923" y2="0.499988853931427" id="master_svg3_0_1023"><stop offset="0%" stop-color="#E8EBEE" stop-opacity="1"/><stop offset="14.800000190734863%" stop-color="#E8EBEE" stop-opacity="1"/><stop offset="74.19999837875366%" stop-color="#95A5AF" stop-opacity="1"/></linearGradient></defs><g><g><g><path d="M0.00000762939453125,5.672601822902451C0.00000762939453125,5.672601822902451,4.3162776293945315,5.672601822902451,4.3162776293945315,5.672601822902451C4.3162776293945315,5.672601822902451,6.887897629394531,5.531332702902452,8.51404762939453,7.522119702902452C8.51404762939453,7.522119702902452,17.938507629394532,19.584019702902452,17.938507629394532,19.584019702902452C17.938507629394532,19.584019702902452,11.325207629394532,19.584019702902452,11.325207629394532,19.584019702902452C11.325207629394532,19.584019702902452,8.394617629394531,19.71411970290245,7.207447629394531,17.69411970290245C7.207447629394531,17.69411970290245,0.00000762939453125,5.672601822902451,0.00000762939453125,5.672601822902451C0.00000762939453125,5.672601822902451,0.00000762939453125,5.672601822902451,0.00000762939453125,5.672601822902451Z" fill="url(#master_svg0_0_1014)" fill-opacity="1"/></g><g><path d="M14.848832858337403,30.519406446533203C14.848832858337403,30.519406446533203,18.729563858337404,37.032726446533204,18.729563858337404,37.032726446533204C18.729563858337404,37.032726446533204,20.155903858337403,40.32952644653321,24.867993858337403,40.32952644653321C24.867993858337403,40.32952644653321,34.7667938583374,40.32952644653321,34.7667938583374,40.32952644653321C34.7667938583374,40.32952644653321,20.749023858337402,23.121326446533203,20.749023858337402,23.121326446533203C20.749023858337402,23.121326446533203,14.848832858337403,24.488946446533202,14.848832858337403,24.488946446533202C14.848832858337403,24.488626446533203,13.225819858337402,26.659736446533202,14.848832858337403,30.519406446533203C14.848832858337403,30.519406446533203,14.848832858337403,30.519406446533203,14.848832858337403,30.519406446533203C14.848832858337403,30.519406446533203,14.848832858337403,30.519406446533203,14.848832858337403,30.519406446533203Z" fill="url(#master_svg1_0_1017)" fill-opacity="1"/></g><g><path d="M22.857387785644534,25.712233056640624C22.857387785644534,25.712233056640624,20.58560778564453,22.917633056640625,20.58560778564453,22.917633056640625C20.58560778564453,22.917633056640625,14.860507785644531,24.488743056640626,14.860507785644531,24.488743056640626C14.860507785644531,24.488743056640626,13.23749278564453,26.659853056640625,14.860507785644531,30.519533056640626C14.860507785644531,30.519533056640626,15.09875178564453,30.931283056640623,15.09875178564453,30.931283056640623C15.079679785644531,30.676043056640623,14.903653785644531,26.693183056640624,22.857387785644534,25.712233056640624C22.857387785644534,25.712233056640624,22.857387785644534,25.712233056640624,22.857387785644534,25.712233056640624C22.857387785644534,25.712233056640624,22.857387785644534,25.712233056640624,22.857387785644534,25.712233056640624Z" fill="url(#master_svg2_0_1020)" fill-opacity="1"/></g><g><path d="M15.081247941894532,30.920825939941405C15.081247941894532,30.920825939941405,13.287837941894532,26.239855939941407,19.13957794189453,23.997635939941407C19.13957794189453,23.997635939941407,23.30797794189453,22.483675939941406,26.09627794189453,23.381135939941405C26.09627794189453,23.381135939941405,25.903377941894533,19.961453939941407,19.05640794189453,20.185580539941405C19.05640794189453,20.185580539941405,15.440807941894532,20.157643939941405,12.59685794189453,21.166848939941406C12.59685794189453,21.166848939941406,9.58750794189453,21.979545939941406,11.823651941894532,25.483035939941406C11.823651941894532,25.483035939941406,15.081247941894532,30.920825939941405,15.081247941894532,30.920825939941405C15.081247941894532,30.920825939941405,15.081247941894532,30.920825939941405,15.081247941894532,30.920825939941405Z" fill="url(#master_svg3_0_1023)" fill-opacity="1"/></g></g></g></svg>