<svg xmlns="http://www.w3.org/2000/svg" xmlns:xlink="http://www.w3.org/1999/xlink" fill="none" version="1.1" width="34.76708984375" height="46" viewBox="0 0 34.76708984375 46"><g><g><g><path d="M30.74675710747242,10.003864288330078C30.74675710747242,10.003864288330078,16.28915710747242,34.48266428833008,16.28915710747242,34.48266428833008C16.28915710747242,34.48266428833008,20.31488710747242,34.48266428833008,20.31488710747242,34.48266428833008C20.31488710747242,34.48266428833008,34.767057107472425,10.003864288330078,34.767057107472425,10.003864288330078C34.767057107472425,10.003864288330078,30.74675710747242,10.003864288330078,30.74675710747242,10.003864288330078C30.74675710747242,10.003864288330078,30.74675710747242,10.003864288330078,30.74675710747242,10.003864288330078Z" fill="#00B3F0" fill-opacity="1"/></g><g><path d="M16.28917898247242,34.48402804260254C16.28917898247242,34.48402804260254,30.74667898247242,10.005228042602539,30.74667898247242,10.005228042602539C30.74667898247242,10.005228042602539,14.66337898247242,10.005228042602539,14.66337898247242,10.005228042602539C14.66337898247242,10.005228042602539,0.20907898247241974,34.48402804260254,0.20907898247241974,34.48402804260254C0.20907898247241974,34.48402804260254,16.28917898247242,34.48402804260254,16.28917898247242,34.48402804260254C16.28917898247242,34.48402804260254,16.28917898247242,34.48402804260254,16.28917898247242,34.48402804260254Z" fill="#223F9A" fill-opacity="1"/></g></g></g></svg>