<svg xmlns="http://www.w3.org/2000/svg" xmlns:xlink="http://www.w3.org/1999/xlink" fill="none" version="1.1" width="24" height="24" viewBox="0 0 24 24"><defs><clipPath id="master_svg0_0_309"><rect x="0" y="0" width="24" height="24" rx="0"/></clipPath></defs><g clip-path="url(#master_svg0_0_309)"><g><g><path d="M4,11C3.447715,11,3,11.447715,3,12C3,12.55228,3.447715,13,4,13C4,13,4,11,4,11C4,11,4,11,4,11ZM20,13C20.5523,13,21,12.55228,21,12C21,11.447715,20.5523,11,20,11C20,11,20,13,20,13C20,13,20,13,20,13ZM4,13C4,13,20,13,20,13C20,13,20,11,20,11C20,11,4,11,4,11C4,11,4,13,4,13C4,13,4,13,4,13Z" fill="#1262AE" fill-opacity="1"/></g><g><path d="M13.707110953674317,4.292892953674317C13.316580953674316,3.9023702536743166,12.683416953674316,3.9023702536743166,12.292892953674317,4.292892953674317C11.902370253674317,4.683416953674317,11.902370253674317,5.3165809536743165,12.292892953674317,5.7071109536743165C12.292892953674317,5.7071109536743165,13.707110953674317,4.292892953674317,13.707110953674317,4.292892953674317C13.707110953674317,4.292892953674317,13.707110953674317,4.292892953674317,13.707110953674317,4.292892953674317ZM20.000000953674316,12.000000953674316C20.000000953674316,12.000000953674316,20.707110953674317,12.707110953674317,20.707110953674317,12.707110953674317C21.09763095367432,12.316580953674316,21.09763095367432,11.683420953674316,20.707110953674317,11.292890953674316C20.707110953674317,11.292890953674316,20.000000953674316,12.000000953674316,20.000000953674316,12.000000953674316C20.000000953674316,12.000000953674316,20.000000953674316,12.000000953674316,20.000000953674316,12.000000953674316ZM12.292892953674317,18.292900953674316C11.902370253674317,18.683400953674315,11.902370253674317,19.316600953674318,12.292892953674317,19.707100953674317C12.683416953674316,20.097600953674316,13.316580953674316,20.097600953674316,13.707110953674317,19.707100953674317C13.707110953674317,19.707100953674317,12.292892953674317,18.292900953674316,12.292892953674317,18.292900953674316C12.292892953674317,18.292900953674316,12.292892953674317,18.292900953674316,12.292892953674317,18.292900953674316ZM12.292892953674317,5.7071109536743165C12.292892953674317,5.7071109536743165,19.292890953674316,12.707110953674317,19.292890953674316,12.707110953674317C19.292890953674316,12.707110953674317,20.707110953674317,11.292890953674316,20.707110953674317,11.292890953674316C20.707110953674317,11.292890953674316,13.707110953674317,4.292892953674317,13.707110953674317,4.292892953674317C13.707110953674317,4.292892953674317,12.292892953674317,5.7071109536743165,12.292892953674317,5.7071109536743165C12.292892953674317,5.7071109536743165,12.292892953674317,5.7071109536743165,12.292892953674317,5.7071109536743165ZM19.292890953674316,11.292890953674316C19.292890953674316,11.292890953674316,12.292892953674317,18.292900953674316,12.292892953674317,18.292900953674316C12.292892953674317,18.292900953674316,13.707110953674317,19.707100953674317,13.707110953674317,19.707100953674317C13.707110953674317,19.707100953674317,20.707110953674317,12.707110953674317,20.707110953674317,12.707110953674317C20.707110953674317,12.707110953674317,19.292890953674316,11.292890953674316,19.292890953674316,11.292890953674316C19.292890953674316,11.292890953674316,19.292890953674316,11.292890953674316,19.292890953674316,11.292890953674316Z" fill="#1262AE" fill-opacity="1"/></g></g></g></svg>