<svg xmlns="http://www.w3.org/2000/svg" xmlns:xlink="http://www.w3.org/1999/xlink" fill="none" version="1.1" width="65.38720703125" height="65.38720703125" viewBox="0 0 65.38720703125 65.38720703125"><g><g><rect x="0" y="0" width="65.38703918457031" height="65.38703918457031" rx="16" fill="#FF9B53" fill-opacity="1"/></g><g><g><path d="M38.2992,18.04269578125C37.6404,17.39036878125,36.747,17.02392578125,35.8154,17.02392578125C34.8839,17.02392578125,33.9905,17.39036878125,33.3316,18.04269578125C33.3316,18.04269578125,17.90415,33.327725781249995,17.90415,33.327725781249995C17.577873,33.650925781249995,17.319051,34.03472578125,17.142469,34.457025781249996C16.965886,34.87932578125,16.875,35.332025781249996,16.875,35.78912578125C16.875,36.246225781250004,16.965886,36.69892578125,17.142469,37.121225781250004C17.319051,37.54352578125,17.577873,37.927325781250005,17.90415,38.250525781250005C17.90415,38.250525781250005,19.7344,40.06212578125,19.7344,40.06212578125C20.53084,40.85272578125,21.65054,40.71192578125,22.32673,40.312725781249995C22.69974,40.09332578125,23.13589,40.003225781249995,23.56632,40.05672578125C23.99675,40.11022578125,24.39693,40.30422578125,24.70368,40.608125781249996C25.01042,40.91202578125,25.20625,41.30842578125,25.26024,41.734825781249995C25.314230000000002,42.16132578125,25.223309999999998,42.59332578125,25.001829999999998,42.96292578125C24.60049,43.63272578125,24.45682,44.74202578125,25.254820000000002,45.53102578125C25.254820000000002,45.53102578125,27.0866,47.34412578125,27.0866,47.34412578125C27.4129,47.66742578125,27.8003,47.92382578125,28.226599999999998,48.098725781249996C28.652900000000002,48.27372578125,29.1098,48.36372578125,29.571199999999997,48.36372578125C30.032600000000002,48.36372578125,30.4895,48.27372578125,30.9159,48.098725781249996C31.3422,47.92382578125,31.7295,47.66742578125,32.0558,47.34412578125C32.0558,47.34412578125,47.481700000000004,32.06222578125,47.481700000000004,32.06222578125C47.808,31.73902578125,48.0668,31.35522578125,48.2434,30.93292578125C48.42,30.51062578125,48.5109,30.05792578125,48.5109,29.600825781250002C48.5109,29.143725781249998,48.42,28.69112578125,48.2434,28.268725781249998C48.0668,27.846425781249998,47.808,27.46272578125,47.481700000000004,27.13942578125C47.481700000000004,27.13942578125,45.653,25.32629578125,45.653,25.32629578125C44.8566,24.537295781250002,43.735299999999995,24.67652578125,43.0591,25.07567578125C42.686099999999996,25.295085781250002,42.25,25.385165781250002,41.819500000000005,25.33167578125C41.3891,25.278185781250002,40.9889,25.08418578125,40.6822,24.78030578125C40.3754,24.47642578125,40.1796,24.07997578125,40.1256,23.653565781250002C40.071600000000004,23.22714578125,40.1626,22.79506578125,40.384,22.42554578125C40.7869,21.755665781250002,40.9291,20.64641578125,40.1311,19.85741578125C40.1311,19.85741578125,38.300799999999995,18.04269578125,38.300799999999995,18.04269578125C38.300799999999995,18.04269578125,38.2992,18.04269578125,38.2992,18.04269578125C38.2992,18.04269578125,38.2992,18.04269578125,38.2992,18.04269578125Z" fill="#FFFFFF" fill-opacity="1"/></g></g></g></svg>