<svg xmlns="http://www.w3.org/2000/svg" xmlns:xlink="http://www.w3.org/1999/xlink" fill="none" version="1.1" width="16" height="16" viewBox="0 0 16 16"><defs><clipPath id="master_svg0_0_1182"><rect x="0" y="0" width="16" height="16" rx="0"/></clipPath></defs><g clip-path="url(#master_svg0_0_1182)"><g><path d="M11.91682609375,5.9999967461395265C11.91682609375,6.414216746139527,12.25261609375,6.7499967461395265,12.66679609375,6.7499967461395265C13.08109609375,6.7499967461395265,13.41679609375,6.414216746139527,13.41679609375,5.9999967461395265C13.41679609375,5.9999967461395265,11.91682609375,5.9999967461395265,11.91682609375,5.9999967461395265C11.91682609375,5.9999967461395265,11.91682609375,5.9999967461395265,11.91682609375,5.9999967461395265ZM11.33349609375,2.6666667461395264C11.33349609375,2.6666667461395264,11.33349609375,1.9166667461395264,11.33349609375,1.9166667461395264C11.33349609375,1.9166667461395264,11.33349609375,2.6666667461395264,11.33349609375,2.6666667461395264C11.33349609375,2.6666667461395264,11.33349609375,2.6666667461395264,11.33349609375,2.6666667461395264ZM4.66682609375,2.6666667461395264C4.66682609375,2.6666667461395264,4.66682609375,1.9166667461395264,4.66682609375,1.9166667461395264C4.66682609375,1.9166667461395264,4.66682609375,2.6666667461395264,4.66682609375,2.6666667461395264C4.66682609375,2.6666667461395264,4.66682609375,2.6666667461395264,4.66682609375,2.6666667461395264ZM3.33349609375,3.9999967461395265C3.33349609375,3.9999967461395265,2.58349609375,3.9999967461395265,2.58349609375,3.9999967461395265C2.58349609375,3.9999967461395265,3.33349609375,3.9999967461395265,3.33349609375,3.9999967461395265C3.33349609375,3.9999967461395265,3.33349609375,3.9999967461395265,3.33349609375,3.9999967461395265ZM2.58349609375,5.9999967461395265C2.58349609375,6.414216746139527,2.91928209375,6.7499967461395265,3.33349609375,6.7499967461395265C3.7477060937499997,6.7499967461395265,4.08349609375,6.414216746139527,4.08349609375,5.9999967461395265C4.08349609375,5.9999967461395265,2.58349609375,5.9999967461395265,2.58349609375,5.9999967461395265C2.58349609375,5.9999967461395265,2.58349609375,5.9999967461395265,2.58349609375,5.9999967461395265ZM13.41679609375,5.9999967461395265C13.41679609375,5.9999967461395265,13.41679609375,3.9999967461395265,13.41679609375,3.9999967461395265C13.41679609375,3.9999967461395265,11.91682609375,3.9999967461395265,11.91682609375,3.9999967461395265C11.91682609375,3.9999967461395265,11.91682609375,5.9999967461395265,11.91682609375,5.9999967461395265C11.91682609375,5.9999967461395265,13.41679609375,5.9999967461395265,13.41679609375,5.9999967461395265C13.41679609375,5.9999967461395265,13.41679609375,5.9999967461395265,13.41679609375,5.9999967461395265ZM13.41679609375,3.9999967461395265C13.41679609375,3.4474667461395265,13.19729609375,2.917566746139526,12.80659609375,2.5268607461395263C12.80659609375,2.5268607461395263,11.74597609375,3.587516746139526,11.74597609375,3.587516746139526C11.85536609375,3.6969167461395265,11.91682609375,3.8452867461395264,11.91682609375,3.9999967461395265C11.91682609375,3.9999967461395265,13.41679609375,3.9999967461395265,13.41679609375,3.9999967461395265C13.41679609375,3.9999967461395265,13.41679609375,3.9999967461395265,13.41679609375,3.9999967461395265ZM12.80659609375,2.5268607461395263C12.41593609375,2.1361597461395263,11.88602609375,1.9166667461395264,11.33349609375,1.9166667461395264C11.33349609375,1.9166667461395264,11.33349609375,3.4166667461395264,11.33349609375,3.4166667461395264C11.48820609375,3.4166667461395264,11.63657609375,3.4781267461395267,11.74597609375,3.587516746139526C11.74597609375,3.587516746139526,12.80659609375,2.5268607461395263,12.80659609375,2.5268607461395263C12.80659609375,2.5268607461395263,12.80659609375,2.5268607461395263,12.80659609375,2.5268607461395263ZM11.33349609375,1.9166667461395264C11.33349609375,1.9166667461395264,4.66682609375,1.9166667461395264,4.66682609375,1.9166667461395264C4.66682609375,1.9166667461395264,4.66682609375,3.4166667461395264,4.66682609375,3.4166667461395264C4.66682609375,3.4166667461395264,11.33349609375,3.4166667461395264,11.33349609375,3.4166667461395264C11.33349609375,3.4166667461395264,11.33349609375,1.9166667461395264,11.33349609375,1.9166667461395264C11.33349609375,1.9166667461395264,11.33349609375,1.9166667461395264,11.33349609375,1.9166667461395264ZM4.66682609375,1.9166667461395264C4.11429609375,1.9166667461395264,3.5843960937499997,2.1361597461395263,3.19369009375,2.5268607461395263C3.19369009375,2.5268607461395263,4.25434609375,3.587516746139526,4.25434609375,3.587516746139526C4.3637460937500006,3.4781267461395267,4.5121160937500004,3.4166667461395264,4.66682609375,3.4166667461395264C4.66682609375,3.4166667461395264,4.66682609375,1.9166667461395264,4.66682609375,1.9166667461395264C4.66682609375,1.9166667461395264,4.66682609375,1.9166667461395264,4.66682609375,1.9166667461395264ZM3.19369009375,2.5268607461395263C2.80298909375,2.917566746139526,2.58349609375,3.4474667461395265,2.58349609375,3.9999967461395265C2.58349609375,3.9999967461395265,4.08349609375,3.9999967461395265,4.08349609375,3.9999967461395265C4.08349609375,3.8452867461395264,4.14495609375,3.6969167461395265,4.25434609375,3.587516746139526C4.25434609375,3.587516746139526,3.19369009375,2.5268607461395263,3.19369009375,2.5268607461395263C3.19369009375,2.5268607461395263,3.19369009375,2.5268607461395263,3.19369009375,2.5268607461395263ZM2.58349609375,3.9999967461395265C2.58349609375,3.9999967461395265,2.58349609375,5.9999967461395265,2.58349609375,5.9999967461395265C2.58349609375,5.9999967461395265,4.08349609375,5.9999967461395265,4.08349609375,5.9999967461395265C4.08349609375,5.9999967461395265,4.08349609375,3.9999967461395265,4.08349609375,3.9999967461395265C4.08349609375,3.9999967461395265,2.58349609375,3.9999967461395265,2.58349609375,3.9999967461395265C2.58349609375,3.9999967461395265,2.58349609375,3.9999967461395265,2.58349609375,3.9999967461395265Z" fill="#7E8B97" fill-opacity="1"/></g><g><path d="M2,10.66667C2,10.66667,1.25,10.66667,1.25,10.66667C1.25,10.66667,2,10.66667,2,10.66667C2,10.66667,2,10.66667,2,10.66667ZM11.3333,8.66667C11.3333,8.66667,11.3333,9.41667,11.3333,9.41667C11.7476,9.41667,12.0833,9.08088,12.0833,8.66667C12.0833,8.66667,11.3333,8.66667,11.3333,8.66667C11.3333,8.66667,11.3333,8.66667,11.3333,8.66667ZM4.66667,8.66667C4.66667,8.66667,3.91667,8.66667,3.91667,8.66667C3.91667,9.08088,4.25245,9.41667,4.66667,9.41667C4.66667,9.41667,4.66667,8.66667,4.66667,8.66667C4.66667,8.66667,4.66667,8.66667,4.66667,8.66667ZM4.66667,7.33333C4.66667,7.33333,5.41667,7.33333,5.41667,7.33333C5.41667,7.33333,4.66667,7.33333,4.66667,7.33333C4.66667,7.33333,4.66667,7.33333,4.66667,7.33333ZM1.25,7.33333C1.25,7.33333,1.25,10.66667,1.25,10.66667C1.25,10.66667,2.75,10.66667,2.75,10.66667C2.75,10.66667,2.75,7.33333,2.75,7.33333C2.75,7.33333,1.25,7.33333,1.25,7.33333C1.25,7.33333,1.25,7.33333,1.25,7.33333ZM1.25,10.66667C1.25,11.2192,1.469493,11.7491,1.860194,12.13981C1.860194,12.13981,2.9208499999999997,11.07915,2.9208499999999997,11.07915C2.8114600000000003,10.969750000000001,2.75,10.821380000000001,2.75,10.66667C2.75,10.66667,1.25,10.66667,1.25,10.66667C1.25,10.66667,1.25,10.66667,1.25,10.66667ZM1.860194,12.13981C2.2508999999999997,12.53051,2.7808,12.75,3.33333,12.75C3.33333,12.75,3.33333,11.25,3.33333,11.25C3.17862,11.25,3.03025,11.18854,2.9208499999999997,11.07915C2.9208499999999997,11.07915,1.860194,12.13981,1.860194,12.13981C1.860194,12.13981,1.860194,12.13981,1.860194,12.13981ZM3.33333,12.75C3.33333,12.75,12.6667,12.75,12.6667,12.75C12.6667,12.75,12.6667,11.25,12.6667,11.25C12.6667,11.25,3.33333,11.25,3.33333,11.25C3.33333,11.25,3.33333,12.75,3.33333,12.75C3.33333,12.75,3.33333,12.75,3.33333,12.75ZM12.6667,12.75C13.2192,12.75,13.7491,12.53051,14.1398,12.13981C14.1398,12.13981,13.0791,11.07915,13.0791,11.07915C12.9697,11.18854,12.8214,11.25,12.6667,11.25C12.6667,11.25,12.6667,12.75,12.6667,12.75C12.6667,12.75,12.6667,12.75,12.6667,12.75ZM14.1398,12.13981C14.5305,11.74911,14.75,11.2192,14.75,10.66667C14.75,10.66667,13.25,10.66667,13.25,10.66667C13.25,10.821380000000001,13.1885,10.969750000000001,13.0791,11.07915C13.0791,11.07915,14.1398,12.13981,14.1398,12.13981C14.1398,12.13981,14.1398,12.13981,14.1398,12.13981ZM14.75,10.66667C14.75,10.66667,14.75,7.33333,14.75,7.33333C14.75,7.33333,13.25,7.33333,13.25,7.33333C13.25,7.33333,13.25,10.66667,13.25,10.66667C13.25,10.66667,14.75,10.66667,14.75,10.66667C14.75,10.66667,14.75,10.66667,14.75,10.66667ZM14.75,7.33333C14.75,6.7808,14.5305,6.2509,14.1398,5.860194C14.1398,5.860194,13.0791,6.92086,13.0791,6.92086C13.1885,7.0302500000000006,13.25,7.1786200000000004,13.25,7.33333C13.25,7.33333,14.75,7.33333,14.75,7.33333C14.75,7.33333,14.75,7.33333,14.75,7.33333ZM14.1398,5.860194C13.7491,5.469494,13.2192,5.25,12.6667,5.25C12.6667,5.25,12.6667,6.75,12.6667,6.75C12.8214,6.75,12.9697,6.81146,13.0791,6.92086C13.0791,6.92086,14.1398,5.860194,14.1398,5.860194C14.1398,5.860194,14.1398,5.860194,14.1398,5.860194ZM12.6667,5.25C12.1141,5.25,11.5842,5.469494,11.19353,5.860194C11.19353,5.860194,12.2542,6.92086,12.2542,6.92086C12.3636,6.81146,12.512,6.75,12.6667,6.75C12.6667,6.75,12.6667,5.25,12.6667,5.25C12.6667,5.25,12.6667,5.25,12.6667,5.25ZM11.19353,5.860194C10.80283,6.2509,10.58333,6.7808,10.58333,7.33333C10.58333,7.33333,12.0833,7.33333,12.0833,7.33333C12.0833,7.1786200000000004,12.1448,7.0302500000000006,12.2542,6.92086C12.2542,6.92086,11.19353,5.860194,11.19353,5.860194C11.19353,5.860194,11.19353,5.860194,11.19353,5.860194ZM10.58333,7.33333C10.58333,7.33333,10.58333,8.66667,10.58333,8.66667C10.58333,8.66667,12.0833,8.66667,12.0833,8.66667C12.0833,8.66667,12.0833,7.33333,12.0833,7.33333C12.0833,7.33333,10.58333,7.33333,10.58333,7.33333C10.58333,7.33333,10.58333,7.33333,10.58333,7.33333ZM11.3333,7.91667C11.3333,7.91667,4.66667,7.91667,4.66667,7.91667C4.66667,7.91667,4.66667,9.41667,4.66667,9.41667C4.66667,9.41667,11.3333,9.41667,11.3333,9.41667C11.3333,9.41667,11.3333,7.91667,11.3333,7.91667C11.3333,7.91667,11.3333,7.91667,11.3333,7.91667ZM5.41667,8.66667C5.41667,8.66667,5.41667,7.33333,5.41667,7.33333C5.41667,7.33333,3.91667,7.33333,3.91667,7.33333C3.91667,7.33333,3.91667,8.66667,3.91667,8.66667C3.91667,8.66667,5.41667,8.66667,5.41667,8.66667C5.41667,8.66667,5.41667,8.66667,5.41667,8.66667ZM5.41667,7.33333C5.41667,6.7808,5.19717,6.2509,4.80647,5.860194C4.80647,5.860194,3.74581,6.92086,3.74581,6.92086C3.85521,7.0302500000000006,3.91667,7.1786200000000004,3.91667,7.33333C3.91667,7.33333,5.41667,7.33333,5.41667,7.33333C5.41667,7.33333,5.41667,7.33333,5.41667,7.33333ZM4.80647,5.860194C4.41577,5.469494,3.88587,5.25,3.33333,5.25C3.33333,5.25,3.33333,6.75,3.33333,6.75C3.48804,6.75,3.63642,6.81146,3.74581,6.92086C3.74581,6.92086,4.80647,5.860194,4.80647,5.860194C4.80647,5.860194,4.80647,5.860194,4.80647,5.860194ZM3.33333,5.25C2.7808,5.25,2.2508999999999997,5.469494,1.860194,5.860194C1.860194,5.860194,2.9208499999999997,6.92086,2.9208499999999997,6.92086C3.03025,6.81146,3.17862,6.75,3.33333,6.75C3.33333,6.75,3.33333,5.25,3.33333,5.25C3.33333,5.25,3.33333,5.25,3.33333,5.25ZM1.860194,5.860194C1.469493,6.2509,1.25,6.7808,1.25,7.33333C1.25,7.33333,2.75,7.33333,2.75,7.33333C2.75,7.1786200000000004,2.8114600000000003,7.0302500000000006,2.9208499999999997,6.92086C2.9208499999999997,6.92086,1.860194,5.860194,1.860194,5.860194C1.860194,5.860194,1.860194,5.860194,1.860194,5.860194Z" fill="#7E8B97" fill-opacity="1"/></g><g><path d="M4.08349609375,12C4.08349609375,11.585786,3.7477060937499997,11.25,3.33349609375,11.25C2.91928209375,11.25,2.58349609375,11.585786,2.58349609375,12C2.58349609375,12,4.08349609375,12,4.08349609375,12C4.08349609375,12,4.08349609375,12,4.08349609375,12ZM2.58349609375,13.33333C2.58349609375,13.74755,2.91928209375,14.08333,3.33349609375,14.08333C3.7477060937499997,14.08333,4.08349609375,13.74755,4.08349609375,13.33333C4.08349609375,13.33333,2.58349609375,13.33333,2.58349609375,13.33333C2.58349609375,13.33333,2.58349609375,13.33333,2.58349609375,13.33333ZM2.58349609375,12C2.58349609375,12,2.58349609375,13.33333,2.58349609375,13.33333C2.58349609375,13.33333,4.08349609375,13.33333,4.08349609375,13.33333C4.08349609375,13.33333,4.08349609375,12,4.08349609375,12C4.08349609375,12,2.58349609375,12,2.58349609375,12C2.58349609375,12,2.58349609375,12,2.58349609375,12Z" fill="#7E8B97" fill-opacity="1"/></g><g><path d="M13.41650390625,12C13.41650390625,11.585786,13.08071390625,11.25,12.66650390625,11.25C12.25228990625,11.25,11.91650390625,11.585786,11.91650390625,12C11.91650390625,12,13.41650390625,12,13.41650390625,12C13.41650390625,12,13.41650390625,12,13.41650390625,12ZM11.91650390625,13.33333C11.91650390625,13.74755,12.25228990625,14.08333,12.66650390625,14.08333C13.08071390625,14.08333,13.41650390625,13.74755,13.41650390625,13.33333C13.41650390625,13.33333,11.91650390625,13.33333,11.91650390625,13.33333C11.91650390625,13.33333,11.91650390625,13.33333,11.91650390625,13.33333ZM11.91650390625,12C11.91650390625,12,11.91650390625,13.33333,11.91650390625,13.33333C11.91650390625,13.33333,13.41650390625,13.33333,13.41650390625,13.33333C13.41650390625,13.33333,13.41650390625,12,13.41650390625,12C13.41650390625,12,11.91650390625,12,11.91650390625,12C11.91650390625,12,11.91650390625,12,11.91650390625,12Z" fill="#7E8B97" fill-opacity="1"/></g></g></svg>