<svg xmlns="http://www.w3.org/2000/svg" xmlns:xlink="http://www.w3.org/1999/xlink" fill="none" version="1.1" width="65.38720703125" height="65.38720703125" viewBox="0 0 65.38720703125 65.38720703125"><g><g><rect x="0" y="0" width="65.38703918457031" height="65.38703918457031" rx="16" fill="#FDBF00" fill-opacity="1"/></g><g><path d="M19.234375,40.66679609375C19.234375,42.13349609375,19.890498,43.45019609375,20.916745,44.36679609375C20.916745,44.36679609375,20.916745,46.50019609375,20.916745,46.50019609375C20.916745,47.88349609375,22.043925,49.00019609375,23.440285,49.00019609375C24.836655,49.00019609375,25.963835,47.88349609375,25.963835,46.50019609375C25.963835,46.50019609375,25.963835,45.66679609375,25.963835,45.66679609375C25.963835,45.66679609375,39.422775,45.66679609375,39.422775,45.66679609375C39.422775,45.66679609375,39.422775,46.50019609375,39.422775,46.50019609375C39.422775,47.86679609375,40.549975,49.00019609375,41.946275,49.00019609375C43.325874999999996,49.00019609375,44.469875,47.88349609375,44.469875,46.50019609375C44.469875,46.50019609375,44.469875,44.36679609375,44.469875,44.36679609375C45.496075000000005,43.45019609375,46.152175,42.13349609375,46.152175,40.66679609375C46.152175,40.66679609375,46.152175,24.00015609375,46.152175,24.00015609375C46.152175,18.16682909375,40.129374999999996,17.33349609375,32.693275,17.33349609375C25.257245,17.33349609375,19.234375,18.16682909375,19.234375,24.00015609375C19.234375,24.00015609375,19.234375,40.66679609375,19.234375,40.66679609375C19.234375,40.66679609375,19.234375,40.66679609375,19.234375,40.66679609375ZM25.122655,42.33349609375C23.726295,42.33349609375,22.599105,41.21679609375,22.599105,39.83349609375C22.599105,38.45019609375,23.726295,37.33349609375,25.122655,37.33349609375C26.519015,37.33349609375,27.646205000000002,38.45019609375,27.646205000000002,39.83349609375C27.646205000000002,41.21679609375,26.519015,42.33349609375,25.122655,42.33349609375C25.122655,42.33349609375,25.122655,42.33349609375,25.122655,42.33349609375ZM40.263975,42.33349609375C38.867575,42.33349609375,37.740375,41.21679609375,37.740375,39.83349609375C37.740375,38.45019609375,38.867575,37.33349609375,40.263975,37.33349609375C41.660275,37.33349609375,42.787475,38.45019609375,42.787475,39.83349609375C42.787475,41.21679609375,41.660275,42.33349609375,40.263975,42.33349609375C40.263975,42.33349609375,40.263975,42.33349609375,40.263975,42.33349609375ZM42.787475,32.33349609375C42.787475,32.33349609375,22.599105,32.33349609375,22.599105,32.33349609375C22.599105,32.33349609375,22.599105,24.00015609375,22.599105,24.00015609375C22.599105,24.00015609375,42.787475,24.00015609375,42.787475,24.00015609375C42.787475,24.00015609375,42.787475,32.33349609375,42.787475,32.33349609375C42.787475,32.33349609375,42.787475,32.33349609375,42.787475,32.33349609375Z" fill="#FFFFFF" fill-opacity="1"/></g></g></svg>