<svg xmlns="http://www.w3.org/2000/svg" xmlns:xlink="http://www.w3.org/1999/xlink" fill="none" version="1.1" width="65.38720703125" height="65.38720703125" viewBox="0 0 65.38720703125 65.38720703125"><g><g><rect x="0" y="0" width="65.38703918457031" height="65.38703918457031" rx="16" fill="#36DA76" fill-opacity="1"/></g><g><g transform="matrix(0.943868100643158,0.33032265305519104,-0.35204777121543884,0.9359819889068604,7.98877167470328,-11.412598684077707)"><path d="M51.0766734375,42.71345709085465C50.6121734375,41.62365709085465,50.1330734375,40.54575709085465,49.6684734375,39.46545709085464C48.2093734375,36.087957090854644,46.922093437499996,32.59285709085464,45.4485034375,29.201257090854646C43.9845834375,25.835627090854643,42.8134534375,22.364037090854644,41.4366534375,18.967757090854644C41.1511234375,18.261677090854644,40.6575034375,16.842444090854645,39.7743134375,16.694165590854645C37.8748572375,16.376427090854644,37.8288838375,19.087797090854643,37.7901686975,20.198707090854644C37.7248369375,22.213407090854645,37.9982624375,24.211627090854645,38.1628024375,26.216907090854647C38.3055644375,27.932657090854647,38.3854134375,29.664957090854642,38.8185434375,31.340757090854645C39.1451934375,32.59755709085464,39.6630134375,33.95085709085464,40.6986434375,34.821757090854646C41.2188734375,35.25955709085464,41.9036534375,35.440757090854646,42.583583437499996,35.37955709085465C43.2901334375,35.31835709085465,43.9458734375,34.840557090854645,44.6669434375,34.918257090854645C44.8532634375,34.939457090854646,45.0516734375,35.050057090854644,45.175073437500004,35.18895709085464C45.5670734375,35.638457090854644,45.6735334375,36.49285709085464,45.8114534375,37.05065709085464C46.2591034375,38.84645709085464,46.7019034375,40.66345709085465,47.2560134375,42.43095709085465C47.5923534375,43.499557090854644,48.0327734375,44.86465709085465,49.0030734375,45.556557090854646C49.5958734375,45.97555709085464,50.5709734375,46.21795709085464,51.1734734375,45.69315709085464C52.0760734375,44.91405709085464,51.4493734375,43.57955709085465,51.0766734375,42.71345709085465C51.0766734375,42.71345709085465,51.0766734375,42.71345709085465,51.0766734375,42.71345709085465C51.0766734375,42.71345709085465,51.0766734375,42.71345709085465,51.0766734375,42.71345709085465Z" fill="#FFFFFF" fill-opacity="1"/></g><g transform="matrix(0.9681863188743591,-0.2502303719520569,0.26765894889831543,0.9635137319564819,-4.823019344325484,4.355888295953806)"><path d="M26.811620436159533,21.29245375C26.465020436159534,21.33709375,26.273520436159533,22.48825375,26.16442043615953,22.82890375C25.972920436159534,23.44207375,25.788720436159533,24.271373750000002,25.493020436159533,25.05369375C25.49062043615953,25.06074375,25.48822043615953,25.06544375,25.485720436159532,25.07014375C25.463920436159533,25.12417375,25.442120436159534,25.18290375,25.415420436159533,25.24399375C25.388820436159534,25.30272375,25.362120436159532,25.35910375,25.337920436159532,25.41783375C25.163420436159534,25.791373749999998,24.90882043615953,26.22130375,24.60832043615953,26.38105375C24.26654043615953,26.56430375,23.672690436159534,26.35286375,23.54423043615953,25.99811375C23.333350436159535,25.42018375,23.66057043615953,24.33715375,23.648450436159532,24.29956375C23.776920436159532,23.78037375,24.133230436159533,22.20163375,24.305320436159533,21.14444375C24.317440436159533,21.06457375,24.431360436159533,20.59470775,24.021730436159533,20.43495475C23.830240436159535,20.36212675,23.575740436159535,20.47724275,23.423030436159532,20.76855375C22.972190436159533,21.62840375,22.305620436159533,23.317553750000002,22.218370436159532,23.58772375C22.208670436159533,23.61357375,22.198970436159534,23.64411375,22.191700436159532,23.66995375C22.191700436159532,23.66995375,22.18928043615953,23.67465375,22.18928043615953,23.67700375C22.17231043615953,23.73338375,21.728740436159534,25.07719375,21.256090436159532,25.45777375C21.008850436159534,25.657463749999998,20.490140436159532,25.73029375,20.099900436159533,25.34970375C19.944770436159533,25.19700375,19.874480436159534,24.962073750000002,19.845390436159533,24.72244375C19.77995043615953,23.08497375,20.67436043615953,21.532083749999998,20.95553043615953,20.75446375C21.035510436159534,20.53597575,21.442720436159533,19.84292925,20.987040436159532,19.75130625C20.30108043615953,19.61269675,18.62860043615953,22.27916375,18.289260436159534,22.90173375C17.450600436159533,24.45227375,16.90523043615953,26.20015375,17.13065043615953,27.964493750000003C17.25669043615953,28.94180375,17.780250436159534,29.85099375,18.580130436159532,30.43359375C18.934010436159532,30.68969375,19.343650436159532,30.91519375,19.79206043615953,31.10079375C18.587400436159534,34.80799375,17.31486043615953,38.672593750000004,16.539220436159532,40.80579375C15.952640436159532,42.41039375,15.336979436159533,44.02669375,14.903105436159532,45.67829375C14.643751436159532,46.66499375,14.309256436159533,47.83489375,14.723738436159532,48.82639375C15.157612436159532,49.862393749999995,16.684650436159533,49.83419375,17.348800436159532,48.91559375C18.09535043615953,47.87959375,18.340160436159533,46.50989375,18.77646043615953,44.36499375C19.212760436159535,42.21779375,19.842970436159533,39.297593750000004,20.179890436159532,37.72589375C20.676780436159532,35.41179375,21.180950436159534,33.407793749999996,21.670570436159533,31.58709375C22.911590436159532,31.725693749999998,24.167160436159534,31.50019375,25.051920436159534,30.71549375C25.439720436159533,30.37249375,25.747520436159533,29.95669375,26.002020436159533,29.51268375C26.389820436159532,28.84078375,26.70012043615953,28.07490375,26.864920436159533,27.32077375C27.012820436159533,26.62538375,27.92662043615953,21.14914375,26.811620436159533,21.29245375C26.811620436159533,21.29245375,26.811620436159533,21.29245375,26.811620436159533,21.29245375C26.811620436159533,21.29245375,26.811620436159533,21.29245375,26.811620436159533,21.29245375Z" fill="#FFFFFF" fill-opacity="1"/></g></g></g></svg>