<svg xmlns="http://www.w3.org/2000/svg" xmlns:xlink="http://www.w3.org/1999/xlink" fill="none" version="1.1" width="30" height="30" viewBox="0 0 30 30"><defs><clipPath id="master_svg0_0_1323"><rect x="0" y="0" width="30" height="30" rx="0"/></clipPath></defs><g clip-path="url(#master_svg0_0_1323)"><g><path d="M15.00009765625,0.60009765625C7.04709765625,0.60009765625,0.60009765625,7.04709765625,0.60009765625,15.00009765625C0.60009765625,22.95309765625,7.04709765625,29.40009765625,15.00009765625,29.40009765625C22.95309765625,29.40009765625,29.40009765625,22.95309765625,29.40009765625,15.00009765625C29.40009765625,7.04709765625,22.95309765625,0.60009765625,15.00009765625,0.60009765625C15.00009765625,0.60009765625,15.00009765625,0.60009765625,15.00009765625,0.60009765625ZM18.41109765625,10.55109765625C18.41109765625,10.55109765625,16.24659765625,10.55109765625,16.24659765625,10.55109765625C15.99009765625,10.55109765625,15.70509765625,10.88859765625,15.70509765625,11.33709765625C15.70509765625,11.33709765625,15.70509765625,12.90009765625,15.70509765625,12.90009765625C15.70509765625,12.90009765625,18.41259765625,12.90009765625,18.41259765625,12.90009765625C18.41259765625,12.90009765625,18.00309765625,15.12909765625,18.00309765625,15.12909765625C18.00309765625,15.12909765625,15.70509765625,15.12909765625,15.70509765625,15.12909765625C15.70509765625,15.12909765625,15.70509765625,21.82059765625,15.70509765625,21.82059765625C15.70509765625,21.82059765625,13.15059765625,21.82059765625,13.15059765625,21.82059765625C13.15059765625,21.82059765625,13.15059765625,15.12909765625,13.15059765625,15.12909765625C13.15059765625,15.12909765625,10.83309765625,15.12909765625,10.83309765625,15.12909765625C10.83309765625,15.12909765625,10.83309765625,12.90009765625,10.83309765625,12.90009765625C10.83309765625,12.90009765625,13.15059765625,12.90009765625,13.15059765625,12.90009765625C13.15059765625,12.90009765625,13.15059765625,11.58909765625,13.15059765625,11.58909765625C13.15059765625,9.70809765625,14.45559765625,8.17959765625,16.24659765625,8.17959765625C16.24659765625,8.17959765625,18.41109765625,8.17959765625,18.41109765625,8.17959765625C18.41109765625,8.17959765625,18.41109765625,10.55109765625,18.41109765625,10.55109765625C18.41109765625,10.55109765625,18.41109765625,10.55109765625,18.41109765625,10.55109765625C18.41109765625,10.55109765625,18.41109765625,10.55109765625,18.41109765625,10.55109765625Z" fill="#FFFFFF" fill-opacity="1"/></g></g></svg>