<svg xmlns="http://www.w3.org/2000/svg" xmlns:xlink="http://www.w3.org/1999/xlink" fill="none" version="1.1" width="174" height="33" viewBox="0 0 174 33"><defs><clipPath id="master_svg0_0_14"><rect x="0" y="0" width="174" height="33" rx="0"/></clipPath><linearGradient x1="0.9273916482925415" y1="0.48809781670570374" x2="-1.7647026950839972e-8" y2="0.5054892897605896" id="master_svg1_0_19"><stop offset="0%" stop-color="#299BD8" stop-opacity="1"/><stop offset="100%" stop-color="#1262AF" stop-opacity="1"/></linearGradient></defs><g clip-path="url(#master_svg0_0_14)"><g><g><g><g><path d="M129.851,8.059020624999992C131.214,8.059020624999992,132.452,8.232420624999992,133.564,8.579200624999993C134.676,8.925990624999994,135.615,9.374420624999994,136.38,9.924490624999994C136.858,10.259320624999994,137.235,10.629990624999992,137.51,11.036590624999993C137.785,11.443190624999993,137.923,11.969290624999992,137.923,12.615090624999993C137.923,12.615090624999993,137.923,25.171090624999994,137.923,25.171090624999994C137.923,25.171090624999994,137.917,25.512490624999995,137.917,25.512490624999995C137.877,26.636190624999994,137.64,27.616590624999994,137.205,28.453690624999993C136.727,29.374390624999993,136.075,30.139690624999993,135.25,30.749590624999993C134.425,31.359490624999992,133.456,31.80789062499999,132.344,32.09489062499999C131.232,32.381890625,130.042,32.52539062499999,128.775,32.52539062499999C126.598,32.52539062499999,124.888,32.232390624999994,123.645,31.64649062499999C122.401,31.060490624999993,121.779,30.10989062499999,121.779,28.794490624999995C121.779,28.244390624999994,121.893,27.760090624999993,122.12,27.34149062499999C122.347,26.922990624999994,122.604,26.606090624999993,122.891,26.390890624999994C123.585,26.773490624999994,124.368,27.096390624999994,125.241,27.359490624999992C126.114,27.622590624999994,127.017,27.754090624999993,127.95,27.754090624999993C129.241,27.754090624999993,130.269,27.538890624999993,131.035,27.10839062499999C131.8,26.677890624999993,132.183,25.984290624999993,132.183,25.02759062499999C132.183,25.02759062499999,132.183,24.453690624999993,132.183,24.453690624999993C132.183,24.453690624999993,131.91,24.56569062499999,131.91,24.56569062499999C130.983,24.921490624999993,129.878,25.099390624999995,128.595,25.099390624999995C127.519,25.099390624999995,126.497,24.937990624999994,125.528,24.615090624999993C124.559,24.292190624999993,123.71,23.789990624999994,122.981,23.10839062499999C122.251,22.426690624999992,121.665,21.547790624999994,121.223,20.471590624999994C120.781,19.395390624999994,120.559,18.115790624999992,120.559,16.632990624999994C120.559,15.174090624999993,120.793,13.906590624999993,121.259,12.830290624999993C121.725,11.754090624999993,122.371,10.863190624999993,123.196,10.157680624999992C124.021,9.452150624999993,125.002,8.925990624999994,126.138,8.579200624999993C127.274,8.232420624999992,128.512,8.059020624999992,129.851,8.059020624999992C129.851,8.059020624999992,129.851,8.059020624999992,129.851,8.059020624999992ZM33.2869,8.615940624999993C35.4197,8.615940624999993,37.165,9.094520624999992,38.5227,10.051680624999992C39.8804,11.008890624999992,40.6841,12.699490624999992,40.9338,15.123590624999993C40.9338,15.123590624999993,36.3769,15.123590624999993,36.3769,15.123590624999993C36.3769,15.123590624999993,36.3333,14.855390624999993,36.3333,14.855390624999993C36.2301,14.326790624999992,36.0313,13.843890624999993,35.737,13.406990624999993C35.2377,12.720290624999993,34.4626,12.376990624999992,33.4118,12.376990624999992C31.9136,12.376990624999992,30.8888,13.120890624999992,30.3374,14.608590624999993C30.0461,15.399290624999994,29.9004,16.450090624999994,29.9004,17.760990624999994C29.9004,19.009490624999994,30.0461,20.013490624999992,30.3374,20.77289062499999C30.868,22.187890624999994,31.8668,22.895290624999994,33.3337,22.895290624999994C34.3741,22.895290624999994,35.1128,22.61439062499999,35.5498,22.052590624999993C35.9867,21.490790624999992,36.252,20.762490624999995,36.3457,19.867790624999994C36.3457,19.867790624999994,40.887,19.867790624999994,40.887,19.867790624999994C40.887,19.867790624999994,40.8561,20.17859062499999,40.8561,20.17859062499999C40.7054,21.416790624999994,40.2267,22.592790624999992,39.42,23.706790624999993C38.0259,25.652390624999992,35.9607,26.62519062499999,33.2245,26.62519062499999C30.4883,26.62519062499999,28.4751,25.813590624999993,27.185,24.19059062499999C25.8949,22.567590624999994,25.2499,20.460790624999994,25.2499,17.870190624999992C25.2499,14.946690624999993,25.9626,12.673490624999992,27.3879,11.050490624999993C28.8132,9.427450624999993,30.7796,8.615940624999993,33.2869,8.615940624999993C33.2869,8.615940624999993,33.2869,8.615940624999993,33.2869,8.615940624999993ZM74.6185,8.569120624999993C76.0334,8.569120624999993,77.3079,8.834420624999993,78.4419,9.365020624999993C79.5759,9.895630624999994,80.5123,10.733190624999994,81.251,11.877590624999993C81.9168,12.886790624999993,82.3486,14.057190624999993,82.5462,15.388890624999993C82.6607,16.16919062499999,82.7075,17.29279062499999,82.6867,18.759790624999994C82.6867,18.759790624999994,71.0447,18.759790624999994,71.0447,18.759790624999994C71.0447,18.759790624999994,71.0606,19.055590624999994,71.0606,19.055590624999994C71.1718,20.604990624999992,71.7023,21.70289062499999,72.6521,22.34909062499999C73.2659,22.775690624999992,74.0046,22.988990624999992,74.8681,22.988990624999992C75.7837,22.988990624999992,76.5276,22.72889062499999,77.0998,22.208690624999992C77.4119,21.927790624999993,77.6876,21.537590624999993,77.9269,21.03819062499999C77.9269,21.03819062499999,82.4682,21.03819062499999,82.4682,21.03819062499999C82.4682,21.03819062499999,82.4345,21.27139062499999,82.4345,21.27139062499999C82.2705,22.205190624999993,81.7563,23.152190624999992,80.892,24.112590624999992C79.4355,25.76679062499999,77.3963,26.593890624999993,74.7745,26.593890624999993C72.6105,26.593890624999993,70.7014,25.896890624999994,69.0471,24.502690624999993C67.3929,23.108590624999994,66.5658,20.840590624999994,66.5658,17.698590624999994C66.5658,14.754290624999992,67.3123,12.496590624999993,68.8053,10.925590624999993C70.2982,9.354620624999994,72.236,8.569120624999993,74.6185,8.569120624999993C74.6185,8.569120624999993,74.6185,8.569120624999993,74.6185,8.569120624999993ZM105.848,2.319110624999993C106.374,2.319110624999993,106.846,2.354990624999993,107.265,2.4267406249999928C107.683,2.498480624999993,108.036,2.641980624999993,108.323,2.857230624999993C108.61,3.0724806249999927,108.831,3.3654506249999927,108.987,3.736150624999993C109.142,4.106850624999993,109.22,4.591160624999993,109.22,5.189070624999993C109.22,5.189070624999993,109.22,25.996290624999993,109.22,25.996290624999993C109.22,25.996290624999993,109.099,26.017890624999993,109.099,26.017890624999993C108.843,26.063190624999994,108.495,26.121790624999992,108.054,26.19359062499999C107.54,26.277290624999992,107.019,26.319090624999994,106.493,26.319090624999994C105.967,26.319090624999994,105.495,26.283190624999992,105.076,26.211490624999993C104.658,26.139690624999993,104.305,25.996290624999993,104.018,25.780990624999994C103.731,25.565790624999995,103.51,25.272790624999992,103.354,24.902090624999992C103.199,24.531390624999993,103.121,24.047090624999992,103.121,23.449190624999993C103.121,23.449190624999993,103.121,2.641980624999993,103.121,2.641980624999993C103.121,2.641980624999993,103.242,2.620380624999993,103.242,2.620380624999993C103.498,2.5749906249999928,103.846,2.516420624999993,104.287,2.444670624999993C104.801,2.360970624999993,105.321,2.319110624999993,105.848,2.319110624999993C105.848,2.319110624999993,105.848,2.319110624999993,105.848,2.319110624999993ZM115.015,8.525390624999993C115.541,8.525390624999993,116.014,8.561260624999992,116.432,8.633010624999994C116.851,8.704760624999993,117.203,8.848260624999993,117.49,9.063510624999992C117.777,9.278750624999994,117.999,9.571730624999994,118.154,9.942430624999993C118.31,10.313130624999992,118.387,10.797390624999993,118.387,11.395390624999992C118.387,11.395390624999992,118.387,25.996290624999993,118.387,25.996290624999993C118.387,25.996290624999993,118.267,26.017890624999993,118.267,26.017890624999993C118.011,26.063190624999994,117.662,26.121790624999992,117.221,26.19359062499999C116.707,26.277290624999992,116.187,26.319090624999994,115.661,26.319090624999994C115.135,26.319090624999994,114.662,26.283190624999992,114.244,26.211490624999993C113.825,26.139690624999993,113.473,25.996290624999993,113.186,25.780990624999994C112.899,25.565790624999995,112.677,25.272790624999992,112.522,24.902090624999992C112.366,24.531390624999993,112.289,24.047090624999992,112.289,23.449190624999993C112.289,23.449190624999993,112.289,8.848260624999993,112.289,8.848260624999993C112.289,8.848260624999993,112.409,8.826660624999993,112.409,8.826660624999993C112.665,8.781270624999992,113.014,8.722700624999993,113.455,8.650950624999993C113.969,8.567240624999993,114.489,8.525390624999993,115.015,8.525390624999993C115.015,8.525390624999993,115.015,8.525390624999993,115.015,8.525390624999993ZM143.574,2.319110624999993C144.101,2.319110624999993,144.573,2.354990624999993,144.991,2.4267406249999928C145.41,2.498480624999993,145.763,2.641980624999993,146.05,2.857230624999993C146.337,3.0724806249999927,146.558,3.3654506249999927,146.713,3.736150624999993C146.869,4.106850624999993,146.947,4.591160624999993,146.947,5.189070624999993C146.947,5.189070624999993,146.947,8.704760624999993,146.947,8.704760624999993C146.947,8.704760624999993,147.071,8.659080624999993,147.071,8.659080624999993C147.378,8.550520624999994,147.809,8.428230624999994,148.364,8.292210624999992C148.997,8.136750624999994,149.697,8.059020624999992,150.462,8.059020624999992C152.83,8.059020624999992,154.678,8.650950624999993,156.005,9.834810624999992C157.332,11.018690624999993,157.996,12.782490624999992,157.996,15.126290624999992C157.996,15.126290624999992,157.996,25.996290624999993,157.996,25.996290624999993C157.996,25.996290624999993,157.885,26.026990624999993,157.885,26.026990624999993C157.646,26.08849062499999,157.307,26.149990624999994,156.866,26.211490624999993C156.352,26.283190624999992,155.82,26.319090624999994,155.27,26.319090624999994C154.743,26.319090624999994,154.271,26.283190624999992,153.852,26.211490624999993C153.434,26.139690624999993,153.081,25.996290624999993,152.794,25.780990624999994C152.507,25.565790624999995,152.286,25.272790624999992,152.131,24.902090624999992C151.975,24.531390624999993,151.897,24.047090624999992,151.897,23.449190624999993C151.897,23.449190624999993,151.897,15.484990624999993,151.897,15.484990624999993C151.897,15.484990624999993,151.893,15.263990624999993,151.893,15.263990624999993C151.858,14.400390624999993,151.614,13.786490624999994,151.162,13.422290624999993C150.672,13.027590624999993,150.068,12.830290624999993,149.35,12.830290624999993C148.872,12.830290624999993,148.417,12.890090624999992,147.987,13.009690624999992C147.557,13.129290624999992,147.21,13.272790624999994,146.947,13.440190624999993C146.947,13.440190624999993,146.947,25.996290624999993,146.947,25.996290624999993C146.947,25.996290624999993,146.836,26.026990624999993,146.836,26.026990624999993C146.597,26.08849062499999,146.257,26.149990624999994,145.817,26.211490624999993C145.302,26.283190624999992,144.77,26.319090624999994,144.22,26.319090624999994C143.694,26.319090624999994,143.222,26.283190624999992,142.803,26.211490624999993C142.385,26.139690624999993,142.032,25.996290624999993,141.745,25.780990624999994C141.458,25.565790624999995,141.237,25.272790624999992,141.081,24.902090624999992C140.926,24.531390624999993,140.848,24.047090624999992,140.848,23.449190624999993C140.848,23.449190624999993,140.848,2.641980624999993,140.848,2.641980624999993C140.848,2.641980624999993,140.968,2.620380624999993,140.968,2.620380624999993C141.225,2.5749906249999928,141.573,2.516420624999993,142.014,2.444670624999993C142.528,2.360970624999993,143.048,2.319110624999993,143.574,2.319110624999993C143.574,2.319110624999993,143.574,2.319110624999993,143.574,2.319110624999993ZM100.626,4.292210624999993C100.626,4.292210624999993,100.708,4.431220624999993,100.708,4.431220624999993C100.843,4.675370624999993,100.965,4.981790624999993,101.075,5.3505006249999925C101.206,5.7929506249999925,101.272,6.253340624999993,101.272,6.7316706249999925C101.272,7.664400624999993,101.075,8.328080624999993,100.68,8.722700624999993C100.285,9.117320624999993,99.7533,9.314630624999992,99.0836,9.314630624999992C99.0836,9.314630624999992,91.55,9.314630624999992,91.55,9.314630624999992C91.55,9.314630624999992,91.55,13.368390624999993,91.55,13.368390624999993C91.55,13.368390624999993,99.4065,13.368390624999993,99.4065,13.368390624999993C99.4065,13.368390624999993,99.4997,13.506990624999993,99.4997,13.506990624999993C99.6508,13.749390624999993,99.7812,14.050090624999992,99.8908,14.408790624999993C100.022,14.839290624999993,100.088,15.293690624999993,100.088,15.771990624999994C100.088,16.680890624999993,99.8908,17.332590624999995,99.4962,17.72719062499999C99.1016,18.121790624999992,98.5694,18.319090624999994,97.8998,18.319090624999994C97.8998,18.319090624999994,91.6217,18.319090624999994,91.6217,18.319090624999994C91.6217,18.319090624999994,91.6217,25.888590624999992,91.6217,25.888590624999992C91.6217,25.888590624999992,91.4998,25.91939062499999,91.4998,25.91939062499999C91.2377,25.980890624999994,90.8658,26.042390624999992,90.3841,26.10389062499999C89.822,26.175590624999995,89.266,26.211490624999993,88.7159,26.211490624999993C88.1658,26.211490624999993,87.6815,26.169590624999994,87.263,26.085890624999994C86.8445,26.002190624999994,86.4917,25.852790624999994,86.2047,25.637490624999995C85.9177,25.42229062499999,85.7025,25.123290624999992,85.559,24.740590624999992C85.4155,24.357990624999992,85.3437,23.855690624999994,85.3437,23.233890624999994C85.3437,23.233890624999994,85.3437,7.628530624999993,85.3437,7.628530624999993C85.3437,7.628530624999993,85.3499,7.375910624999993,85.3499,7.375910624999993C85.3956,6.466100624999993,85.6925,5.737150624999993,86.2406,5.189070624999993C86.8385,4.591160624999993,87.6516,4.292210624999993,88.68,4.292210624999993C88.68,4.292210624999993,100.626,4.292210624999993,100.626,4.292210624999993C100.626,4.292210624999993,100.626,4.292210624999993,100.626,4.292210624999993ZM16.3082,3.060250624999993C16.3082,3.060250624999993,16.3082,7.102170624999993,16.3082,7.102170624999993C16.3082,7.102170624999993,4.7754,7.102170624999993,4.7754,7.102170624999993C4.7754,7.102170624999993,4.7754,12.392590624999993,4.7754,12.392590624999993C4.7754,12.392590624999993,14.8724,12.392590624999993,14.8724,12.392590624999993C14.8724,12.392590624999993,14.8724,16.38769062499999,14.8724,16.38769062499999C14.8724,16.38769062499999,4.7754,16.38769062499999,4.7754,16.38769062499999C4.7754,16.38769062499999,4.7754,26.03209062499999,4.7754,26.03209062499999C4.7754,26.03209062499999,0,26.03209062499999,0,26.03209062499999C0,26.03209062499999,0,3.060250624999993,0,3.060250624999993C0,3.060250624999993,16.3082,3.060250624999993,16.3082,3.060250624999993C16.3082,3.060250624999993,16.3082,3.060250624999993,16.3082,3.060250624999993ZM22.8234,9.021700624999992C22.8234,9.021700624999992,22.8234,26.03209062499999,22.8234,26.03209062499999C22.8234,26.03209062499999,18.3133,26.03209062499999,18.3133,26.03209062499999C18.3133,26.03209062499999,18.3133,9.021700624999992,18.3133,9.021700624999992C18.3133,9.021700624999992,22.8234,9.021700624999992,22.8234,9.021700624999992C22.8234,9.021700624999992,22.8234,9.021700624999992,22.8234,9.021700624999992ZM47.4022,3.107060624999993C47.4022,3.107060624999993,47.4022,15.498190624999992,47.4022,15.498190624999992C47.4022,15.498190624999992,52.9423,9.099730624999992,52.9423,9.099730624999992C52.9423,9.099730624999992,58.4512,9.099730624999992,58.4512,9.099730624999992C58.4512,9.099730624999992,52.5054,15.607390624999994,52.5054,15.607390624999994C52.5054,15.607390624999994,58.6853,26.03209062499999,58.6853,26.03209062499999C58.6853,26.03209062499999,53.3169,26.03209062499999,53.3169,26.03209062499999C53.3169,26.03209062499999,49.2437,18.759790624999994,49.2437,18.759790624999994C49.2437,18.759790624999994,47.4022,20.679290624999993,47.4022,20.679290624999993C47.4022,20.679290624999993,47.4022,26.03209062499999,47.4022,26.03209062499999C47.4022,26.03209062499999,43.0326,26.03209062499999,43.0326,26.03209062499999C43.0326,26.03209062499999,43.0326,3.107060624999993,43.0326,3.107060624999993C43.0326,3.107060624999993,47.4022,3.107060624999993,47.4022,3.107060624999993C47.4022,3.107060624999993,47.4022,3.107060624999993,47.4022,3.107060624999993ZM64.4827,3.0290306249999928C64.4827,3.0290306249999928,64.4827,26.03209062499999,64.4827,26.03209062499999C64.4827,26.03209062499999,60.035,26.03209062499999,60.035,26.03209062499999C60.035,26.03209062499999,60.035,3.0290306249999928,60.035,3.0290306249999928C60.035,3.0290306249999928,64.4827,3.0290306249999928,64.4827,3.0290306249999928C64.4827,3.0290306249999928,64.4827,3.0290306249999928,64.4827,3.0290306249999928ZM158.328,4.144670624999993C159.074,3.920480624999993,160.346,3.8706106249999928,161.836,4.529330624999993C163.339,5.194310624999993,164.277,6.334900624999993,164.649,7.951110624999993C164.649,7.951110624999993,172.721,8.637130624999992,172.721,8.637130624999992C172.821,8.642930624999993,172.92,8.663180624999994,173.019,8.697880624999993C173.167,8.749940624999994,173.247,8.823170624999992,173.314,8.880510624999992C173.478,9.021080624999993,173.531,9.129470624999993,173.609,9.323560624999994C173.748,9.668680624999993,173.706,10.074890624999993,173.525,10.353410624999993C173.233,10.802490624999994,172.777,11.092990624999993,172.156,11.224990624999993C172.156,11.224990624999993,165.639,12.610090624999993,165.639,12.610090624999993C165.639,12.610090624999993,166.79,18.021690624999994,166.79,18.021690624999994C166.922,18.642890624999993,167.213,19.042990624999995,167.663,19.222090624999993C168.113,19.40109062499999,168.696,19.414390624999992,169.413,19.262090624999992C169.772,19.185890624999992,170.135,19.077290624999993,170.505,18.936290624999994C170.875,18.795290624999993,171.193,18.646590624999995,171.459,18.490090624999993C171.73,18.707190624999992,171.977,18.96049062499999,172.201,19.24999062499999C172.425,19.53959062499999,172.585,19.911290624999992,172.682,20.365290624999993C173.038,22.043390624999994,170.397,23.628790624999993,168.666,23.939990624999993C167.062,24.228090624999993,164.602,24.467490624999993,163.195,20.782790624999993C161.789,17.098090624999994,159.58,10.921590624999993,157.894,5.774390624999993C157.748,5.330200624999993,157.658,4.893930624999993,157.814,4.533930624999993C157.899,4.339340624999993,157.96,4.255350624999993,158.328,4.144670624999993C158.328,4.144670624999993,158.328,4.144670624999993,158.328,4.144670624999993ZM130.138,12.830290624999993C128.966,12.830290624999993,128.087,13.159190624999994,127.501,13.816890624999992C126.915,14.474590624999992,126.622,15.413290624999993,126.622,16.632990624999994C126.622,18.020190624999994,126.915,19.018690624999994,127.501,19.628490624999994C128.087,20.238390624999994,128.834,20.543290624999994,129.743,20.543290624999994C130.724,20.543290624999994,131.501,20.316090624999994,132.075,19.861690624999994C132.075,19.861690624999994,132.075,13.260790624999993,132.075,13.260790624999993C132.075,13.260790624999993,131.965,13.203390624999994,131.965,13.203390624999994C131.806,13.126890624999993,131.598,13.050390624999993,131.34,12.973790624999992C131.017,12.878190624999993,130.616,12.830290624999993,130.138,12.830290624999993C130.138,12.830290624999993,130.138,12.830290624999993,130.138,12.830290624999993ZM74.6185,12.236490624999993C73.5885,12.236490624999993,72.79,12.558990624999993,72.2229,13.204090624999992C71.6559,13.849090624999993,71.2996,14.723090624999992,71.1539,15.825890624999992C71.1539,15.825890624999992,78.0674,15.825890624999992,78.0674,15.825890624999992C77.9945,14.650190624999993,77.6382,13.758090624999992,76.9984,13.149490624999993C76.3585,12.540790624999993,75.5652,12.236490624999993,74.6185,12.236490624999993C74.6185,12.236490624999993,74.6185,12.236490624999993,74.6185,12.236490624999993ZM22.8234,2.888580624999993C22.8234,2.888580624999993,22.8234,6.9929306249999925,22.8234,6.9929306249999925C22.8234,6.9929306249999925,18.3133,6.9929306249999925,18.3133,6.9929306249999925C18.3133,6.9929306249999925,18.3133,2.888580624999993,18.3133,2.888580624999993C18.3133,2.888580624999993,22.8234,2.888580624999993,22.8234,2.888580624999993C22.8234,2.888580624999993,22.8234,2.888580624999993,22.8234,2.888580624999993ZM115.338,0.5253906249999929C116.342,0.5253906249999929,117.15,0.836302624999993,117.76,1.458125624999993C118.369,2.079950624999993,118.674,2.845270624999993,118.674,3.754090624999993C118.674,4.662910624999993,118.369,5.428230624999993,117.76,6.050050624999993C117.15,6.671880624999993,116.342,6.982790624999993,115.338,6.982790624999993C114.334,6.982790624999993,113.526,6.671880624999993,112.916,6.050050624999993C112.307,5.428230624999993,112.002,4.662910624999993,112.002,3.754090624999993C112.002,2.845270624999993,112.307,2.079950624999993,112.916,1.458125624999993C113.526,0.836302624999993,114.334,0.5253906249999929,115.338,0.5253906249999929C115.338,0.5253906249999929,115.338,0.5253906249999929,115.338,0.5253906249999929Z" fill="url(#master_svg1_0_19)" fill-opacity="1"/></g></g></g></g></g></svg>