<svg xmlns="http://www.w3.org/2000/svg" xmlns:xlink="http://www.w3.org/1999/xlink" fill="none" version="1.1" width="24" height="24" viewBox="0 0 24 24"><defs><clipPath id="master_svg0_0_1397"><rect x="0" y="0" width="24" height="24" rx="0"/></clipPath></defs><g clip-path="url(#master_svg0_0_1397)"><g><g><path d="M7.428715325393677,5.142859761581421C7.277155325393677,5.142859761581421,7.131815325393677,5.203059761581421,7.0246553253936765,5.310219761581421C6.9174853253936766,5.417389761581421,6.8572853253936765,5.562729761581421,6.8572853253936765,5.714289761581421C6.8572853253936765,5.714289761581421,6.8572853253936765,7.999999761581421,6.8572853253936765,7.999999761581421C6.8572853253936765,8.151549761581421,6.9174853253936766,8.296899761581422,7.0246553253936765,8.404059761581422C7.131815325393677,8.51121976158142,7.277155325393677,8.57142976158142,7.428715325393677,8.57142976158142C7.580265325393677,8.57142976158142,7.725605325393676,8.51121976158142,7.832775325393676,8.404059761581422C7.939935325393677,8.296899761581422,8.000135325393677,8.151549761581421,8.000135325393677,7.999999761581421C8.000135325393677,7.999999761581421,8.000135325393677,5.714289761581421,8.000135325393677,5.714289761581421C8.000135325393677,5.562729761581421,7.939935325393677,5.417389761581421,7.832775325393676,5.310219761581421C7.725605325393676,5.203059761581421,7.580265325393677,5.142859761581421,7.428715325393677,5.142859761581421C7.428715325393677,5.142859761581421,7.428715325393677,5.142859761581421,7.428715325393677,5.142859761581421ZM7.428715325393677,3.999999761581421C7.883365325393677,3.999999761581421,8.319405325393676,4.180611761581421,8.640895325393677,4.502102761581421C8.962385325393676,4.823592761581421,9.142995325393677,5.2596297615814205,9.142995325393677,5.714289761581421C9.142995325393677,5.714289761581421,9.142995325393677,7.999999761581421,9.142995325393677,7.999999761581421C9.142995325393677,8.454659761581421,8.962385325393676,8.89068976158142,8.640895325393677,9.212179761581421C8.319405325393676,9.533669761581422,7.883365325393677,9.71427976158142,7.428715325393677,9.71427976158142C6.974055325393676,9.71427976158142,6.538019325393677,9.533669761581422,6.216528325393677,9.212179761581421C5.895037325393677,8.89068976158142,5.714425325393677,8.454659761581421,5.714425325393677,7.999999761581421C5.714425325393677,7.999999761581421,5.714425325393677,5.714289761581421,5.714425325393677,5.714289761581421C5.714425325393677,5.2596297615814205,5.895037325393677,4.823592761581421,6.216528325393677,4.502102761581421C6.538019325393677,4.180611761581421,6.974055325393676,3.999999761581421,7.428715325393677,3.999999761581421C7.428715325393677,3.999999761581421,7.428715325393677,3.999999761581421,7.428715325393677,3.999999761581421Z" fill-rule="evenodd" fill="#303030" fill-opacity="1"/></g><g><path d="M7.999999284744263,6.857143149475098C7.999999284744263,6.541551149475097,8.255836284744262,6.285714149475098,8.571428284744263,6.285714149475098C8.571428284744263,6.285714149475098,21.14289928474426,6.285714149475098,21.14289928474426,6.285714149475098C21.458499284744263,6.285714149475098,21.714299284744264,6.541551149475097,21.714299284744264,6.857143149475098C21.714299284744264,7.172734149475097,21.458499284744263,7.428574149475097,21.14289928474426,7.428574149475097C21.14289928474426,7.428574149475097,8.571428284744263,7.428574149475097,8.571428284744263,7.428574149475097C8.255836284744262,7.428574149475097,7.999999284744263,7.172734149475097,7.999999284744263,6.857143149475098C7.999999284744263,6.857143149475098,7.999999284744263,6.857143149475098,7.999999284744263,6.857143149475098Z" fill-rule="evenodd" fill="#303030" fill-opacity="1"/></g><g><path d="M2.2857143878936768,6.857143149475098C2.2857143878936768,6.541551149475097,2.541551387893677,6.285714149475098,2.857143387893677,6.285714149475098C2.857143387893677,6.285714149475098,6.285714387893677,6.285714149475098,6.285714387893677,6.285714149475098C6.601304387893677,6.285714149475098,6.857144387893677,6.541551149475097,6.857144387893677,6.857143149475098C6.857144387893677,7.172734149475097,6.601304387893677,7.428574149475097,6.285714387893677,7.428574149475097C6.285714387893677,7.428574149475097,2.857143387893677,7.428574149475097,2.857143387893677,7.428574149475097C2.541551387893677,7.428574149475097,2.2857143878936768,7.172734149475097,2.2857143878936768,6.857143149475098C2.2857143878936768,6.857143149475098,2.2857143878936768,6.857143149475098,2.2857143878936768,6.857143149475098Z" fill-rule="evenodd" fill="#303030" fill-opacity="1"/></g><g><path d="M7.428715325393677,16.571430508956908C7.277155325393677,16.571430508956908,7.131815325393677,16.63163050895691,7.0246553253936765,16.73879050895691C6.9174853253936766,16.84596050895691,6.8572853253936765,16.991300508956908,6.8572853253936765,17.142860508956907C6.8572853253936765,17.142860508956907,6.8572853253936765,19.42857050895691,6.8572853253936765,19.42857050895691C6.8572853253936765,19.58012050895691,6.9174853253936766,19.72547050895691,7.0246553253936765,19.83263050895691C7.131815325393677,19.93979050895691,7.277155325393677,20.00000050895691,7.428715325393677,20.00000050895691C7.580265325393677,20.00000050895691,7.725605325393676,19.93979050895691,7.832775325393676,19.83263050895691C7.939935325393677,19.72547050895691,8.000135325393677,19.58012050895691,8.000135325393677,19.42857050895691C8.000135325393677,19.42857050895691,8.000135325393677,17.142860508956907,8.000135325393677,17.142860508956907C8.000135325393677,16.991300508956908,7.939935325393677,16.84596050895691,7.832775325393676,16.73879050895691C7.725605325393676,16.63163050895691,7.580265325393677,16.571430508956908,7.428715325393677,16.571430508956908C7.428715325393677,16.571430508956908,7.428715325393677,16.571430508956908,7.428715325393677,16.571430508956908ZM6.216528325393677,15.93067350895691C6.538019325393677,15.60918250895691,6.974055325393676,15.42857050895691,7.428715325393677,15.42857050895691C7.883365325393677,15.42857050895691,8.319405325393676,15.60918250895691,8.640895325393677,15.93067350895691C8.962385325393676,16.252163508956908,9.142995325393677,16.68820050895691,9.142995325393677,17.142860508956907C9.142995325393677,17.142860508956907,9.142995325393677,19.42857050895691,9.142995325393677,19.42857050895691C9.142995325393677,19.88323050895691,8.962385325393676,20.31926050895691,8.640895325393677,20.64075050895691C8.319405325393676,20.96225050895691,7.883365325393677,21.142860508956907,7.428715325393677,21.142860508956907C6.974055325393676,21.142860508956907,6.538020325393677,20.96225050895691,6.216528325393677,20.64075050895691C5.895037325393677,20.31926050895691,5.714425325393677,19.88323050895691,5.714425325393677,19.42857050895691C5.714425325393677,19.42857050895691,5.714425325393677,17.142860508956907,5.714425325393677,17.142860508956907C5.714425325393677,16.68820050895691,5.895037325393677,16.252163508956908,6.216528325393677,15.93067350895691C6.216528325393677,15.93067350895691,6.216528325393677,15.93067350895691,6.216528325393677,15.93067350895691Z" fill-rule="evenodd" fill="#303030" fill-opacity="1"/></g><g><path d="M7.999999284744263,18.285711751083372C7.999999284744263,17.970119751083374,8.255836284744262,17.714282751083374,8.571428284744263,17.714282751083374C8.571428284744263,17.714282751083374,21.14289928474426,17.714282751083374,21.14289928474426,17.714282751083374C21.458499284744263,17.714282751083374,21.714299284744264,17.970119751083374,21.714299284744264,18.285711751083372C21.714299284744264,18.601302751083374,21.458499284744263,18.857142751083373,21.14289928474426,18.857142751083373C21.14289928474426,18.857142751083373,8.571428284744263,18.857142751083373,8.571428284744263,18.857142751083373C8.255836284744262,18.857142751083373,7.999999284744263,18.601302751083374,7.999999284744263,18.285711751083372C7.999999284744263,18.285711751083372,7.999999284744263,18.285711751083372,7.999999284744263,18.285711751083372Z" fill-rule="evenodd" fill="#303030" fill-opacity="1"/></g><g><path d="M2.2857143878936768,18.285711751083372C2.2857143878936768,17.970119751083374,2.541551387893677,17.714282751083374,2.857143387893677,17.714282751083374C2.857143387893677,17.714282751083374,6.285714387893677,17.714282751083374,6.285714387893677,17.714282751083374C6.601304387893677,17.714282751083374,6.857144387893677,17.970119751083374,6.857144387893677,18.285711751083372C6.857144387893677,18.601302751083374,6.601304387893677,18.857142751083373,6.285714387893677,18.857142751083373C6.285714387893677,18.857142751083373,2.857143387893677,18.857142751083373,2.857143387893677,18.857142751083373C2.541551387893677,18.857142751083373,2.2857143878936768,18.601302751083374,2.2857143878936768,18.285711751083372C2.2857143878936768,18.285711751083372,2.2857143878936768,18.285711751083372,2.2857143878936768,18.285711751083372Z" fill-rule="evenodd" fill="#303030" fill-opacity="1"/></g><g><path d="M16.571293450393675,10.857144658432007C16.419733450393675,10.857144658432007,16.274393450393678,10.917344658432008,16.167233450393677,11.024514658432008C16.060063450393677,11.131674658432006,15.999863450393677,11.277014658432007,15.999863450393677,11.428574658432007C15.999863450393677,11.428574658432007,15.999863450393677,13.714284658432007,15.999863450393677,13.714284658432007C15.999863450393677,13.865834658432007,16.060063450393677,14.011184658432008,16.167233450393677,14.118344658432008C16.274393450393678,14.225514658432008,16.419733450393675,14.285714658432006,16.571293450393675,14.285714658432006C16.722843450393675,14.285714658432006,16.868183450393676,14.225514658432008,16.975353450393676,14.118344658432008C17.082513450393677,14.011184658432008,17.14271345039368,13.865834658432007,17.14271345039368,13.714284658432007C17.14271345039368,13.714284658432007,17.14271345039368,11.428574658432007,17.14271345039368,11.428574658432007C17.14271345039368,11.277014658432007,17.082513450393677,11.131674658432006,16.975353450393676,11.024514658432008C16.868183450393676,10.917344658432008,16.722843450393675,10.857144658432007,16.571293450393675,10.857144658432007C16.571293450393675,10.857144658432007,16.571293450393675,10.857144658432007,16.571293450393675,10.857144658432007ZM16.571293450393675,9.714284658432007C17.025943450393676,9.714284658432007,17.461983450393678,9.894896658432007,17.78347345039368,10.216387658432007C18.104963450393676,10.537878658432007,18.285573450393677,10.973914658432006,18.285573450393677,11.428574658432007C18.285573450393677,11.428574658432007,18.285573450393677,13.714284658432007,18.285573450393677,13.714284658432007C18.285573450393677,14.168944658432007,18.104963450393676,14.604974658432006,17.78347345039368,14.926464658432007C17.461983450393678,15.247964658432007,17.025943450393676,15.428574658432007,16.571293450393675,15.428574658432007C16.116633450393678,15.428574658432007,15.680597450393677,15.247964658432007,15.359106450393677,14.926464658432007C15.037615450393677,14.604974658432006,14.857003450393677,14.168944658432007,14.857003450393677,13.714284658432007C14.857003450393677,13.714284658432007,14.857003450393677,11.428574658432007,14.857003450393677,11.428574658432007C14.857003450393677,10.973914658432006,15.037615450393677,10.537878658432007,15.359106450393677,10.216387658432007C15.680597450393677,9.894896658432007,16.116633450393678,9.714284658432007,16.571293450393675,9.714284658432007C16.571293450393675,9.714284658432007,16.571293450393675,9.714284658432007,16.571293450393675,9.714284658432007Z" fill-rule="evenodd" fill="#303030" fill-opacity="1"/></g><g><path d="M2.2857143878936768,12.57142676158142C2.2857143878936768,12.25583676158142,2.541551387893677,11.999999761581421,2.857142387893677,11.999999761581421C2.857142387893677,11.999999761581421,15.428614387893676,11.999999761581421,15.428614387893676,11.999999761581421C15.744114387893676,11.999999761581421,16.00001438789368,12.25583676158142,16.00001438789368,12.57142676158142C16.00001438789368,12.88701776158142,15.744114387893676,13.14284976158142,15.428614387893676,13.14284976158142C15.428614387893676,13.14284976158142,2.857142387893677,13.14284976158142,2.857142387893677,13.14284976158142C2.541551387893677,13.14284976158142,2.2857143878936768,12.88701776158142,2.2857143878936768,12.57142676158142C2.2857143878936768,12.57142676158142,2.2857143878936768,12.57142676158142,2.2857143878936768,12.57142676158142Z" fill-rule="evenodd" fill="#303030" fill-opacity="1"/></g><g><path d="M17.142647981643677,12.57142676158142C17.142647981643677,12.25583676158142,17.398484981643676,11.999999761581421,17.714076981643675,11.999999761581421C17.714076981643675,11.999999761581421,21.142647981643677,11.999999761581421,21.142647981643677,11.999999761581421C21.458237981643677,11.999999761581421,21.714077981643676,12.25583676158142,21.714077981643676,12.57142676158142C21.714077981643676,12.88701776158142,21.458237981643677,13.14284976158142,21.142647981643677,13.14284976158142C21.142647981643677,13.14284976158142,17.714076981643675,13.14284976158142,17.714076981643675,13.14284976158142C17.398484981643676,13.14284976158142,17.142647981643677,12.88701776158142,17.142647981643677,12.57142676158142C17.142647981643677,12.57142676158142,17.142647981643677,12.57142676158142,17.142647981643677,12.57142676158142Z" fill-rule="evenodd" fill="#303030" fill-opacity="1"/></g></g></g></svg>