<svg xmlns="http://www.w3.org/2000/svg" xmlns:xlink="http://www.w3.org/1999/xlink" fill="none" version="1.1" width="107.109375" height="15.1043701171875" viewBox="0 0 107.109375 15.1043701171875"><g><g><path d="M4.40418343095398,7.1140049960327145C4.40418343095398,7.1140049960327145,3.9857774309539793,7.113409996032715,3.9857774309539793,7.113409996032715C3.9857774309539793,7.113409996032715,3.9845874309539795,7.950221996032715,3.9845874309539795,7.950221996032715C3.9845874309539795,7.950221996032715,4.4029934309539795,7.950816996032715,4.4029934309539795,7.950816996032715C4.4029934309539795,7.950816996032715,4.40418343095398,7.1140049960327145,4.40418343095398,7.1140049960327145C4.40418343095398,7.1140049960327145,4.40418343095398,7.1140049960327145,4.40418343095398,7.1140049960327145ZM101.41088743095398,8.088734996032715C101.41088743095398,8.088734996032715,101.82928743095398,8.089329996032715,101.82928743095398,8.089329996032715C101.82928743095398,8.089329996032715,101.83048743095398,7.252517996032715,101.83048743095398,7.252517996032715C101.83048743095398,7.252517996032715,101.41208743095397,7.2519229960327145,101.41208743095397,7.2519229960327145C101.41208743095397,7.2519229960327145,101.41088743095398,8.088734996032715,101.41088743095398,8.088734996032715C101.41088743095398,8.088734996032715,101.41088743095398,8.088734996032715,101.41088743095398,8.088734996032715ZM5.2181874309539795,7.951975996032715C5.2181874309539795,7.951975996032715,5.63658743095398,7.952570996032715,5.63658743095398,7.952570996032715C5.63658743095398,7.952570996032715,5.63777743095398,7.115758996032715,5.63777743095398,7.115758996032715C5.63777743095398,7.115758996032715,5.21937743095398,7.115163996032715,5.21937743095398,7.115163996032715C5.21937743095398,7.115163996032715,5.2181874309539795,7.951975996032715,5.2181874309539795,7.951975996032715C5.2181874309539795,7.951975996032715,5.2181874309539795,7.951975996032715,5.2181874309539795,7.951975996032715ZM9.295337430953978,7.120958996032715C9.295337430953978,7.120958996032715,8.87692743095398,7.120363996032715,8.87692743095398,7.120363996032715C8.87692743095398,7.120363996032715,8.87573743095398,7.957175996032715,8.87573743095398,7.957175996032715C8.87573743095398,7.957175996032715,9.29414743095398,7.957770996032715,9.29414743095398,7.957770996032715C9.29414743095398,7.957770996032715,9.295337430953978,7.120958996032715,9.295337430953978,7.120958996032715C9.295337430953978,7.120958996032715,9.295337430953978,7.120958996032715,9.295337430953978,7.120958996032715ZM10.924537430953979,7.960088996032715C10.924537430953979,7.960088996032715,11.34293743095398,7.9606839960327145,11.34293743095398,7.9606839960327145C11.34293743095398,7.9606839960327145,11.344127430953979,7.123871996032715,11.344127430953979,7.123871996032715C11.344127430953979,7.123871996032715,10.92572743095398,7.123276996032715,10.92572743095398,7.123276996032715C10.92572743095398,7.123276996032715,10.924537430953979,7.960088996032715,10.924537430953979,7.960088996032715C10.924537430953979,7.960088996032715,10.924537430953979,7.960088996032715,10.924537430953979,7.960088996032715ZM15.001687430953979,7.129071996032715C15.001687430953979,7.129071996032715,14.583287430953979,7.128476996032715,14.583287430953979,7.128476996032715C14.583287430953979,7.128476996032715,14.58208743095398,7.965288996032715,14.58208743095398,7.965288996032715C14.58208743095398,7.965288996032715,15.00048743095398,7.965883996032715,15.00048743095398,7.965883996032715C15.00048743095398,7.965883996032715,15.001687430953979,7.129071996032715,15.001687430953979,7.129071996032715C15.001687430953979,7.129071996032715,15.001687430953979,7.129071996032715,15.001687430953979,7.129071996032715ZM16.63088743095398,7.968201996032715C16.63088743095398,7.968201996032715,17.04928743095398,7.968796996032715,17.04928743095398,7.968796996032715C17.04928743095398,7.968796996032715,17.05048743095398,7.131984996032715,17.05048743095398,7.131984996032715C17.05048743095398,7.131984996032715,16.63208743095398,7.1313899960327145,16.63208743095398,7.1313899960327145C16.63208743095398,7.1313899960327145,16.63088743095398,7.968201996032715,16.63088743095398,7.968201996032715C16.63088743095398,7.968201996032715,16.63088743095398,7.968201996032715,16.63088743095398,7.968201996032715ZM20.70798743095398,7.1371849960327145C20.70798743095398,7.1371849960327145,20.28958743095398,7.136589996032715,20.28958743095398,7.136589996032715C20.28958743095398,7.136589996032715,20.28838743095398,7.973401996032715,20.28838743095398,7.973401996032715C20.28838743095398,7.973401996032715,20.70678743095398,7.973996996032715,20.70678743095398,7.973996996032715C20.70678743095398,7.973996996032715,20.70798743095398,7.1371849960327145,20.70798743095398,7.1371849960327145C20.70798743095398,7.1371849960327145,20.70798743095398,7.1371849960327145,20.70798743095398,7.1371849960327145ZM22.33718743095398,7.976314996032714C22.33718743095398,7.976314996032714,22.75558743095398,7.976909996032715,22.75558743095398,7.976909996032715C22.75558743095398,7.976909996032715,22.75678743095398,7.140097996032715,22.75678743095398,7.140097996032715C22.75678743095398,7.140097996032715,22.33838743095398,7.139502996032715,22.33838743095398,7.139502996032715C22.33838743095398,7.139502996032715,22.33718743095398,7.976314996032714,22.33718743095398,7.976314996032714C22.33718743095398,7.976314996032714,22.33718743095398,7.976314996032714,22.33718743095398,7.976314996032714ZM26.41438743095398,7.145297996032715C26.41438743095398,7.145297996032715,25.995987430953978,7.144702996032715,25.995987430953978,7.144702996032715C25.995987430953978,7.144702996032715,25.99478743095398,7.981514996032715,25.99478743095398,7.981514996032715C25.99478743095398,7.981514996032715,26.41318743095398,7.982109996032715,26.41318743095398,7.982109996032715C26.41318743095398,7.982109996032715,26.41438743095398,7.145297996032715,26.41438743095398,7.145297996032715C26.41438743095398,7.145297996032715,26.41438743095398,7.145297996032715,26.41438743095398,7.145297996032715ZM28.04358743095398,7.984427996032715C28.04358743095398,7.984427996032715,28.46198743095398,7.985021996032715,28.46198743095398,7.985021996032715C28.46198743095398,7.985021996032715,28.46318743095398,7.148209996032715,28.46318743095398,7.148209996032715C28.46318743095398,7.148209996032715,28.044787430953978,7.147615996032715,28.044787430953978,7.147615996032715C28.044787430953978,7.147615996032715,28.04358743095398,7.984427996032715,28.04358743095398,7.984427996032715C28.04358743095398,7.984427996032715,28.04358743095398,7.984427996032715,28.04358743095398,7.984427996032715ZM32.12068743095398,7.153409996032715C32.12068743095398,7.153409996032715,31.70228743095398,7.1528159960327145,31.70228743095398,7.1528159960327145C31.70228743095398,7.1528159960327145,31.70108743095398,7.989627996032715,31.70108743095398,7.989627996032715C31.70108743095398,7.989627996032715,32.11948743095398,7.990221996032715,32.11948743095398,7.990221996032715C32.11948743095398,7.990221996032715,32.12068743095398,7.153409996032715,32.12068743095398,7.153409996032715C32.12068743095398,7.153409996032715,32.12068743095398,7.153409996032715,32.12068743095398,7.153409996032715ZM33.749887430953976,7.992539996032715C33.749887430953976,7.992539996032715,34.16828743095398,7.9931349960327145,34.16828743095398,7.9931349960327145C34.16828743095398,7.9931349960327145,34.16948743095398,7.156322996032715,34.16948743095398,7.156322996032715C34.16948743095398,7.156322996032715,33.75108743095398,7.155727996032715,33.75108743095398,7.155727996032715C33.75108743095398,7.155727996032715,33.749887430953976,7.992539996032715,33.749887430953976,7.992539996032715C33.749887430953976,7.992539996032715,33.749887430953976,7.992539996032715,33.749887430953976,7.992539996032715ZM37.82708743095398,7.161523296032715C37.82708743095398,7.161523296032715,37.40868743095398,7.160928396032715,37.40868743095398,7.160928396032715C37.40868743095398,7.160928396032715,37.40748743095398,7.997739996032715,37.40748743095398,7.997739996032715C37.40748743095398,7.997739996032715,37.825887430953976,7.998334996032715,37.825887430953976,7.998334996032715C37.825887430953976,7.998334996032715,37.82708743095398,7.161523296032715,37.82708743095398,7.161523296032715C37.82708743095398,7.161523296032715,37.82708743095398,7.161523296032715,37.82708743095398,7.161523296032715ZM39.45628743095398,8.000652996032715C39.45628743095398,8.000652996032715,39.874687430953976,8.001247996032715,39.874687430953976,8.001247996032715C39.874687430953976,8.001247996032715,39.87588743095398,7.1644360960327145,39.87588743095398,7.1644360960327145C39.87588743095398,7.1644360960327145,39.45748743095398,7.163841196032715,39.45748743095398,7.163841196032715C39.45748743095398,7.163841196032715,39.45628743095398,8.000652996032715,39.45628743095398,8.000652996032715C39.45628743095398,8.000652996032715,39.45628743095398,8.000652996032715,39.45628743095398,8.000652996032715ZM43.53338743095398,7.169636096032715C43.53338743095398,7.169636096032715,43.11498743095398,7.1690411960327145,43.11498743095398,7.1690411960327145C43.11498743095398,7.1690411960327145,43.11378743095398,8.005852996032715,43.11378743095398,8.005852996032715C43.11378743095398,8.005852996032715,43.53218743095398,8.006447996032716,43.53218743095398,8.006447996032716C43.53218743095398,8.006447996032716,43.53338743095398,7.169636096032715,43.53338743095398,7.169636096032715C43.53338743095398,7.169636096032715,43.53338743095398,7.169636096032715,43.53338743095398,7.169636096032715ZM45.16258743095398,8.008765996032714C45.16258743095398,8.008765996032714,45.58098743095398,8.009360996032715,45.58098743095398,8.009360996032715C45.58098743095398,8.009360996032715,45.58218743095398,7.172548896032715,45.58218743095398,7.172548896032715C45.58218743095398,7.172548896032715,45.16378743095398,7.171954096032715,45.16378743095398,7.171954096032715C45.16378743095398,7.171954096032715,45.16258743095398,8.008765996032714,45.16258743095398,8.008765996032714C45.16258743095398,8.008765996032714,45.16258743095398,8.008765996032714,45.16258743095398,8.008765996032714ZM49.23978743095398,7.177748896032715C49.23978743095398,7.177748896032715,48.821387430953976,7.177154096032715,48.821387430953976,7.177154096032715C48.821387430953976,7.177154096032715,48.82018743095398,8.013965996032715,48.82018743095398,8.013965996032715C48.82018743095398,8.013965996032715,49.23858743095398,8.014560996032715,49.23858743095398,8.014560996032715C49.23858743095398,8.014560996032715,49.23978743095398,7.177748896032715,49.23978743095398,7.177748896032715C49.23978743095398,7.177748896032715,49.23978743095398,7.177748896032715,49.23978743095398,7.177748896032715ZM50.86898743095398,8.016878996032714C50.86898743095398,8.016878996032714,51.28738743095398,8.017473996032715,51.28738743095398,8.017473996032715C51.28738743095398,8.017473996032715,51.28858743095398,7.180661696032715,51.28858743095398,7.180661696032715C51.28858743095398,7.180661696032715,50.870187430953976,7.180066896032715,50.870187430953976,7.180066896032715C50.870187430953976,7.180066896032715,50.86898743095398,8.016878996032714,50.86898743095398,8.016878996032714C50.86898743095398,8.016878996032714,50.86898743095398,8.016878996032714,50.86898743095398,8.016878996032714ZM54.94608743095398,7.185861696032715C54.94608743095398,7.185861696032715,54.52768743095398,7.185266896032715,54.52768743095398,7.185266896032715C54.52768743095398,7.185266896032715,54.52648743095398,8.022078996032715,54.52648743095398,8.022078996032715C54.52648743095398,8.022078996032715,54.944887430953976,8.022673996032715,54.944887430953976,8.022673996032715C54.944887430953976,8.022673996032715,54.94608743095398,7.185861696032715,54.94608743095398,7.185861696032715C54.94608743095398,7.185861696032715,54.94608743095398,7.185861696032715,54.94608743095398,7.185861696032715ZM56.57528743095398,8.024991996032714C56.57528743095398,8.024991996032714,56.993687430953976,8.025586996032715,56.993687430953976,8.025586996032715C56.993687430953976,8.025586996032715,56.99488743095398,7.188774596032715,56.99488743095398,7.188774596032715C56.99488743095398,7.188774596032715,56.57648743095398,7.188179696032715,56.57648743095398,7.188179696032715C56.57648743095398,7.188179696032715,56.57528743095398,8.024991996032714,56.57528743095398,8.024991996032714C56.57528743095398,8.024991996032714,56.57528743095398,8.024991996032714,56.57528743095398,8.024991996032714ZM60.65248743095398,7.193974596032715C60.65248743095398,7.193974596032715,60.23408743095398,7.193379696032715,60.23408743095398,7.193379696032715C60.23408743095398,7.193379696032715,60.23288743095398,8.030191996032714,60.23288743095398,8.030191996032714C60.23288743095398,8.030191996032714,60.65128743095398,8.030786996032715,60.65128743095398,8.030786996032715C60.65128743095398,8.030786996032715,60.65248743095398,7.193974596032715,60.65248743095398,7.193974596032715C60.65248743095398,7.193974596032715,60.65248743095398,7.193974596032715,60.65248743095398,7.193974596032715ZM62.28168743095398,8.033103996032715C62.28168743095398,8.033103996032715,62.70008743095398,8.033698996032715,62.70008743095398,8.033698996032715C62.70008743095398,8.033698996032715,62.70128743095398,7.196887396032714,62.70128743095398,7.196887396032714C62.70128743095398,7.196887396032714,62.28288743095398,7.196292496032715,62.28288743095398,7.196292496032715C62.28288743095398,7.196292496032715,62.28168743095398,8.033103996032715,62.28168743095398,8.033103996032715C62.28168743095398,8.033103996032715,62.28168743095398,8.033103996032715,62.28168743095398,8.033103996032715ZM66.35878743095398,7.202087396032715C66.35878743095398,7.202087396032715,65.94038743095399,7.2014924960327145,65.94038743095399,7.2014924960327145C65.94038743095399,7.2014924960327145,65.93918743095398,8.038303996032715,65.93918743095398,8.038303996032715C65.93918743095398,8.038303996032715,66.35758743095397,8.038898996032716,66.35758743095397,8.038898996032716C66.35758743095397,8.038898996032716,66.35878743095398,7.202087396032715,66.35878743095398,7.202087396032715C66.35878743095398,7.202087396032715,66.35878743095398,7.202087396032715,66.35878743095398,7.202087396032715ZM67.98798743095398,8.041216996032714C67.98798743095398,8.041216996032714,68.40638743095398,8.041811996032715,68.40638743095398,8.041811996032715C68.40638743095398,8.041811996032715,68.40758743095398,7.205000196032715,68.40758743095398,7.205000196032715C68.40758743095398,7.205000196032715,67.98918743095398,7.204405296032715,67.98918743095398,7.204405296032715C67.98918743095398,7.204405296032715,67.98798743095398,8.041216996032714,67.98798743095398,8.041216996032714C67.98798743095398,8.041216996032714,67.98798743095398,8.041216996032714,67.98798743095398,8.041216996032714ZM72.06518743095398,7.210200196032715C72.06518743095398,7.210200196032715,71.64678743095398,7.209605296032715,71.64678743095398,7.209605296032715C71.64678743095398,7.209605296032715,71.64558743095398,8.046416996032715,71.64558743095398,8.046416996032715C71.64558743095398,8.046416996032715,72.06398743095399,8.047011996032715,72.06398743095399,8.047011996032715C72.06398743095399,8.047011996032715,72.06518743095398,7.210200196032715,72.06518743095398,7.210200196032715C72.06518743095398,7.210200196032715,72.06518743095398,7.210200196032715,72.06518743095398,7.210200196032715ZM73.69438743095398,8.049329996032714C73.69438743095398,8.049329996032714,74.11278743095399,8.049924996032715,74.11278743095399,8.049924996032715C74.11278743095399,8.049924996032715,74.11398743095398,7.213112996032715,74.11398743095398,7.213112996032715C74.11398743095398,7.213112996032715,73.69558743095398,7.212518196032715,73.69558743095398,7.212518196032715C73.69558743095398,7.212518196032715,73.69438743095398,8.049329996032714,73.69438743095398,8.049329996032714C73.69438743095398,8.049329996032714,73.69438743095398,8.049329996032714,73.69438743095398,8.049329996032714ZM77.77148743095398,7.218312996032715C77.77148743095398,7.218312996032715,77.35308743095398,7.2177179960327145,77.35308743095398,7.2177179960327145C77.35308743095398,7.2177179960327145,77.35188743095398,8.054529996032715,77.35188743095398,8.054529996032715C77.35188743095398,8.054529996032715,77.77028743095399,8.055124996032715,77.77028743095399,8.055124996032715C77.77028743095399,8.055124996032715,77.77148743095398,7.218312996032715,77.77148743095398,7.218312996032715C77.77148743095398,7.218312996032715,77.77148743095398,7.218312996032715,77.77148743095398,7.218312996032715ZM79.40068743095398,8.057442996032714C79.40068743095398,8.057442996032714,79.81908743095399,8.058037996032715,79.81908743095399,8.058037996032715C79.81908743095399,8.058037996032715,79.82028743095398,7.2212259960327145,79.82028743095398,7.2212259960327145C79.82028743095398,7.2212259960327145,79.40188743095398,7.220630996032715,79.40188743095398,7.220630996032715C79.40188743095398,7.220630996032715,79.40068743095398,8.057442996032714,79.40068743095398,8.057442996032714C79.40068743095398,8.057442996032714,79.40068743095398,8.057442996032714,79.40068743095398,8.057442996032714ZM83.47788743095398,7.226425996032715C83.47788743095398,7.226425996032715,83.05948743095398,7.225830996032715,83.05948743095398,7.225830996032715C83.05948743095398,7.225830996032715,83.05828743095398,8.062642996032714,83.05828743095398,8.062642996032714C83.05828743095398,8.062642996032714,83.47668743095397,8.063237996032715,83.47668743095397,8.063237996032715C83.47668743095397,8.063237996032715,83.47788743095398,7.226425996032715,83.47788743095398,7.226425996032715C83.47788743095398,7.226425996032715,83.47788743095398,7.226425996032715,83.47788743095398,7.226425996032715ZM85.10708743095398,8.065555996032716C85.10708743095398,8.065555996032716,85.52548743095397,8.066150996032714,85.52548743095397,8.066150996032714C85.52548743095397,8.066150996032714,85.52668743095398,7.229338996032715,85.52668743095398,7.229338996032715C85.52668743095398,7.229338996032715,85.10828743095398,7.228743996032715,85.10828743095398,7.228743996032715C85.10828743095398,7.228743996032715,85.10708743095398,8.065555996032716,85.10708743095398,8.065555996032716C85.10708743095398,8.065555996032716,85.10708743095398,8.065555996032716,85.10708743095398,8.065555996032716ZM89.18418743095398,7.234538996032715C89.18418743095398,7.234538996032715,88.76578743095398,7.233943996032715,88.76578743095398,7.233943996032715C88.76578743095398,7.233943996032715,88.76458743095398,8.070755996032714,88.76458743095398,8.070755996032714C88.76458743095398,8.070755996032714,89.18298743095399,8.071350996032715,89.18298743095399,8.071350996032715C89.18298743095399,8.071350996032715,89.18418743095398,7.234538996032715,89.18418743095398,7.234538996032715C89.18418743095398,7.234538996032715,89.18418743095398,7.234538996032715,89.18418743095398,7.234538996032715ZM90.81338743095398,8.073668996032715C90.81338743095398,8.073668996032715,91.23178743095399,8.074262996032715,91.23178743095399,8.074262996032715C91.23178743095399,8.074262996032715,91.23298743095398,7.237450996032715,91.23298743095398,7.237450996032715C91.23298743095398,7.237450996032715,90.81458743095398,7.2368569960327145,90.81458743095398,7.2368569960327145C90.81458743095398,7.2368569960327145,90.81338743095398,8.073668996032715,90.81338743095398,8.073668996032715C90.81338743095398,8.073668996032715,90.81338743095398,8.073668996032715,90.81338743095398,8.073668996032715ZM94.89058743095399,7.242650996032715C94.89058743095399,7.242650996032715,94.47218743095398,7.242056996032715,94.47218743095398,7.242056996032715C94.47218743095398,7.242056996032715,94.47098743095398,8.078868996032714,94.47098743095398,8.078868996032714C94.47098743095398,8.078868996032714,94.88938743095397,8.079462996032715,94.88938743095397,8.079462996032715C94.88938743095397,8.079462996032715,94.89058743095399,7.242650996032715,94.89058743095399,7.242650996032715C94.89058743095399,7.242650996032715,94.89058743095399,7.242650996032715,94.89058743095399,7.242650996032715ZM96.51978743095398,8.081780996032714C96.51978743095398,8.081780996032714,96.93818743095397,8.082375996032715,96.93818743095397,8.082375996032715C96.93818743095397,8.082375996032715,96.93938743095399,7.245563996032715,96.93938743095399,7.245563996032715C96.93938743095399,7.245563996032715,96.52098743095398,7.244968996032715,96.52098743095398,7.244968996032715C96.52098743095398,7.244968996032715,96.51978743095398,8.081780996032714,96.51978743095398,8.081780996032714C96.51978743095398,8.081780996032714,96.51978743095398,8.081780996032714,96.51978743095398,8.081780996032714ZM100.59688743095398,7.250763996032715C100.59688743095398,7.250763996032715,100.17848743095398,7.2501689960327145,100.17848743095398,7.2501689960327145C100.17848743095398,7.2501689960327145,100.17728743095398,8.086980996032715,100.17728743095398,8.086980996032715C100.17728743095398,8.086980996032715,100.59568743095397,8.087575996032715,100.59568743095397,8.087575996032715C100.59568743095397,8.087575996032715,100.59688743095398,7.250763996032715,100.59688743095398,7.250763996032715C100.59688743095398,7.250763996032715,100.59688743095398,7.250763996032715,100.59688743095398,7.250763996032715ZM4.4029934309539795,7.950816996032715C4.4029934309539795,7.950816996032715,5.2181874309539795,7.951975996032715,5.2181874309539795,7.951975996032715C5.2181874309539795,7.951975996032715,5.21937743095398,7.115163996032715,5.21937743095398,7.115163996032715C5.21937743095398,7.115163996032715,4.40418343095398,7.1140049960327145,4.40418343095398,7.1140049960327145C4.40418343095398,7.1140049960327145,4.4029934309539795,7.950816996032715,4.4029934309539795,7.950816996032715C4.4029934309539795,7.950816996032715,4.4029934309539795,7.950816996032715,4.4029934309539795,7.950816996032715ZM9.29414743095398,7.957770996032715C9.29414743095398,7.957770996032715,10.924537430953979,7.960088996032715,10.924537430953979,7.960088996032715C10.924537430953979,7.960088996032715,10.92572743095398,7.123276996032715,10.92572743095398,7.123276996032715C10.92572743095398,7.123276996032715,9.295337430953978,7.120958996032715,9.295337430953978,7.120958996032715C9.295337430953978,7.120958996032715,9.29414743095398,7.957770996032715,9.29414743095398,7.957770996032715C9.29414743095398,7.957770996032715,9.29414743095398,7.957770996032715,9.29414743095398,7.957770996032715ZM15.00048743095398,7.965883996032715C15.00048743095398,7.965883996032715,16.63088743095398,7.968201996032715,16.63088743095398,7.968201996032715C16.63088743095398,7.968201996032715,16.63208743095398,7.1313899960327145,16.63208743095398,7.1313899960327145C16.63208743095398,7.1313899960327145,15.001687430953979,7.129071996032715,15.001687430953979,7.129071996032715C15.001687430953979,7.129071996032715,15.00048743095398,7.965883996032715,15.00048743095398,7.965883996032715C15.00048743095398,7.965883996032715,15.00048743095398,7.965883996032715,15.00048743095398,7.965883996032715ZM20.70678743095398,7.973996996032715C20.70678743095398,7.973996996032715,22.33718743095398,7.976314996032714,22.33718743095398,7.976314996032714C22.33718743095398,7.976314996032714,22.33838743095398,7.139502996032715,22.33838743095398,7.139502996032715C22.33838743095398,7.139502996032715,20.70798743095398,7.1371849960327145,20.70798743095398,7.1371849960327145C20.70798743095398,7.1371849960327145,20.70678743095398,7.973996996032715,20.70678743095398,7.973996996032715C20.70678743095398,7.973996996032715,20.70678743095398,7.973996996032715,20.70678743095398,7.973996996032715ZM26.41318743095398,7.982109996032715C26.41318743095398,7.982109996032715,28.04358743095398,7.984427996032715,28.04358743095398,7.984427996032715C28.04358743095398,7.984427996032715,28.044787430953978,7.147615996032715,28.044787430953978,7.147615996032715C28.044787430953978,7.147615996032715,26.41438743095398,7.145297996032715,26.41438743095398,7.145297996032715C26.41438743095398,7.145297996032715,26.41318743095398,7.982109996032715,26.41318743095398,7.982109996032715C26.41318743095398,7.982109996032715,26.41318743095398,7.982109996032715,26.41318743095398,7.982109996032715ZM32.11948743095398,7.990221996032715C32.11948743095398,7.990221996032715,33.749887430953976,7.992539996032715,33.749887430953976,7.992539996032715C33.749887430953976,7.992539996032715,33.75108743095398,7.155727996032715,33.75108743095398,7.155727996032715C33.75108743095398,7.155727996032715,32.12068743095398,7.153409996032715,32.12068743095398,7.153409996032715C32.12068743095398,7.153409996032715,32.11948743095398,7.990221996032715,32.11948743095398,7.990221996032715C32.11948743095398,7.990221996032715,32.11948743095398,7.990221996032715,32.11948743095398,7.990221996032715ZM37.825887430953976,7.998334996032715C37.825887430953976,7.998334996032715,39.45628743095398,8.000652996032715,39.45628743095398,8.000652996032715C39.45628743095398,8.000652996032715,39.45748743095398,7.163841196032715,39.45748743095398,7.163841196032715C39.45748743095398,7.163841196032715,37.82708743095398,7.161523296032715,37.82708743095398,7.161523296032715C37.82708743095398,7.161523296032715,37.825887430953976,7.998334996032715,37.825887430953976,7.998334996032715C37.825887430953976,7.998334996032715,37.825887430953976,7.998334996032715,37.825887430953976,7.998334996032715ZM43.53218743095398,8.006447996032716C43.53218743095398,8.006447996032716,45.16258743095398,8.008765996032714,45.16258743095398,8.008765996032714C45.16258743095398,8.008765996032714,45.16378743095398,7.171954096032715,45.16378743095398,7.171954096032715C45.16378743095398,7.171954096032715,43.53338743095398,7.169636096032715,43.53338743095398,7.169636096032715C43.53338743095398,7.169636096032715,43.53218743095398,8.006447996032716,43.53218743095398,8.006447996032716C43.53218743095398,8.006447996032716,43.53218743095398,8.006447996032716,43.53218743095398,8.006447996032716ZM49.23858743095398,8.014560996032715C49.23858743095398,8.014560996032715,50.86898743095398,8.016878996032714,50.86898743095398,8.016878996032714C50.86898743095398,8.016878996032714,50.870187430953976,7.180066896032715,50.870187430953976,7.180066896032715C50.870187430953976,7.180066896032715,49.23978743095398,7.177748896032715,49.23978743095398,7.177748896032715C49.23978743095398,7.177748896032715,49.23858743095398,8.014560996032715,49.23858743095398,8.014560996032715C49.23858743095398,8.014560996032715,49.23858743095398,8.014560996032715,49.23858743095398,8.014560996032715ZM54.944887430953976,8.022673996032715C54.944887430953976,8.022673996032715,56.57528743095398,8.024991996032714,56.57528743095398,8.024991996032714C56.57528743095398,8.024991996032714,56.57648743095398,7.188179696032715,56.57648743095398,7.188179696032715C56.57648743095398,7.188179696032715,54.94608743095398,7.185861696032715,54.94608743095398,7.185861696032715C54.94608743095398,7.185861696032715,54.944887430953976,8.022673996032715,54.944887430953976,8.022673996032715C54.944887430953976,8.022673996032715,54.944887430953976,8.022673996032715,54.944887430953976,8.022673996032715ZM60.65128743095398,8.030786996032715C60.65128743095398,8.030786996032715,62.28168743095398,8.033103996032715,62.28168743095398,8.033103996032715C62.28168743095398,8.033103996032715,62.28288743095398,7.196292496032715,62.28288743095398,7.196292496032715C62.28288743095398,7.196292496032715,60.65248743095398,7.193974596032715,60.65248743095398,7.193974596032715C60.65248743095398,7.193974596032715,60.65128743095398,8.030786996032715,60.65128743095398,8.030786996032715C60.65128743095398,8.030786996032715,60.65128743095398,8.030786996032715,60.65128743095398,8.030786996032715ZM66.35758743095397,8.038898996032716C66.35758743095397,8.038898996032716,67.98798743095398,8.041216996032714,67.98798743095398,8.041216996032714C67.98798743095398,8.041216996032714,67.98918743095398,7.204405296032715,67.98918743095398,7.204405296032715C67.98918743095398,7.204405296032715,66.35878743095398,7.202087396032715,66.35878743095398,7.202087396032715C66.35878743095398,7.202087396032715,66.35758743095397,8.038898996032716,66.35758743095397,8.038898996032716C66.35758743095397,8.038898996032716,66.35758743095397,8.038898996032716,66.35758743095397,8.038898996032716ZM72.06398743095399,8.047011996032715C72.06398743095399,8.047011996032715,73.69438743095398,8.049329996032714,73.69438743095398,8.049329996032714C73.69438743095398,8.049329996032714,73.69558743095398,7.212518196032715,73.69558743095398,7.212518196032715C73.69558743095398,7.212518196032715,72.06518743095398,7.210200196032715,72.06518743095398,7.210200196032715C72.06518743095398,7.210200196032715,72.06398743095399,8.047011996032715,72.06398743095399,8.047011996032715C72.06398743095399,8.047011996032715,72.06398743095399,8.047011996032715,72.06398743095399,8.047011996032715ZM77.77028743095399,8.055124996032715C77.77028743095399,8.055124996032715,79.40068743095398,8.057442996032714,79.40068743095398,8.057442996032714C79.40068743095398,8.057442996032714,79.40188743095398,7.220630996032715,79.40188743095398,7.220630996032715C79.40188743095398,7.220630996032715,77.77148743095398,7.218312996032715,77.77148743095398,7.218312996032715C77.77148743095398,7.218312996032715,77.77028743095399,8.055124996032715,77.77028743095399,8.055124996032715C77.77028743095399,8.055124996032715,77.77028743095399,8.055124996032715,77.77028743095399,8.055124996032715ZM83.47668743095397,8.063237996032715C83.47668743095397,8.063237996032715,85.10708743095398,8.065555996032716,85.10708743095398,8.065555996032716C85.10708743095398,8.065555996032716,85.10828743095398,7.228743996032715,85.10828743095398,7.228743996032715C85.10828743095398,7.228743996032715,83.47788743095398,7.226425996032715,83.47788743095398,7.226425996032715C83.47788743095398,7.226425996032715,83.47668743095397,8.063237996032715,83.47668743095397,8.063237996032715C83.47668743095397,8.063237996032715,83.47668743095397,8.063237996032715,83.47668743095397,8.063237996032715ZM89.18298743095399,8.071350996032715C89.18298743095399,8.071350996032715,90.81338743095398,8.073668996032715,90.81338743095398,8.073668996032715C90.81338743095398,8.073668996032715,90.81458743095398,7.2368569960327145,90.81458743095398,7.2368569960327145C90.81458743095398,7.2368569960327145,89.18418743095398,7.234538996032715,89.18418743095398,7.234538996032715C89.18418743095398,7.234538996032715,89.18298743095399,8.071350996032715,89.18298743095399,8.071350996032715C89.18298743095399,8.071350996032715,89.18298743095399,8.071350996032715,89.18298743095399,8.071350996032715ZM94.88938743095397,8.079462996032715C94.88938743095397,8.079462996032715,96.51978743095398,8.081780996032714,96.51978743095398,8.081780996032714C96.51978743095398,8.081780996032714,96.52098743095398,7.244968996032715,96.52098743095398,7.244968996032715C96.52098743095398,7.244968996032715,94.89058743095399,7.242650996032715,94.89058743095399,7.242650996032715C94.89058743095399,7.242650996032715,94.88938743095397,8.079462996032715,94.88938743095397,8.079462996032715C94.88938743095397,8.079462996032715,94.88938743095397,8.079462996032715,94.88938743095397,8.079462996032715ZM100.59568743095397,8.087575996032715C100.59568743095397,8.087575996032715,101.41088743095398,8.088734996032715,101.41088743095398,8.088734996032715C101.41088743095398,8.088734996032715,101.41208743095397,7.2519229960327145,101.41208743095397,7.2519229960327145C101.41208743095397,7.2519229960327145,100.59688743095398,7.250763996032715,100.59688743095398,7.250763996032715C100.59688743095398,7.250763996032715,100.59568743095397,8.087575996032715,100.59568743095397,8.087575996032715C100.59568743095397,8.087575996032715,100.59568743095397,8.087575996032715,100.59568743095397,8.087575996032715Z" fill="#CACACA" fill-opacity="1"/></g><g transform="matrix(0,1,-1,0,61.81884765624957,-61.81884765625043)"><path d="M76.92324765625,11.569499999999564C76.92324765625,11.569499999999564,76.92324765625,9.916709999999565,76.92324765625,9.916709999999565C76.92324765625,9.916709999999565,70.56350765625,5.7847299999995645,70.56350765625,5.7847299999995645C70.56350765625,5.7847299999995645,70.56350765625,1.239589999999565,70.56350765625,1.239589999999565C70.56350765625,0.5536699999995651,70.03088765625,-4.3490327983862487e-13,69.37104765625,-4.3490327983862487e-13C68.71121765625,-4.3490327983862487e-13,68.17859765625,0.5536699999995651,68.17859765625,1.239589999999565C68.17859765625,1.239589999999565,68.17859765625,5.7847299999995645,68.17859765625,5.7847299999995645C68.17859765625,5.7847299999995645,61.81884765625,9.916709999999565,61.81884765625,9.916709999999565C61.81884765625,9.916709999999565,61.81884765625,11.569499999999564,61.81884765625,11.569499999999564C61.81884765625,11.569499999999564,68.17862765625,9.503539999999564,68.17862765625,9.503539999999564C68.17862765625,9.503539999999564,68.17862765625,14.048699999999565,68.17862765625,14.048699999999565C68.17862765625,14.048699999999565,66.58867765625,15.288299999999564,66.58867765625,15.288299999999564C66.58867765625,15.288299999999564,66.58867765625,16.527899999999565,66.58867765625,16.527899999999565C66.58867765625,16.527899999999565,69.37108765625,15.701499999999564,69.37108765625,15.701499999999564C69.37108765625,15.701499999999564,72.15344765625,16.527899999999565,72.15344765625,16.527899999999565C72.15344765625,16.527899999999565,72.15344765625,15.288299999999564,72.15344765625,15.288299999999564C72.15344765625,15.288299999999564,70.56350765625,14.048699999999565,70.56350765625,14.048699999999565C70.56350765625,14.048699999999565,70.56350765625,9.503499999999566,70.56350765625,9.503499999999566C70.56350765625,9.503499999999566,76.92324765625,11.569499999999564,76.92324765625,11.569499999999564C76.92324765625,11.569499999999564,76.92324765625,11.569499999999564,76.92324765625,11.569499999999564Z" fill="#1262AE" fill-opacity="1"/></g><g><ellipse cx="4.5" cy="7.5" rx="4.5" ry="4.5" fill="#FFFFFF" fill-opacity="1"/><ellipse cx="4.5" cy="7.5" rx="3.6631872057914734" ry="3.6631872057914734" fill-opacity="0" stroke-opacity="1" stroke="#1262AE" fill="none" stroke-width="1.6736255884170532"/></g><g><ellipse cx="102.76007080078125" cy="8.184062957763672" rx="4.34942626953125" ry="4.184062957763672" fill="#FFFFFF" fill-opacity="1"/><ellipse cx="102.76007080078125" cy="8.184062957763672" rx="3.5126134753227234" ry="3.3472501635551453" fill-opacity="0" stroke-opacity="1" stroke="#1262AE" fill="none" stroke-width="1.6736255884170532"/></g></g></svg>