<svg xmlns="http://www.w3.org/2000/svg" xmlns:xlink="http://www.w3.org/1999/xlink" fill="none" version="1.1" width="65.38720703125" height="65.38720703125" viewBox="0 0 65.38720703125 65.38720703125"><g><g><rect x="0" y="0" width="65.38703918457031" height="65.38703918457031" rx="16" fill="#F9668D" fill-opacity="1"/></g><g><g><path d="M31.549164062499997,28.1560646875C31.549164062499997,28.1560646875,33.8394640625,28.1560646875,33.8394640625,28.1560646875C33.8394640625,28.1560646875,33.8394640625,27.021694687500002,33.8394640625,27.021694687500002C33.8394640625,26.720834687500002,33.9600640625,26.4323046875,34.1748640625,26.2195646875C34.3895640625,26.0068246875,34.6808640625,25.8873146875,34.9845640625,25.8873146875C34.9845640625,25.8873146875,38.4198640625,25.8873146875,38.4198640625,25.8873146875C38.7235640625,25.8873146875,39.014864062499996,26.0068246875,39.2295640625,26.2195646875C39.4443640625,26.4323046875,39.564964062499996,26.720834687500002,39.564964062499996,27.021694687500002C39.564964062499996,27.021694687500002,39.564964062499996,28.1560646875,39.564964062499996,28.1560646875C39.564964062499996,28.1560646875,44.1454640625,28.1560646875,44.1454640625,28.1560646875C44.1454640625,28.1560646875,44.1454640625,23.6185646875,44.1454640625,23.6185646875C44.1454640625,22.4151346875,43.6628640625,21.261004687499998,42.8038640625,20.4100546875C41.9448640625,19.5591116875,40.7797640625,19.0810546875,39.564964062499996,19.0810546875C39.564964062499996,19.0810546875,25.823624062500002,19.0810546875,25.823624062500002,19.0810546875C24.6088040625,19.0810546875,23.4437540625,19.5591116875,22.5847440625,20.4100546875C21.7257460625,21.261004687499998,21.2431640625,22.4151346875,21.2431640625,23.6185646875C21.2431640625,23.6185646875,21.2431640625,28.1560646875,21.2431640625,28.1560646875C21.2431640625,28.1560646875,25.823624062500002,28.1560646875,25.823624062500002,28.1560646875C25.823624062500002,28.1560646875,25.823624062500002,27.021694687500002,25.823624062500002,27.021694687500002C25.823624062500002,26.720834687500002,25.9442640625,26.4323046875,26.1590140625,26.2195646875C26.3737640625,26.0068246875,26.6650340625,25.8873146875,26.9687340625,25.8873146875C26.9687340625,25.8873146875,30.4040740625,25.8873146875,30.4040740625,25.8873146875C30.7077840625,25.8873146875,30.999044062499998,26.0068246875,31.2137940625,26.2195646875C31.4285640625,26.4323046875,31.549164062499997,26.720834687500002,31.549164062499997,27.021694687500002C31.549164062499997,27.021694687500002,31.549164062499997,28.1560646875,31.549164062499997,28.1560646875C31.549164062499997,28.1560646875,31.549164062499997,28.1560646875,31.549164062499997,28.1560646875Z" fill="#FFFFFF" fill-opacity="1"/></g><g><path d="M22.388427642577668,30.42484951019287C20.869977642577666,30.424849510192875,19.41371764257767,31.02242151019287,18.340007642577667,32.08610951019287C17.266299642577668,33.149789510192875,16.663097642577668,34.59245951019287,16.663097642577668,36.09672951019287C16.663097642577668,36.09672951019287,16.663097642577668,45.17174951019287,16.663097642577668,45.17174951019287C16.663097642577668,45.47264951019287,16.78373764257767,45.76114951019287,16.998479642577667,45.97384951019287C17.213220642577667,46.18664951019287,17.504472642577667,46.30614951019287,17.80816764257767,46.30614951019287C18.111857642577668,46.30614951019287,18.40310764257767,46.18664951019287,18.61784764257767,45.97384951019287C18.832587642577668,45.76114951019287,18.95322764257767,45.47264951019287,18.95322764257767,45.17174951019287C18.95322764257767,45.17174951019287,18.95322764257767,39.49985951019287,18.95322764257767,39.49985951019287C18.95322764257767,39.49985951019287,46.434797642577664,39.49985951019287,46.434797642577664,39.49985951019287C46.434797642577664,39.49985951019287,46.434797642577664,45.17174951019287,46.434797642577664,45.17174951019287C46.434797642577664,45.47264951019287,46.55539764257767,45.76114951019287,46.77019764257767,45.97384951019287C46.984897642577664,46.18664951019287,47.27619764257767,46.30614951019287,47.57989764257766,46.30614951019287C47.88359764257767,46.30614951019287,48.17479764257767,46.18664951019287,48.389497642577666,45.97384951019287C48.60429764257766,45.76114951019287,48.724897642577666,45.47264951019287,48.724897642577666,45.17174951019287C48.724897642577666,45.17174951019287,48.724897642577666,36.09672951019287,48.724897642577666,36.09672951019287C48.724897642577666,34.59245951019287,48.12169764257767,33.149789510192875,47.04799764257767,32.08610951019287C45.97429764257767,31.02242151019287,44.51809764257767,30.424849510192875,42.99959764257767,30.42484951019287C42.99959764257767,30.42484951019287,22.388427642577668,30.42484951019287,22.388427642577668,30.42484951019287C22.388427642577668,30.42484951019287,22.388427642577668,30.42484951019287,22.388427642577668,30.42484951019287Z" fill="#FFFFFF" fill-opacity="1"/></g></g></g></svg>