<svg xmlns="http://www.w3.org/2000/svg" xmlns:xlink="http://www.w3.org/1999/xlink" fill="none" version="1.1" width="30" height="30" viewBox="0 0 30 30"><defs><clipPath id="master_svg0_0_1327"><rect x="0" y="0" width="30" height="30" rx="0"/></clipPath></defs><g clip-path="url(#master_svg0_0_1327)"><g><path d="M19.50009765625,15.00009765625C19.50009765625,16.19359765625,19.02599765625,17.33819765625,18.18209765625,18.18209765625C17.33819765625,19.02599765625,16.19359765625,19.50009765625,15.00009765625,19.50009765625C13.80659765625,19.50009765625,12.66199765625,19.02599765625,11.81809765625,18.18209765625C10.97419765625,17.33819765625,10.50009765625,16.19359765625,10.50009765625,15.00009765625C10.50009765625,14.74359765625,10.52709765625,14.49309765625,10.57359765625,14.25009765625C10.57359765625,14.25009765625,9.00009765625,14.25009765625,9.00009765625,14.25009765625C9.00009765625,14.25009765625,9.00009765625,20.24559765625,9.00009765625,20.24559765625C9.00009765625,20.66259765625,9.33759765625,21.00009765625,9.75459765625,21.00009765625C9.75459765625,21.00009765625,20.24709765625,21.00009765625,20.24709765625,21.00009765625C20.44689765625,20.99969765625,20.63849765625,20.91999765625,20.77959765625,20.77859765625C20.92079765625,20.63709765625,21.00009765625,20.44539765625,21.00009765625,20.24559765625C21.00009765625,20.24559765625,21.00009765625,14.25009765625,21.00009765625,14.25009765625C21.00009765625,14.25009765625,19.42659765625,14.25009765625,19.42659765625,14.25009765625C19.47309765625,14.49309765625,19.50009765625,14.74359765625,19.50009765625,15.00009765625C19.50009765625,15.00009765625,19.50009765625,15.00009765625,19.50009765625,15.00009765625C19.50009765625,15.00009765625,19.50009765625,15.00009765625,19.50009765625,15.00009765625ZM15.00009765625,18.00009765625C15.39419765625,17.99999765625,15.78439765625,17.92229765625,16.148397656249998,17.77139765625C16.512397656250002,17.62049765625,16.84319765625,17.39939765625,17.12169765625,17.12069765625C17.40029765625,16.84199765625,17.62129765625,16.51109765625,17.77199765625,16.14699765625C17.92269765625,15.78289765625,18.00019765625,15.39269765625,18.00009765625,14.99859765625C17.99999765625,14.60449765625,17.92229765625,14.21439765625,17.77139765625,13.85029765625C17.62049765625,13.48629765625,17.39939765625,13.15549765625,17.12069765625,12.87699765625C16.84199765625,12.59839765625,16.51109765625,12.37739765625,16.14699765625,12.22669765625C15.78289765625,12.07599765625,15.39269765625,11.99849765625,14.99859765625,11.99859765625C14.20279765625,11.99879765625,13.43959765625,12.31509765625,12.87699765625,12.87799765625C12.31439765625,13.44089765625,11.99839765625,14.20429765625,11.99859765625,15.00009765625C11.99879765625,15.79589765625,12.31509765625,16.55909765625,12.87799765625,17.12169765625C13.44089765625,17.68429765625,14.20429765625,18.00029765625,15.00009765625,18.00009765625C15.00009765625,18.00009765625,15.00009765625,18.00009765625,15.00009765625,18.00009765625C15.00009765625,18.00009765625,15.00009765625,18.00009765625,15.00009765625,18.00009765625ZM18.60009765625,11.85009765625C18.60009765625,11.85009765625,20.39859765625,11.85009765625,20.39859765625,11.85009765625C20.51809765625,11.85009765625,20.63269765625,11.80269765625,20.71729765625,11.71839765625C20.80199765625,11.63399765625,20.84969765625,11.51959765625,20.85009765625,11.40009765625C20.85009765625,11.40009765625,20.85009765625,9.60159765625,20.85009765625,9.60159765625C20.85009765625,9.48184765625,20.80249765625,9.36700765625,20.71789765625,9.28233765625C20.63319765625,9.19766765625,20.51829765625,9.15009765625,20.39859765625,9.15009765625C20.39859765625,9.15009765625,18.60009765625,9.15009765625,18.60009765625,9.15009765625C18.48039765625,9.15009765625,18.36549765625,9.19766765625,18.28079765625,9.28233765625C18.19619765625,9.36700765625,18.14859765625,9.48184765625,18.14859765625,9.60159765625C18.14859765625,9.60159765625,18.14859765625,11.40009765625,18.14859765625,11.40009765625C18.15009765625,11.64759765625,18.35259765625,11.85009765625,18.60009765625,11.85009765625C18.60009765625,11.85009765625,18.60009765625,11.85009765625,18.60009765625,11.85009765625C18.60009765625,11.85009765625,18.60009765625,11.85009765625,18.60009765625,11.85009765625ZM15.00009765625,0.60009765625C11.18099765625,0.6000976562500032,7.51828765625,2.11723765625,4.81775765625,4.81775765625C2.11723765625,7.51828765625,0.6000976562500037,11.18099765625,0.60009765625,15.00009765625C0.6000976562500042,18.81919765625,2.11723765625,22.48189765625,4.81775765625,25.18239765625C7.51828765625,27.88299765625,11.18099765625,29.40009765625,15.00009765625,29.40009765625C16.89109765625,29.40009765625,18.76369765625,29.02759765625,20.51069765625,28.30399765625C22.25779765625,27.58029765625,23.84529765625,26.51959765625,25.18239765625,25.18239765625C26.51959765625,23.84529765625,27.58029765625,22.25779765625,28.30399765625,20.51069765625C29.02759765625,18.76369765625,29.40009765625,16.89109765625,29.40009765625,15.00009765625C29.40009765625,13.10909765625,29.02759765625,11.23649765625,28.30399765625,9.48945765625C27.58029765625,7.74236765625,26.51959765625,6.15492765625,25.18239765625,4.81775765625C23.84529765625,3.48059765625,22.25779765625,2.41989765625,20.51069765625,1.69622765625C18.76369765625,0.97256465625,16.89109765625,0.6000976562500017,15.00009765625,0.60009765625C15.00009765625,0.60009765625,15.00009765625,0.60009765625,15.00009765625,0.60009765625C15.00009765625,0.60009765625,15.00009765625,0.60009765625,15.00009765625,0.60009765625ZM22.50009765625,20.83359765625C22.50009765625,21.75009765625,21.75009765625,22.50009765625,20.83359765625,22.50009765625C20.83359765625,22.50009765625,9.16659765625,22.50009765625,9.16659765625,22.50009765625C8.25009765625,22.50009765625,7.50009765625,21.75009765625,7.50009765625,20.83359765625C7.50009765625,20.83359765625,7.50009765625,9.16659765625,7.50009765625,9.16659765625C7.50009765625,8.25009765625,8.25009765625,7.50009765625,9.16659765625,7.50009765625C9.16659765625,7.50009765625,20.83359765625,7.50009765625,20.83359765625,7.50009765625C21.75009765625,7.50009765625,22.50009765625,8.25009765625,22.50009765625,9.16659765625C22.50009765625,9.16659765625,22.50009765625,20.83359765625,22.50009765625,20.83359765625C22.50009765625,20.83359765625,22.50009765625,20.83359765625,22.50009765625,20.83359765625C22.50009765625,20.83359765625,22.50009765625,20.83359765625,22.50009765625,20.83359765625Z" fill="#FFFFFF" fill-opacity="1"/></g></g></svg>