<svg xmlns="http://www.w3.org/2000/svg" xmlns:xlink="http://www.w3.org/1999/xlink" fill="none" version="1.1" width="26.262361526489258" height="24" viewBox="0 0 26.262361526489258 24"><defs><clipPath id="master_svg0_0_234"><rect x="0" y="0" width="26.262361526489258" height="24" rx="0"/></clipPath></defs><g clip-path="url(#master_svg0_0_234)"><g><path d="M9.572423914623261,21.75C9.572423914623261,21.75,8.206983914623262,21.75,8.206983914623262,21.75C8.069783914623262,21.75,7.934793914623261,21.7185,7.81433391462326,21.6585C7.69388391462326,21.5984,7.5918239146232604,21.5118,7.51748391462326,21.4064C7.443143914623261,21.301,7.398893914623261,21.1803,7.38879391462326,21.0552C7.37868391462326,20.9302,7.40304391462326,20.8048,7.459633914623261,20.6906C7.459633914623261,20.6906,10.766023914623261,14.0227,10.766023914623261,14.0227C10.766023914623261,14.0227,5.80131391462326,13.9219,5.80131391462326,13.9219C5.80131391462326,13.9219,3.9906439146232606,15.9267,3.9906439146232606,15.9267C3.6454439146232605,16.3233,3.3699939146232607,16.5,2.6672739146232605,16.5C2.6672739146232605,16.5,1.7480869146232605,16.5,1.7480869146232605,16.5C1.6025519146232605,16.5043,1.4580329146232605,16.476399999999998,1.3267759146232605,16.418799999999997C1.1955189146232605,16.3612,1.0813929146232604,16.2755,0.9940689146232605,16.1691C0.8719904146232605,16.0186,0.7519632146232605,15.7636,0.8689128146232605,15.3998C0.8689128146232605,15.3998,1.8855539146232605,12.07172,1.8855539146232605,12.07172C1.8932439146232605,12.04688,1.9024839146232606,12.02203,1.9127439146232605,11.99766C1.9132539146232606,11.99534,1.9132539146232606,11.99295,1.9127439146232605,11.99063C1.9021439146232606,11.96627,1.8930739146232605,11.94139,1.8855539146232605,11.91609C1.8855539146232605,11.91609,0.8678869146232605,8.56687,0.8678869146232605,8.56687C0.7576055146232605,8.21016,0.8781456146232605,7.96078,0.9991989146232605,7.81406C1.0804869146232605,7.71549,1.1859489146232605,7.63573,1.3071069146232606,7.58118C1.4282639146232605,7.52664,1.5617369146232605,7.49883,1.6967929146232605,7.5C1.6967929146232605,7.5,2.6672739146232605,7.5,2.6672739146232605,7.5C3.1920039146232604,7.5,3.7013539146232604,7.71516,4.00090391462326,8.0625C4.00090391462326,8.0625,5.77412391462326,10.03359,5.77412391462326,10.03359C5.77412391462326,10.03359,10.766023914623261,9.966090000000001,10.766023914623261,9.966090000000001C10.766023914623261,9.966090000000001,7.46066391462326,3.30984,7.46066391462326,3.30984C7.4039939146232605,3.19568,7.37953391462326,3.070355,7.389533914623261,2.945327C7.399533914623261,2.820298,7.44367391462326,2.699555,7.51790391462326,2.594135C7.592143914623261,2.488715,7.694103914623261,2.401982,7.814483914623261,2.3418644C7.934863914623261,2.2817468,8.069803914623261,2.250162838,8.206983914623262,2.25C8.206983914623262,2.25,9.587303914623261,2.25,9.587303914623261,2.25C9.779863914623261,2.25353644,9.96909391462326,2.2966697,10.14092391462326,2.376197C10.31274391462326,2.455724,10.462763914623261,2.569602,10.57983391462326,2.709375C10.57983391462326,2.709375,16.99412391462326,9.83438,16.99412391462326,9.83438C16.99412391462326,9.83438,19.95732391462326,9.76312,19.95732391462326,9.76312C20.174323914623262,9.75234,20.77552391462326,9.74859,20.91452391462326,9.74859C23.748923914623262,9.75,25.44162391462326,10.59094,25.44162391462326,12C25.44162391462326,12.4434,25.24772391462326,13.2656,23.95052391462326,13.7887C23.18472391462326,14.0981,22.16292391462326,14.2547,20.91342391462326,14.2547C20.77602391462326,14.2547,20.17632391462326,14.2509,19.956323914623262,14.2402C19.956323914623262,14.2402,16.99362391462326,14.168,16.99362391462326,14.168C16.99362391462326,14.168,10.563413914623261,21.293,10.563413914623261,21.293C10.446253914623261,21.4321,10.29636391462326,21.5454,10.124833914623261,21.6246C9.95331391462326,21.7037,9.764523914623261,21.7465,9.572423914623261,21.75C9.572423914623261,21.75,9.572423914623261,21.75,9.572423914623261,21.75C9.572423914623261,21.75,9.572423914623261,21.75,9.572423914623261,21.75Z" fill="#1262AE" fill-opacity="1"/></g></g></svg>