<svg xmlns="http://www.w3.org/2000/svg" xmlns:xlink="http://www.w3.org/1999/xlink" fill="none" version="1.1" width="34.7666015625" height="46" viewBox="0 0 34.7666015625 46"><g><g><g><path d="M34.500284741429084,25.975412937164307C34.67788474142908,24.991912937164308,34.76708474142908,23.995212937164307,34.766784741429085,22.996512937164308C34.766784741429085,22.381612937164306,34.73278474142908,21.802912937164308,34.66728474142908,21.250612937164306C34.65328474142908,21.130912937164307,32.67078474142908,25.105612937164306,29.49898474142908,27.623312937164307C31.705484741429082,25.69001293716431,34.58368474142908,20.645912937164304,34.543084741429084,20.427212937164306C34.50818474142908,20.237412937164308,34.46878474142908,20.048412937164308,34.42488474142908,19.860412937164305C34.04568474142908,18.233412937164307,33.361784741429084,16.787212937164306,32.42978474142908,15.215012937164307C32.14098474142908,18.551612937164307,31.13168474142908,22.10611293716431,28.48358474142908,25.179712937164307C31.23188474142908,21.954412937164307,32.18808474142908,14.608212937164307,31.533184741429082,13.596532937164307C28.897184741429083,9.554582937164307,23.34658474142908,6.016912937164307,17.40418474142908,6.016912937164307C17.40418474142908,6.016912937164307,17.362384741429082,6.123580937164307,17.362384741429082,6.123580937164307C17.362384741429082,6.123580937164307,17.362384741429082,6.024383767164307,17.362384741429082,6.024383767164307C11.419784741429082,6.024383767164307,5.869604741429082,9.561842937164307,3.233604741429082,13.603592937164308C2.5785247414290815,14.615272937164306,3.534724741429082,21.961412937164305,6.2829847414290825,25.186812937164305C3.6350947414290817,22.113112937164306,2.6256347414290815,18.558612937164305,2.337044741429082,15.222072937164306C1.4044047414290817,16.794512937164306,0.7208907414290818,18.240312937164305,0.3416807414290817,19.867512937164307C0.29779474142908174,20.05551293716431,0.25838474142908174,20.24451293716431,0.22348274142908175,20.434212937164304C0.18295174142908172,20.653012937164306,3.061294741429082,25.697112937164306,5.267794741429082,27.630412937164305C2.0957647414290816,25.112512937164308,0.11334874142908175,21.137712937164306,0.09913144142908174,21.257712937164307C0.03164604142908174,21.837312937164306,-0.0014426285709182613,22.420312937164308,0.00003192412908173878,23.003612937164306C0.00003192412908173878,24.019812937164307,0.09127974142908174,25.015112937164307,0.2663487414290817,25.982412937164305C0.4282607414290817,26.877012937164306,4.114894741429082,29.340212937164306,4.210384741429082,29.417612937164307C1.5325747414290816,28.394512937164308,0.42698774142908175,26.785312937164306,0.5275727414290817,27.174012937164306C2.4285047414290815,34.53511293716431,9.244724741429081,39.983012937164304,17.362384741429082,39.983012937164304C17.362384741429082,39.983012937164304,17.362384741429082,39.97541293716431,17.362384741429082,39.97541293716431C17.362384741429082,39.97541293716431,17.40418474142908,39.97581293716431,17.40418474142908,39.97581293716431C25.52188474142908,39.97581293716431,32.33808474142908,34.5283129371643,34.23878474142908,27.166712937164306C34.33958474142908,26.778112937164305,33.23418474142908,28.387212937164307,30.55618474142908,29.410312937164306C30.65148474142908,29.333112937164305,34.33808474142908,26.870212937164307,34.500284741429084,25.975412937164307C34.500284741429084,25.975412937164307,34.500284741429084,25.975412937164307,34.500284741429084,25.975412937164307C34.500284741429084,25.975412937164307,34.500284741429084,25.975412937164307,34.500284741429084,25.975412937164307ZM23.01678474142908,26.629112937164308C22.84148474142908,26.703612937164305,22.664084741429082,26.76771293716431,22.482484741429083,26.815812937164306C20.817884741429083,27.259312937164307,18.50358474142908,27.096412937164306,17.421584741429083,25.714112937164305C16.327084741429083,24.315812937164306,16.63008474142908,22.047512937164306,17.480984741429083,20.615812937164307C18.34018474142908,19.170412937164308,19.62998474142908,18.096312937164306,20.77608474142908,16.879812937164306C21.32518474142908,16.299412937164306,21.88468474142908,15.728472937164307,22.45428474142908,15.167282937164307C22.82388474142908,14.801422937164306,23.83268474142908,14.017392937164306,23.811884741429083,13.494432937164307C23.80238474142908,13.246852937164306,23.342284741429083,12.810642937164307,23.214384741429082,12.576342937164306C23.02778474142908,12.234962937164306,22.911284741429082,11.892962937164306,22.71168474142908,11.567772937164307C22.26988474142908,10.849742937164308,21.67668474142908,10.520812937164306,20.87798474142908,10.366832937164308C19.87958474142908,10.174452937164308,19.16338474142908,10.260162937164306,18.336384741429082,10.801802937164307C17.714184741429083,11.209382937164307,17.066584741429082,11.969332937164307,16.30668474142908,12.049442937164308C15.105984741429081,12.176032937164306,9.877514741429081,13.023762937164307,9.62987474142908,13.176922937164306C10.274784741429082,13.130222937164307,18.15858474142908,13.279432937164307,19.05178474142908,13.494432937164307C20.10198474142908,13.747192937164307,20.054384741429082,14.574802937164307,19.34138474142908,15.225802937164307C17.09908474142908,17.272612937164304,13.79588474142908,18.490812937164307,12.387684741429082,21.307112937164305C11.72898474142908,22.623812937164306,11.306484741429081,23.515412937164307,11.304784741429081,25.055412937164306C11.304184741429081,25.69001293716431,11.354884741429082,26.992212937164307,12.15658474142908,28.609312937164308C12.119484741429082,28.585412937164307,10.889484741429081,27.166712937164306,10.84008474142908,25.966612937164307C7.873034741429082,24.026312937164306,6.364044741429082,21.124712937164304,6.364044741429082,17.348612937164305C6.364044741429082,11.362952937164307,11.279784741429081,6.510405937164307,17.34348474142908,6.510405937164307C23.40728474142908,6.510405937164307,28.322784741429082,11.362742937164306,28.322784741429082,17.348612937164305C28.32318474142908,21.284712937164308,26.60258474142908,24.925712937164306,23.01678474142908,26.629112937164308C23.01678474142908,26.629112937164308,23.01678474142908,26.629112937164308,23.01678474142908,26.629112937164308C23.01678474142908,26.629112937164308,23.01678474142908,26.629112937164308,23.01678474142908,26.629112937164308Z" fill-rule="evenodd" fill="#B4282E" fill-opacity="1"/></g><g><path d="M17.818716303710936,29.91702699661255C17.818716303710936,29.91702699661255,16.386336303710937,33.76598699661255,16.386336303710937,33.76598699661255C15.560646303710937,35.98420699661255,12.055875303710938,35.51811699661255,11.932584303710938,35.51811699661255C11.644622303710937,35.51811699661255,11.424354303710938,35.48698699661255,11.204086303710938,35.28339699661255C11.204086303710938,35.28339699661255,11.728656303710938,34.71229699661255,11.728656303710938,34.71229699661255C11.853644303710938,34.80630699661255,12.049296303710937,34.86108699661255,12.249196303710937,34.86108699661255C12.412586303710938,34.86108699661255,14.213356303710938,35.24334699661255,14.750236303710938,33.76598699661255C14.750236303710938,33.76598699661255,16.182616303710937,29.91702699661255,16.182616303710937,29.91702699661255C16.182616303710937,29.91702699661255,17.818716303710936,29.91702699661255,17.818716303710936,29.91702699661255C17.818716303710936,29.91702699661255,17.818716303710936,29.91702699661255,17.818716303710936,29.91702699661255C17.818716303710936,29.91702699661255,17.818716303710936,29.91702699661255,17.818716303710936,29.91702699661255ZM27.93368630371094,34.74362699661255C27.93368630371094,34.74362699661255,27.691986303710937,35.392976996612546,27.691986303710937,35.392976996612546C27.691986303710937,35.392976996612546,22.763886303710937,35.392976996612546,22.763886303710937,35.392976996612546C22.763886303710937,35.392976996612546,24.801986303710937,29.91702699661255,24.801986303710937,29.91702699661255C24.801986303710937,29.91702699661255,26.455686303710937,29.91702699661255,26.455686303710937,29.91702699661255C26.455686303710937,29.91702699661255,24.658886303710936,34.74362699661255,24.658886303710936,34.74362699661255C24.658886303710936,34.74362699661255,27.93368630371094,34.74362699661255,27.93368630371094,34.74362699661255C27.93368630371094,34.74362699661255,27.93368630371094,34.74362699661255,27.93368630371094,34.74362699661255C27.93368630371094,34.74362699661255,27.93368630371094,34.74362699661255,27.93368630371094,34.74362699661255ZM20.58692630371094,29.93072399661255C20.58692630371094,29.93072399661255,16.220816303710937,35.40625699661255,16.220816303710937,35.40625699661255C16.220816303710937,35.40625699661255,17.068786303710937,35.40625699661255,17.068786303710937,35.40625699661255C17.068786303710937,35.40625699661255,18.173946303710938,33.91996699661255,18.173946303710938,33.91996699661255C18.173946303710938,33.91996699661255,20.151696303710935,33.91996699661255,20.151696303710935,33.91996699661255C20.151696303710935,33.91996699661255,19.822136303710938,35.40625699661255,19.822136303710938,35.40625699661255C19.822136303710938,35.40625699661255,21.564086303710937,35.40625699661255,21.564086303710937,35.40625699661255C21.564086303710937,35.40625699661255,22.902086303710938,29.93072399661255,22.902086303710938,29.93072399661255C22.902086303710938,29.93072399661255,20.58692630371094,29.93072399661255,20.58692630371094,29.93072399661255C20.58692630371094,29.93072399661255,20.58692630371094,29.93072399661255,20.58692630371094,29.93072399661255C20.58692630371094,29.93072399661255,20.58692630371094,29.93072399661255,20.58692630371094,29.93072399661255ZM18.749446303710936,33.14340699661255C18.749446303710936,33.14340699661255,21.00199630371094,30.447666996612547,21.00199630371094,30.447666996612547C21.00199630371094,30.447666996612547,20.381506303710935,33.14340699661255,20.381506303710935,33.14340699661255C20.381506303710935,33.14340699661255,18.749446303710936,33.14340699661255,18.749446303710936,33.14340699661255C18.749446303710936,33.14340699661255,18.749446303710936,33.14340699661255,18.749446303710936,33.14340699661255C18.749446303710936,33.14340699661255,18.749446303710936,33.14340699661255,18.749446303710936,33.14340699661255Z" fill-rule="evenodd" fill="#FFFFFF" fill-opacity="1"/></g></g></g></svg>