<svg xmlns="http://www.w3.org/2000/svg" xmlns:xlink="http://www.w3.org/1999/xlink" fill="none" version="1.1" width="174" height="33" viewBox="0 0 174 33"><defs><clipPath id="master_svg0_0_1319"><rect x="0" y="0" width="174" height="33" rx="0"/></clipPath></defs><g clip-path="url(#master_svg0_0_1319)"><g><path d="M129.851,8.059020624999999C131.214,8.059020624999999,132.452,8.232420625,133.564,8.579200625C134.676,8.925990625,135.615,9.374420625,136.38,9.924490625C136.858,10.259320625,137.235,10.629990625,137.51,11.036590625C137.785,11.443190625,137.923,11.969290625,137.923,12.615090625C137.923,12.615090625,137.923,25.171090625,137.923,25.171090625C137.923,25.171090625,137.917,25.512490625,137.917,25.512490625C137.877,26.636190625,137.64,27.616590625,137.205,28.453690625C136.727,29.374390625,136.075,30.139690625,135.25,30.749590625C134.425,31.359490625,133.456,31.807890625,132.344,32.094890625000005C131.232,32.381890625,130.042,32.525390625,128.775,32.525390625C126.598,32.525390625,124.888,32.232390625,123.645,31.646490625C122.401,31.060490625,121.779,30.109890625,121.779,28.794490625C121.779,28.244390625,121.893,27.760090625,122.12,27.341490625C122.347,26.922990625,122.604,26.606090625,122.891,26.390890625C123.585,26.773490625,124.368,27.096390625,125.241,27.359490625C126.114,27.622590625,127.017,27.754090625,127.95,27.754090625C129.241,27.754090625,130.269,27.538890625,131.035,27.108390625C131.8,26.677890625,132.183,25.984290625,132.183,25.027590625C132.183,25.027590625,132.183,24.453690625,132.183,24.453690625C132.183,24.453690625,131.91,24.565690625,131.91,24.565690625C130.983,24.921490625,129.878,25.099390625,128.595,25.099390625C127.519,25.099390625,126.497,24.937990625,125.528,24.615090625C124.559,24.292190625,123.71,23.789990625,122.981,23.108390625C122.251,22.426690625,121.665,21.547790625,121.223,20.471590625C120.781,19.395390625,120.559,18.115790625,120.559,16.632990625C120.559,15.174090625,120.793,13.906590625,121.259,12.830290625C121.725,11.754090625,122.371,10.863190625,123.196,10.157680625C124.021,9.452150625,125.002,8.925990625,126.138,8.579200625C127.274,8.232420625,128.512,8.059020624999999,129.851,8.059020624999999C129.851,8.059020624999999,129.851,8.059020624999999,129.851,8.059020624999999ZM33.2869,8.615940625C35.4197,8.615940625,37.165,9.094520625,38.5227,10.051680625C39.8804,11.008890625,40.6841,12.699490625,40.9338,15.123590625C40.9338,15.123590625,36.3769,15.123590625,36.3769,15.123590625C36.3769,15.123590625,36.3333,14.855390625,36.3333,14.855390625C36.2301,14.326790625,36.0313,13.843890625,35.737,13.406990625C35.2377,12.720290625,34.4626,12.376990625,33.4118,12.376990625C31.9136,12.376990625,30.8888,13.120890625,30.3374,14.608590625C30.0461,15.399290625,29.9004,16.450090625,29.9004,17.760990625C29.9004,19.009490625,30.0461,20.013490625,30.3374,20.772890625C30.868,22.187890625,31.8668,22.895290625,33.3337,22.895290625C34.3741,22.895290625,35.1128,22.614390625,35.5498,22.052590625C35.9867,21.490790625,36.252,20.762490625,36.3457,19.867790625C36.3457,19.867790625,40.887,19.867790625,40.887,19.867790625C40.887,19.867790625,40.8561,20.178590625,40.8561,20.178590625C40.7054,21.416790625,40.2267,22.592790625,39.42,23.706790625C38.0259,25.652390625,35.9607,26.625190625,33.2245,26.625190625C30.4883,26.625190625,28.4751,25.813590625,27.185,24.190590625C25.8949,22.567590625,25.2499,20.460790625,25.2499,17.870190625C25.2499,14.946690625,25.9626,12.673490625,27.3879,11.050490625C28.8132,9.427450625,30.7796,8.615940625,33.2869,8.615940625C33.2869,8.615940625,33.2869,8.615940625,33.2869,8.615940625ZM74.6185,8.569120625C76.0334,8.569120625,77.3079,8.834420625,78.4419,9.365020625C79.5759,9.895630625,80.5123,10.733190625,81.251,11.877590625C81.9168,12.886790625,82.3486,14.057190625,82.5462,15.388890625C82.6607,16.169190625,82.7075,17.292790625,82.6867,18.759790625C82.6867,18.759790625,71.0447,18.759790625,71.0447,18.759790625C71.0447,18.759790625,71.0606,19.055590625,71.0606,19.055590625C71.1718,20.604990625,71.7023,21.702890625,72.6521,22.349090625C73.2659,22.775690625,74.0046,22.988990625,74.8681,22.988990625C75.7837,22.988990625,76.5276,22.728890625,77.0998,22.208690625C77.4119,21.927790625,77.6876,21.537590625,77.9269,21.038190625C77.9269,21.038190625,82.4682,21.038190625,82.4682,21.038190625C82.4682,21.038190625,82.4345,21.271390625,82.4345,21.271390625C82.2705,22.205190625,81.7563,23.152190625,80.892,24.112590625C79.4355,25.766790625,77.3963,26.593890625,74.7745,26.593890625C72.6105,26.593890625,70.7014,25.896890625,69.0471,24.502690625C67.3929,23.108590625,66.5658,20.840590625,66.5658,17.698590625C66.5658,14.754290625,67.3123,12.496590625,68.8053,10.925590625C70.2982,9.354620625,72.236,8.569120625,74.6185,8.569120625C74.6185,8.569120625,74.6185,8.569120625,74.6185,8.569120625ZM105.848,2.319110625C106.374,2.319110625,106.846,2.354990625,107.265,2.426740625C107.683,2.498480625,108.036,2.641980625,108.323,2.857230625C108.61,3.072480625,108.831,3.365450625,108.987,3.736150625C109.142,4.106850625,109.22,4.591160625,109.22,5.189070625C109.22,5.189070625,109.22,25.996290625,109.22,25.996290625C109.22,25.996290625,109.099,26.017890625,109.099,26.017890625C108.843,26.063190625,108.495,26.121790625,108.054,26.193590625C107.54,26.277290625,107.019,26.319090625,106.493,26.319090625C105.967,26.319090625,105.495,26.283190625,105.076,26.211490625C104.658,26.139690625,104.305,25.996290625,104.018,25.780990625C103.731,25.565790625,103.51,25.272790625,103.354,24.902090625C103.199,24.531390625,103.121,24.047090625,103.121,23.449190625C103.121,23.449190625,103.121,2.641980625,103.121,2.641980625C103.121,2.641980625,103.242,2.620380625,103.242,2.620380625C103.498,2.574990625,103.846,2.5164206250000003,104.287,2.444670625C104.801,2.360970625,105.321,2.319110625,105.848,2.319110625C105.848,2.319110625,105.848,2.319110625,105.848,2.319110625ZM115.015,8.525390625C115.541,8.525390625,116.014,8.561260625,116.432,8.633010625C116.851,8.704760625,117.203,8.848260625,117.49,9.063510625C117.777,9.278750625,117.999,9.571730625,118.154,9.942430625C118.31,10.313130625,118.387,10.797390625,118.387,11.395390625C118.387,11.395390625,118.387,25.996290625,118.387,25.996290625C118.387,25.996290625,118.267,26.017890625,118.267,26.017890625C118.011,26.063190625,117.662,26.121790625,117.221,26.193590625C116.707,26.277290625,116.187,26.319090625,115.661,26.319090625C115.135,26.319090625,114.662,26.283190625,114.244,26.211490625C113.825,26.139690625,113.473,25.996290625,113.186,25.780990625C112.899,25.565790625,112.677,25.272790625,112.522,24.902090625C112.366,24.531390625,112.289,24.047090625,112.289,23.449190625C112.289,23.449190625,112.289,8.848260625,112.289,8.848260625C112.289,8.848260625,112.409,8.826660625,112.409,8.826660625C112.665,8.781270625,113.014,8.722700625,113.455,8.650950625C113.969,8.567240625,114.489,8.525390625,115.015,8.525390625C115.015,8.525390625,115.015,8.525390625,115.015,8.525390625ZM143.574,2.319110625C144.101,2.319110625,144.573,2.354990625,144.991,2.426740625C145.41,2.498480625,145.763,2.641980625,146.05,2.857230625C146.337,3.072480625,146.558,3.365450625,146.713,3.736150625C146.869,4.106850625,146.947,4.591160625,146.947,5.189070625C146.947,5.189070625,146.947,8.704760625,146.947,8.704760625C146.947,8.704760625,147.071,8.659080625,147.071,8.659080625C147.378,8.550520625,147.809,8.428230625000001,148.364,8.292210625C148.997,8.136750625000001,149.697,8.059020624999999,150.462,8.059020624999999C152.83,8.059020624999999,154.678,8.650950625,156.005,9.834810625C157.332,11.018690625,157.996,12.782490625,157.996,15.126290625C157.996,15.126290625,157.996,25.996290625,157.996,25.996290625C157.996,25.996290625,157.885,26.026990625,157.885,26.026990625C157.646,26.088490625,157.307,26.149990625,156.866,26.211490625C156.352,26.283190625,155.82,26.319090625,155.27,26.319090625C154.743,26.319090625,154.271,26.283190625,153.852,26.211490625C153.434,26.139690625,153.081,25.996290625,152.794,25.780990625C152.507,25.565790625,152.286,25.272790625,152.131,24.902090625C151.975,24.531390625,151.897,24.047090625,151.897,23.449190625C151.897,23.449190625,151.897,15.484990625,151.897,15.484990625C151.897,15.484990625,151.893,15.263990625,151.893,15.263990625C151.858,14.400390625,151.614,13.786490625,151.162,13.422290625C150.672,13.027590625,150.068,12.830290625,149.35,12.830290625C148.872,12.830290625,148.417,12.890090625,147.987,13.009690625C147.557,13.129290625,147.21,13.272790625,146.947,13.440190625C146.947,13.440190625,146.947,25.996290625,146.947,25.996290625C146.947,25.996290625,146.836,26.026990625,146.836,26.026990625C146.597,26.088490625,146.257,26.149990625,145.817,26.211490625C145.302,26.283190625,144.77,26.319090625,144.22,26.319090625C143.694,26.319090625,143.222,26.283190625,142.803,26.211490625C142.385,26.139690625,142.032,25.996290625,141.745,25.780990625C141.458,25.565790625,141.237,25.272790625,141.081,24.902090625C140.926,24.531390625,140.848,24.047090625,140.848,23.449190625C140.848,23.449190625,140.848,2.641980625,140.848,2.641980625C140.848,2.641980625,140.968,2.620380625,140.968,2.620380625C141.225,2.574990625,141.573,2.5164206250000003,142.014,2.444670625C142.528,2.360970625,143.048,2.319110625,143.574,2.319110625C143.574,2.319110625,143.574,2.319110625,143.574,2.319110625ZM100.626,4.292210625C100.626,4.292210625,100.708,4.431220625,100.708,4.431220625C100.843,4.675370625,100.965,4.981790625,101.075,5.350500625C101.206,5.792950625,101.272,6.253340625,101.272,6.731670625C101.272,7.664400625,101.075,8.328080625,100.68,8.722700625C100.285,9.117320625,99.7533,9.314630625,99.0836,9.314630625C99.0836,9.314630625,91.55,9.314630625,91.55,9.314630625C91.55,9.314630625,91.55,13.368390625,91.55,13.368390625C91.55,13.368390625,99.4065,13.368390625,99.4065,13.368390625C99.4065,13.368390625,99.4997,13.506990625,99.4997,13.506990625C99.6508,13.749390625,99.7812,14.050090625,99.8908,14.408790625C100.022,14.839290625,100.088,15.293690625,100.088,15.771990625C100.088,16.680890625,99.8908,17.332590625,99.4962,17.727190625C99.1016,18.121790625,98.5694,18.319090625,97.8998,18.319090625C97.8998,18.319090625,91.6217,18.319090625,91.6217,18.319090625C91.6217,18.319090625,91.6217,25.888590625,91.6217,25.888590625C91.6217,25.888590625,91.4998,25.919390625,91.4998,25.919390625C91.2377,25.980890625,90.8658,26.042390625,90.3841,26.103890625C89.822,26.175590625,89.266,26.211490625,88.7159,26.211490625C88.1658,26.211490625,87.6815,26.169590625,87.263,26.085890625C86.8445,26.002190625,86.4917,25.852790625,86.2047,25.637490625C85.9177,25.422290625,85.7025,25.123290625,85.559,24.740590625C85.4155,24.357990625,85.3437,23.855690625,85.3437,23.233890625C85.3437,23.233890625,85.3437,7.628530625,85.3437,7.628530625C85.3437,7.628530625,85.3499,7.375910625,85.3499,7.375910625C85.3956,6.466100625,85.6925,5.737150625,86.2406,5.189070625C86.8385,4.591160625,87.6516,4.292210625,88.68,4.292210625C88.68,4.292210625,100.626,4.292210625,100.626,4.292210625C100.626,4.292210625,100.626,4.292210625,100.626,4.292210625ZM16.3082,3.060250625C16.3082,3.060250625,16.3082,7.102170625,16.3082,7.102170625C16.3082,7.102170625,4.7754,7.102170625,4.7754,7.102170625C4.7754,7.102170625,4.7754,12.392590625,4.7754,12.392590625C4.7754,12.392590625,14.8724,12.392590625,14.8724,12.392590625C14.8724,12.392590625,14.8724,16.387690624999998,14.8724,16.387690624999998C14.8724,16.387690624999998,4.7754,16.387690624999998,4.7754,16.387690624999998C4.7754,16.387690624999998,4.7754,26.032090625,4.7754,26.032090625C4.7754,26.032090625,0,26.032090625,0,26.032090625C0,26.032090625,0,3.060250625,0,3.060250625C0,3.060250625,16.3082,3.060250625,16.3082,3.060250625C16.3082,3.060250625,16.3082,3.060250625,16.3082,3.060250625ZM22.8234,9.021700625C22.8234,9.021700625,22.8234,26.032090625,22.8234,26.032090625C22.8234,26.032090625,18.3133,26.032090625,18.3133,26.032090625C18.3133,26.032090625,18.3133,9.021700625,18.3133,9.021700625C18.3133,9.021700625,22.8234,9.021700625,22.8234,9.021700625C22.8234,9.021700625,22.8234,9.021700625,22.8234,9.021700625ZM47.4022,3.107060625C47.4022,3.107060625,47.4022,15.498190625,47.4022,15.498190625C47.4022,15.498190625,52.9423,9.099730625,52.9423,9.099730625C52.9423,9.099730625,58.4512,9.099730625,58.4512,9.099730625C58.4512,9.099730625,52.5054,15.607390625,52.5054,15.607390625C52.5054,15.607390625,58.6853,26.032090625,58.6853,26.032090625C58.6853,26.032090625,53.3169,26.032090625,53.3169,26.032090625C53.3169,26.032090625,49.2437,18.759790625,49.2437,18.759790625C49.2437,18.759790625,47.4022,20.679290625,47.4022,20.679290625C47.4022,20.679290625,47.4022,26.032090625,47.4022,26.032090625C47.4022,26.032090625,43.0326,26.032090625,43.0326,26.032090625C43.0326,26.032090625,43.0326,3.107060625,43.0326,3.107060625C43.0326,3.107060625,47.4022,3.107060625,47.4022,3.107060625C47.4022,3.107060625,47.4022,3.107060625,47.4022,3.107060625ZM64.4827,3.029030625C64.4827,3.029030625,64.4827,26.032090625,64.4827,26.032090625C64.4827,26.032090625,60.035,26.032090625,60.035,26.032090625C60.035,26.032090625,60.035,3.029030625,60.035,3.029030625C60.035,3.029030625,64.4827,3.029030625,64.4827,3.029030625C64.4827,3.029030625,64.4827,3.029030625,64.4827,3.029030625ZM158.328,4.144670625C159.074,3.920480625,160.346,3.870610625,161.836,4.529330625C163.339,5.194310625,164.277,6.334900625,164.649,7.951110625C164.649,7.951110625,172.721,8.637130625,172.721,8.637130625C172.821,8.642930625,172.92,8.663180625,173.019,8.697880625C173.167,8.749940625,173.247,8.823170625,173.314,8.880510625C173.478,9.021080625,173.531,9.129470625,173.609,9.323560625C173.748,9.668680625,173.706,10.074890625,173.525,10.353410625C173.233,10.802490625,172.777,11.092990625,172.156,11.224990625C172.156,11.224990625,165.639,12.610090625,165.639,12.610090625C165.639,12.610090625,166.79,18.021690625,166.79,18.021690625C166.922,18.642890625,167.213,19.042990625,167.663,19.222090625C168.113,19.401090625,168.696,19.414390625,169.413,19.262090625C169.772,19.185890625,170.135,19.077290625,170.505,18.936290625C170.875,18.795290625,171.193,18.646590625,171.459,18.490090625C171.73,18.707190625,171.977,18.960490625,172.201,19.249990625C172.425,19.539590625,172.585,19.911290625,172.682,20.365290625C173.038,22.043390625,170.397,23.628790625,168.666,23.939990625C167.062,24.228090625,164.602,24.467490625,163.195,20.782790625C161.789,17.098090625,159.58,10.921590625,157.894,5.774390625C157.748,5.330200625,157.658,4.893930625,157.814,4.533930625C157.899,4.339340625,157.96,4.255350625,158.328,4.144670625C158.328,4.144670625,158.328,4.144670625,158.328,4.144670625ZM130.138,12.830290625C128.966,12.830290625,128.087,13.159190625,127.501,13.816890625C126.915,14.474590625,126.622,15.413290625,126.622,16.632990625C126.622,18.020190625,126.915,19.018690625,127.501,19.628490625C128.087,20.238390625,128.834,20.543290625,129.743,20.543290625C130.724,20.543290625,131.501,20.316090625,132.075,19.861690625C132.075,19.861690625,132.075,13.260790625,132.075,13.260790625C132.075,13.260790625,131.965,13.203390625,131.965,13.203390625C131.806,13.126890625,131.598,13.050390625,131.34,12.973790625C131.017,12.878190625,130.616,12.830290625,130.138,12.830290625C130.138,12.830290625,130.138,12.830290625,130.138,12.830290625ZM74.6185,12.236490625C73.5885,12.236490625,72.79,12.558990625,72.2229,13.204090625C71.6559,13.849090625,71.2996,14.723090625,71.1539,15.825890625C71.1539,15.825890625,78.0674,15.825890625,78.0674,15.825890625C77.9945,14.650190625,77.6382,13.758090625,76.9984,13.149490625C76.3585,12.540790625,75.5652,12.236490625,74.6185,12.236490625C74.6185,12.236490625,74.6185,12.236490625,74.6185,12.236490625ZM22.8234,2.888580625C22.8234,2.888580625,22.8234,6.992930625,22.8234,6.992930625C22.8234,6.992930625,18.3133,6.992930625,18.3133,6.992930625C18.3133,6.992930625,18.3133,2.888580625,18.3133,2.888580625C18.3133,2.888580625,22.8234,2.888580625,22.8234,2.888580625C22.8234,2.888580625,22.8234,2.888580625,22.8234,2.888580625ZM115.338,0.525390625C116.342,0.525390625,117.15,0.8363026250000001,117.76,1.458125625C118.369,2.079950625,118.674,2.845270625,118.674,3.754090625C118.674,4.662910625,118.369,5.428230625,117.76,6.050050625C117.15,6.671880625,116.342,6.982790625,115.338,6.982790625C114.334,6.982790625,113.526,6.671880625,112.916,6.050050625C112.307,5.428230625,112.002,4.662910625,112.002,3.754090625C112.002,2.845270625,112.307,2.079950625,112.916,1.458125625C113.526,0.8363026250000001,114.334,0.525390625,115.338,0.525390625C115.338,0.525390625,115.338,0.525390625,115.338,0.525390625Z" fill="#FFFFFF" fill-opacity="1"/></g></g></svg>