<svg xmlns="http://www.w3.org/2000/svg" xmlns:xlink="http://www.w3.org/1999/xlink" fill="none" version="1.1" width="15.199999809265137" height="15.199999809265137" viewBox="0 0 15.199999809265137 15.199999809265137"><defs><clipPath id="master_svg0_0_1190"><rect x="0" y="0" width="15.199999809265137" height="15.199999809265137" rx="0"/></clipPath></defs><g clip-path="url(#master_svg0_0_1190)"><g><g><path d="M10.016645544338227,13.299999880790711C10.016645544338227,13.71420988079071,10.352445544338226,14.049999880790711,10.766645544338227,14.049999880790711C11.180845544338226,14.049999880790711,11.516645544338227,13.71420988079071,11.516645544338227,13.299999880790711C11.516645544338227,13.299999880790711,10.016645544338227,13.299999880790711,10.016645544338227,13.299999880790711C10.016645544338227,13.299999880790711,10.016645544338227,13.299999880790711,10.016645544338227,13.299999880790711ZM8.233345544338226,9.49999988079071C8.233345544338226,9.49999988079071,8.233345544338226,8.74999988079071,8.233345544338226,8.74999988079071C8.233345544338226,8.74999988079071,8.233345544338226,9.49999988079071,8.233345544338226,9.49999988079071C8.233345544338226,9.49999988079071,8.233345544338226,9.49999988079071,8.233345544338226,9.49999988079071ZM3.166675544338226,9.49999988079071C3.166675544338226,9.49999988079071,3.166675544338226,8.74999988079071,3.166675544338226,8.74999988079071C3.166675544338226,8.74999988079071,3.166675544338226,9.49999988079071,3.166675544338226,9.49999988079071C3.166675544338226,9.49999988079071,3.166675544338226,9.49999988079071,3.166675544338226,9.49999988079071ZM0.6333455443382263,12.03332988079071C0.6333455443382263,12.03332988079071,-0.11665445566177357,12.03332988079071,-0.11665445566177357,12.03332988079071C-0.11665445566177357,12.03332988079071,0.6333455443382263,12.03332988079071,0.6333455443382263,12.03332988079071C0.6333455443382263,12.03332988079071,0.6333455443382263,12.03332988079071,0.6333455443382263,12.03332988079071ZM-0.11665445566177357,13.299999880790711C-0.11665445566177357,13.71420988079071,0.2191315443382263,14.049999880790711,0.6333455443382263,14.049999880790711C1.0475555443382263,14.049999880790711,1.3833455443382263,13.71420988079071,1.3833455443382263,13.299999880790711C1.3833455443382263,13.299999880790711,-0.11665445566177357,13.299999880790711,-0.11665445566177357,13.299999880790711C-0.11665445566177357,13.299999880790711,-0.11665445566177357,13.299999880790711,-0.11665445566177357,13.299999880790711ZM11.516645544338227,13.299999880790711C11.516645544338227,13.299999880790711,11.516645544338227,12.03332988079071,11.516645544338227,12.03332988079071C11.516645544338227,12.03332988079071,10.016645544338227,12.03332988079071,10.016645544338227,12.03332988079071C10.016645544338227,12.03332988079071,10.016645544338227,13.299999880790711,10.016645544338227,13.299999880790711C10.016645544338227,13.299999880790711,11.516645544338227,13.299999880790711,11.516645544338227,13.299999880790711C11.516645544338227,13.299999880790711,11.516645544338227,13.299999880790711,11.516645544338227,13.299999880790711ZM11.516645544338227,12.03332988079071C11.516645544338227,11.16253988079071,11.170745544338226,10.32740988079071,10.555045544338226,9.71166688079071C10.555045544338226,9.71166688079071,9.494355544338227,10.77232988079071,9.494355544338227,10.77232988079071C9.828795544338226,11.106769880790711,10.016645544338227,11.56035988079071,10.016645544338227,12.03332988079071C10.016645544338227,12.03332988079071,11.516645544338227,12.03332988079071,11.516645544338227,12.03332988079071C11.516645544338227,12.03332988079071,11.516645544338227,12.03332988079071,11.516645544338227,12.03332988079071ZM10.555045544338226,9.71166688079071C9.939245544338226,9.09592188079071,9.104135544338225,8.74999988079071,8.233345544338226,8.74999988079071C8.233345544338226,8.74999988079071,8.233345544338226,10.24999988079071,8.233345544338226,10.24999988079071C8.706315544338226,10.24999988079071,9.159915544338226,10.43788988079071,9.494355544338227,10.77232988079071C9.494355544338227,10.77232988079071,10.555045544338226,9.71166688079071,10.555045544338226,9.71166688079071C10.555045544338226,9.71166688079071,10.555045544338226,9.71166688079071,10.555045544338226,9.71166688079071ZM8.233345544338226,8.74999988079071C8.233345544338226,8.74999988079071,3.166675544338226,8.74999988079071,3.166675544338226,8.74999988079071C3.166675544338226,8.74999988079071,3.166675544338226,10.24999988079071,3.166675544338226,10.24999988079071C3.166675544338226,10.24999988079071,8.233345544338226,10.24999988079071,8.233345544338226,10.24999988079071C8.233345544338226,10.24999988079071,8.233345544338226,8.74999988079071,8.233345544338226,8.74999988079071C8.233345544338226,8.74999988079071,8.233345544338226,8.74999988079071,8.233345544338226,8.74999988079071ZM3.166675544338226,8.74999988079071C2.2958855443382262,8.74999988079071,1.4607555443382263,9.09592188079071,0.8450115443382263,9.71166688079071C0.8450115443382263,9.71166688079071,1.9056755443382265,10.77232988079071,1.9056755443382265,10.77232988079071C2.2401155443382263,10.43788988079071,2.6937055443382265,10.24999988079071,3.166675544338226,10.24999988079071C3.166675544338226,10.24999988079071,3.166675544338226,8.74999988079071,3.166675544338226,8.74999988079071C3.166675544338226,8.74999988079071,3.166675544338226,8.74999988079071,3.166675544338226,8.74999988079071ZM0.8450115443382263,9.71166688079071C0.22926754433822633,10.32740988079071,-0.11665445566177357,11.16253988079071,-0.11665445566177357,12.03332988079071C-0.11665445566177357,12.03332988079071,1.3833455443382263,12.03332988079071,1.3833455443382263,12.03332988079071C1.3833455443382263,11.56035988079071,1.5712355443382262,11.106769880790711,1.9056755443382265,10.77232988079071C1.9056755443382265,10.77232988079071,0.8450115443382263,9.71166688079071,0.8450115443382263,9.71166688079071C0.8450115443382263,9.71166688079071,0.8450115443382263,9.71166688079071,0.8450115443382263,9.71166688079071ZM-0.11665445566177357,12.03332988079071C-0.11665445566177357,12.03332988079071,-0.11665445566177357,13.299999880790711,-0.11665445566177357,13.299999880790711C-0.11665445566177357,13.299999880790711,1.3833455443382263,13.299999880790711,1.3833455443382263,13.299999880790711C1.3833455443382263,13.299999880790711,1.3833455443382263,12.03332988079071,1.3833455443382263,12.03332988079071C1.3833455443382263,12.03332988079071,-0.11665445566177357,12.03332988079071,-0.11665445566177357,12.03332988079071C-0.11665445566177357,12.03332988079071,-0.11665445566177357,12.03332988079071,-0.11665445566177357,12.03332988079071Z" fill="#7E8B97" fill-opacity="1"/></g><g><path d="M7.483348845882416,4.4333299761581415C7.483348845882416,5.418239976158142,6.684918845882415,6.216669976158142,5.700008845882415,6.216669976158142C5.700008845882415,6.216669976158142,5.700008845882415,7.716669976158142,5.700008845882415,7.716669976158142C7.513348845882415,7.716669976158142,8.983348845882416,6.246669976158142,8.983348845882416,4.4333299761581415C8.983348845882416,4.4333299761581415,7.483348845882416,4.4333299761581415,7.483348845882416,4.4333299761581415C7.483348845882416,4.4333299761581415,7.483348845882416,4.4333299761581415,7.483348845882416,4.4333299761581415ZM5.700008845882415,6.216669976158142C4.7151088458824155,6.216669976158142,3.9166788458824158,5.418239976158142,3.9166788458824158,4.4333299761581415C3.9166788458824158,4.4333299761581415,2.4166788458824158,4.4333299761581415,2.4166788458824158,4.4333299761581415C2.4166788458824158,6.246669976158142,3.8866788458824155,7.716669976158142,5.700008845882415,7.716669976158142C5.700008845882415,7.716669976158142,5.700008845882415,6.216669976158142,5.700008845882415,6.216669976158142C5.700008845882415,6.216669976158142,5.700008845882415,6.216669976158142,5.700008845882415,6.216669976158142ZM3.9166788458824158,4.4333299761581415C3.9166788458824158,3.4484299761581423,4.7151088458824155,2.649999976158142,5.700008845882415,2.649999976158142C5.700008845882415,2.649999976158142,5.700008845882415,1.149999976158142,5.700008845882415,1.149999976158142C3.8866788458824155,1.149999976158142,2.4166788458824158,2.619999976158142,2.4166788458824158,4.4333299761581415C2.4166788458824158,4.4333299761581415,3.9166788458824158,4.4333299761581415,3.9166788458824158,4.4333299761581415C3.9166788458824158,4.4333299761581415,3.9166788458824158,4.4333299761581415,3.9166788458824158,4.4333299761581415ZM5.700008845882415,2.649999976158142C6.684918845882415,2.649999976158142,7.483348845882416,3.4484299761581423,7.483348845882416,4.4333299761581415C7.483348845882416,4.4333299761581415,8.983348845882416,4.4333299761581415,8.983348845882416,4.4333299761581415C8.983348845882416,2.619999976158142,7.513348845882415,1.149999976158142,5.700008845882415,1.149999976158142C5.700008845882415,1.149999976158142,5.700008845882415,2.649999976158142,5.700008845882415,2.649999976158142C5.700008845882415,2.649999976158142,5.700008845882415,2.649999976158142,5.700008845882415,2.649999976158142Z" fill="#7E8B97" fill-opacity="1"/></g><g><path d="M13.816675299892426,13.300052998447418C13.816675299892426,13.714252998447419,14.152465299892427,14.050052998447418,14.566675299892426,14.050052998447418C14.980895299892426,14.050052998447418,15.316675299892426,13.714252998447419,15.316675299892426,13.300052998447418C15.316675299892426,13.300052998447418,13.816675299892426,13.300052998447418,13.816675299892426,13.300052998447418C13.816675299892426,13.300052998447418,13.816675299892426,13.300052998447418,13.816675299892426,13.300052998447418ZM14.566675299892426,12.033352998447418C14.566675299892426,12.033352998447418,15.316675299892426,12.033352998447418,15.316675299892426,12.033352998447418C15.316675299892426,12.033352998447418,15.316675299892426,12.032752998447418,15.316675299892426,12.032752998447418C15.316675299892426,12.032752998447418,14.566675299892426,12.033352998447418,14.566675299892426,12.033352998447418C14.566675299892426,12.033352998447418,14.566675299892426,12.033352998447418,14.566675299892426,12.033352998447418ZM12.854175299892425,8.856152998447417C12.453115299892426,8.752592998447419,12.044045299892426,8.993772998447419,11.940495299892426,9.394832998447418C11.836945299892426,9.795892998447417,12.078115299892426,10.204962998447419,12.479175299892425,10.308512998447418C12.479175299892425,10.308512998447418,12.854175299892425,8.856152998447417,12.854175299892425,8.856152998447417C12.854175299892425,8.856152998447417,12.854175299892425,8.856152998447417,12.854175299892425,8.856152998447417ZM10.319374299892425,1.2557713984474181C9.918105299892426,1.1530293984474183,9.509524299892426,1.3950339984474183,9.406783699892426,1.796303998447418C9.304041699892425,2.197572998447418,9.546046299892426,2.6061529984474183,9.947316299892426,2.708892998447418C9.947316299892426,2.708892998447418,10.319374299892425,1.2557713984474181,10.319374299892425,1.2557713984474181C10.319374299892425,1.2557713984474181,10.319374299892425,1.2557713984474181,10.319374299892425,1.2557713984474181ZM9.947316299892426,6.164102998447418C9.546046299892426,6.2668429984474185,9.304041699892425,6.675422998447418,9.406783699892426,7.0766929984474185C9.509524299892426,7.477962998447418,9.918105299892426,7.719972998447418,10.319374299892425,7.6172329984474185C10.319374299892425,7.6172329984474185,9.947316299892426,6.164102998447418,9.947316299892426,6.164102998447418C9.947316299892426,6.164102998447418,9.947316299892426,6.164102998447418,9.947316299892426,6.164102998447418ZM15.316675299892426,13.300052998447418C15.316675299892426,13.300052998447418,15.316675299892426,12.033352998447418,15.316675299892426,12.033352998447418C15.316675299892426,12.033352998447418,13.816675299892426,12.033352998447418,13.816675299892426,12.033352998447418C13.816675299892426,12.033352998447418,13.816675299892426,13.300052998447418,13.816675299892426,13.300052998447418C13.816675299892426,13.300052998447418,15.316675299892426,13.300052998447418,15.316675299892426,13.300052998447418C15.316675299892426,13.300052998447418,15.316675299892426,13.300052998447418,15.316675299892426,13.300052998447418ZM15.316675299892426,12.032752998447418C15.316135299892427,11.305252998447418,15.074005299892425,10.598592998447419,14.628295299892425,10.023632998447418C14.628295299892425,10.023632998447418,13.442785299892424,10.942632998447419,13.442785299892424,10.942632998447419C13.684865299892426,11.254952998447418,13.816385299892426,11.638752998447417,13.816675299892426,12.033952998447418C13.816675299892426,12.033952998447418,15.316675299892426,12.032752998447418,15.316675299892426,12.032752998447418C15.316675299892426,12.032752998447418,15.316675299892426,12.032752998447418,15.316675299892426,12.032752998447418ZM14.628295299892425,10.023632998447418C14.182595299892427,9.448672998447417,13.558555299892426,9.038022998447417,12.854175299892425,8.856152998447417C12.854175299892425,8.856152998447417,12.479175299892425,10.308512998447418,12.479175299892425,10.308512998447418C12.861765299892426,10.407302998447419,13.200705299892427,10.630342998447418,13.442785299892424,10.942632998447419C13.442785299892424,10.942632998447419,14.628295299892425,10.023632998447418,14.628295299892425,10.023632998447418C14.628295299892425,10.023632998447418,14.628295299892425,10.023632998447418,14.628295299892425,10.023632998447418ZM9.947316299892426,2.708892998447418C10.330917299892425,2.807112998447418,10.670915299892425,3.030202998447418,10.913725299892425,3.3430129984474184C10.913725299892425,3.3430129984474184,12.098645299892425,2.4232529984474183,12.098645299892425,2.4232529984474183C11.651615299892425,1.8473459984474183,11.025635299892425,1.4366009984474182,10.319374299892425,1.2557713984474181C10.319374299892425,1.2557713984474181,9.947316299892426,2.708892998447418,9.947316299892426,2.708892998447418C9.947316299892426,2.708892998447418,9.947316299892426,2.708892998447418,9.947316299892426,2.708892998447418ZM10.913725299892425,3.3430129984474184C11.156525299892426,3.655812998447418,11.288315299892425,4.040522998447418,11.288315299892425,4.436502998447418C11.288315299892425,4.436502998447418,12.788315299892425,4.436502998447418,12.788315299892425,4.436502998447418C12.788315299892425,3.707462998447418,12.545675299892427,2.999152998447418,12.098645299892425,2.4232529984474183C12.098645299892425,2.4232529984474183,10.913725299892425,3.3430129984474184,10.913725299892425,3.3430129984474184C10.913725299892425,3.3430129984474184,10.913725299892425,3.3430129984474184,10.913725299892425,3.3430129984474184ZM11.288315299892425,4.436502998447418C11.288315299892425,4.832472998447418,11.156525299892426,5.217192998447418,10.913725299892425,5.529992998447418C10.913725299892425,5.529992998447418,12.098645299892425,6.449752998447418,12.098645299892425,6.449752998447418C12.545675299892427,5.873842998447418,12.788315299892425,5.165542998447418,12.788315299892425,4.436502998447418C12.788315299892425,4.436502998447418,11.288315299892425,4.436502998447418,11.288315299892425,4.436502998447418C11.288315299892425,4.436502998447418,11.288315299892425,4.436502998447418,11.288315299892425,4.436502998447418ZM10.913725299892425,5.529992998447418C10.670915299892425,5.842792998447418,10.330917299892425,6.065882998447418,9.947316299892426,6.164102998447418C9.947316299892426,6.164102998447418,10.319374299892425,7.6172329984474185,10.319374299892425,7.6172329984474185C11.025635299892425,7.436402998447418,11.651615299892425,7.025652998447418,12.098645299892425,6.449752998447418C12.098645299892425,6.449752998447418,10.913725299892425,5.529992998447418,10.913725299892425,5.529992998447418C10.913725299892425,5.529992998447418,10.913725299892425,5.529992998447418,10.913725299892425,5.529992998447418Z" fill="#7E8B97" fill-opacity="1"/></g></g></g></svg>