<svg xmlns="http://www.w3.org/2000/svg" xmlns:xlink="http://www.w3.org/1999/xlink" fill="none" version="1.1" width="65.38720703125" height="65.38720703125" viewBox="0 0 65.38720703125 65.38720703125"><g><g><rect x="0" y="0" width="65.38703918457031" height="65.38703918457031" rx="16" fill="#79CA00" fill-opacity="1"/></g><g><path d="M43.136871875,21.0537109375C43.136871875,21.0537109375,22.249581875,21.0537109375,22.249581875,21.0537109375C20.809661875,21.0537109375,19.638671875,22.2137809375,19.638671875,23.6402709375C19.638671875,23.6402709375,19.638671875,41.746210937499995,19.638671875,41.746210937499995C19.638671875,43.1727109375,20.809661875,44.332710937499996,22.249581875,44.332710937499996C22.249581875,44.332710937499996,43.136871875,44.332710937499996,43.136871875,44.332710937499996C44.576771875,44.332710937499996,45.747771875,43.1727109375,45.747771875,41.746210937499995C45.747771875,41.746210937499995,45.747771875,23.6402709375,45.747771875,23.6402709375C45.747771875,22.2137809375,44.576771875,21.0537109375,43.136871875,21.0537109375C43.136871875,21.0537109375,43.136871875,21.0537109375,43.136871875,21.0537109375ZM43.138171875,28.8133909375C43.136871875,28.8133909375,43.136871875,28.8133909375,43.138171875,28.8133909375C43.138171875,28.8133909375,42.531171875,28.8133909375,42.531171875,28.8133909375C42.531171875,28.8133909375,39.049471874999995,23.6402709375,39.049471874999995,23.6402709375C39.049471874999995,23.6402709375,43.136871875,23.6402709375,43.136871875,23.6402709375C43.136871875,23.6402709375,43.138171875,28.8133909375,43.138171875,28.8133909375C43.138171875,28.8133909375,43.138171875,28.8133909375,43.138171875,28.8133909375ZM37.262371875,36.5731109375C37.262371875,36.5731109375,30.082371875,40.4529109375,30.082371875,40.4529109375C30.082371875,40.4529109375,30.082371875,32.6932109375,30.082371875,32.6932109375C30.082371875,32.6932109375,37.262371875,36.5731109375,37.262371875,36.5731109375C37.262371875,36.5731109375,37.262371875,36.5731109375,37.262371875,36.5731109375ZM36.003871875,28.8133909375C36.003871875,28.8133909375,32.522271875,23.6402709375,32.522271875,23.6402709375C32.522271875,23.6402709375,35.911171875,23.6402709375,35.911171875,23.6402709375C35.911171875,23.6402709375,39.392871875,28.8133909375,39.392871875,28.8133909375C39.392871875,28.8133909375,36.003871875,28.8133909375,36.003871875,28.8133909375C36.003871875,28.8133909375,36.003871875,28.8133909375,36.003871875,28.8133909375C36.003871875,28.8133909375,36.003871875,28.8133909375,36.003871875,28.8133909375ZM32.865571875,28.8133909375C32.865571875,28.8133909375,29.476591875,28.8133909375,29.476591875,28.8133909375C29.476591875,28.8133909375,25.994941875000002,23.6402709375,25.994941875000002,23.6402709375C25.994941875000002,23.6402709375,29.383901875,23.6402709375,29.383901875,23.6402709375C29.383901875,23.6402709375,32.865571875,28.8133909375,32.865571875,28.8133909375C32.865571875,28.8133909375,32.865571875,28.8133909375,32.865571875,28.8133909375ZM22.249581875,23.6402709375C22.249581875,23.6402709375,22.856621875000002,23.6402709375,22.856621875000002,23.6402709375C22.856621875000002,23.6402709375,26.338271875,28.8133909375,26.338271875,28.8133909375C26.338271875,28.8133909375,22.249581875,28.8133909375,22.249581875,28.8133909375C22.249581875,28.8133909375,22.249581875,23.6402709375,22.249581875,23.6402709375C22.249581875,23.6402709375,22.249581875,23.6402709375,22.249581875,23.6402709375Z" fill="#FFFFFF" fill-opacity="1"/></g></g></svg>