<svg xmlns="http://www.w3.org/2000/svg" xmlns:xlink="http://www.w3.org/1999/xlink" fill="none" version="1.1" width="34.7666015625" height="46" viewBox="0 0 34.7666015625 46"><g><g><path d="M10.882194517364502,42.12489140625C10.882194517364502,42.12489140625,7.536984517364502,42.12489140625,7.536984517364502,42.12489140625C7.536984517364502,42.12489140625,14.295804517364502,31.94509140625,14.295804517364502,31.94509140625C14.295804517364502,31.94509140625,15.305704517364502,29.83679140625,13.985454517364502,27.60809140625C13.985454517364502,27.60809140625,4.565219517364502,12.719851406250001,4.565219517364502,12.719851406250001C4.565219517364502,12.719851406250001,3.739436517364502,11.33945140625,4.565219517364502,10.01427140625C4.565219517364502,10.01427140625,7.352894517364502,6.03369140625,7.352894517364502,6.03369140625C7.352894517364502,6.03369140625,18.4089045173645,23.27119140625,18.4089045173645,23.27119140625C18.4089045173645,23.27119140625,21.2597045173645,26.88029140625,18.1617045173645,31.35279140625C18.1617045173645,31.35279140625,10.882194517364502,42.12489140625,10.882194517364502,42.12489140625C10.882194517364502,42.12489140625,10.882194517364502,42.12489140625,10.882194517364502,42.12489140625Z" fill="#FCB130" fill-opacity="1"/></g><g><path d="M18.96120000074031,39.0026C18.96120000074031,39.0026,23.069100000740306,33.0292,23.069100000740306,33.0292C23.069100000740306,33.0292,24.268300000740307,30.5646,27.366300000740306,30.5646C27.366300000740306,30.5646,31.72660000074031,30.5646,31.72660000074031,30.5646C31.72660000074031,30.5646,34.76680000074031,35.1375,34.76680000074031,35.1375C34.76680000074031,35.1375,32.368300000740305,34.9016,31.29530000074031,36.533C31.29530000074031,36.533,26.814000000740307,42.9832,26.814000000740307,42.9832C26.814000000740307,42.9832,25.351800000740308,46,21.443800000740307,46C21.443800000740307,46,0.3311110007403057,46,0.3311110007403057,46C0.3311110007403057,46,8.362770000740305,34.234,8.362770000740305,34.234C8.362770000740305,34.234,9.498880000740305,32.8536,7.9104300007403054,30.5646C7.9104300007403054,30.5646,0.7624120007403057,19.6017,0.7624120007403057,19.6017C0.7624120007403057,19.6017,-0.9943489992596943,17.9804,0.8255290007403057,15.2045C0.8255290007403057,15.2045,2.9136500007403057,12.1877,2.9136500007403057,12.1877C2.9136500007403057,12.1877,12.844100000740305,27.5528,12.844100000740305,27.5528C12.844100000740305,27.5528,14.600800000740305,29.6611,12.844100000740305,32.191C12.844100000740305,32.191,5.385740000740306,43.2894,5.385740000740306,43.2894C5.385740000740306,43.2894,21.11240000074031,43.2894,21.11240000074031,43.2894C21.11240000074031,43.2894,22.88500000074031,43.6006,24.410300000740307,41.4321C24.410300000740307,41.4321,28.318300000740308,35.6947,28.318300000740308,35.6947C28.318300000740308,35.6947,29.207200000740308,33.7621,31.169100000740308,32.974C31.169100000740308,32.974,28.008000000740306,32.974,28.008000000740306,32.974C28.008000000740306,32.974,26.356400000740308,33.0343,25.099300000740307,34.9066C25.099300000740307,34.9066,21.627900000740308,40.0316,21.627900000740308,40.0316C21.627900000740308,40.0316,20.365500000740308,42.2001,17.577900000740307,42.2001C17.577900000740307,42.2001,12.081400000740306,42.2001,12.081400000740306,42.2001C12.081400000740306,42.2001,18.714000000740306,32.3767,18.714000000740306,32.3767C18.714000000740306,32.3767,22.327400000740308,27.844,19.787000000740306,23.6827C19.787000000740306,23.6827,8.794070000740305,6.32977,8.794070000740305,6.32977C8.794070000740305,6.32977,7.968290000740305,4.8289,8.920300000740305,3.43343C8.920300000740305,3.43343,11.318800000740305,0,11.318800000740305,0C11.318800000740305,0,23.837000000740307,19.2403,23.837000000740307,19.2403C23.837000000740307,19.2403,25.672600000740307,22.1216,25.672600000740307,24.3503C25.672600000740307,26.579,24.210400000740307,29.1039,23.40040000074031,30.3839C23.40040000074031,30.3839,17.88820000074031,38.586,17.88820000074031,38.586C17.88820000074031,38.586,17.267500000740306,39.3741,17.704100000740308,39.6702C18.151200000740307,39.9664,18.58770000074031,39.4343,18.96120000074031,39.0026Z" fill="#FCB130" fill-opacity="1"/></g></g></svg>