<svg xmlns="http://www.w3.org/2000/svg" xmlns:xlink="http://www.w3.org/1999/xlink" fill="none" version="1.1" width="70" height="65.38720703125" viewBox="0 0 70 65.38720703125"><g><g><rect x="0" y="0" width="70" height="65.38703918457031" rx="16" fill="#4DABFF" fill-opacity="1"/></g><g><path d="M45.90510625,23.76458C45.59000625,22.90417,44.70740625,22.29167,43.667306249999996,22.29167C43.667306249999996,22.29167,39.727506250000005,22.29167,39.727506250000005,22.29167C39.727506250000005,22.29167,39.727506250000005,20.83333,39.727506250000005,20.83333C39.727506250000005,20.03125,39.018306249999995,19.375,38.15160625,19.375C38.15160625,19.375,31.84790625,19.375,31.84790625,19.375C30.98110625,19.375,30.271956250000002,20.03125,30.271956250000002,20.83333C30.271956250000002,20.83333,30.271956250000002,22.29167,30.271956250000002,22.29167C30.271956250000002,22.29167,26.33214625,22.29167,26.33214625,22.29167C25.29203625,22.29167,24.42527625,22.90417,24.09433625,23.76458C24.09433625,23.76458,20.98975825,32.0333,20.98975825,32.0333C20.87944315,32.339600000000004,20.81640625,32.660399999999996,20.81640625,32.9958C20.81640625,32.9958,20.81640625,43.4375,20.81640625,43.4375C20.81640625,44.6479,21.87227625,45.625,23.18029625,45.625C24.48831625,45.625,25.54418625,44.6479,25.54418625,43.4375C25.54418625,43.4375,25.54418625,42.7083,25.54418625,42.7083C25.54418625,42.7083,44.45530625,42.7083,44.45530625,42.7083C44.45530625,42.7083,44.45530625,43.4375,44.45530625,43.4375C44.45530625,44.6333,45.51120625,45.625,46.81920625,45.625C48.11140625,45.625,49.18310625,44.6479,49.18310625,43.4375C49.18310625,43.4375,49.18310625,32.9958,49.18310625,32.9958C49.18310625,32.675,49.12000625,32.339600000000004,49.00970625,32.0333C49.00970625,32.0333,45.90510625,23.76458,45.90510625,23.76458C45.90510625,23.76458,45.90510625,23.76458,45.90510625,23.76458ZM26.33214625,38.3333C25.024126250000002,38.3333,23.96825625,37.356300000000005,23.96825625,36.1458C23.96825625,34.9354,25.024126250000002,33.9583,26.33214625,33.9583C27.64016625,33.9583,28.69603625,34.9354,28.69603625,36.1458C28.69603625,37.356300000000005,27.64016625,38.3333,26.33214625,38.3333C26.33214625,38.3333,26.33214625,38.3333,26.33214625,38.3333ZM43.667306249999996,38.3333C42.35930625,38.3333,41.303406249999995,37.356300000000005,41.303406249999995,36.1458C41.303406249999995,34.9354,42.35930625,33.9583,43.667306249999996,33.9583C44.97530625,33.9583,46.03120625,34.9354,46.03120625,36.1458C46.03120625,37.356300000000005,44.97530625,38.3333,43.667306249999996,38.3333C43.667306249999996,38.3333,43.667306249999996,38.3333,43.667306249999996,38.3333ZM23.96825625,31.0417C23.96825625,31.0417,26.33214625,24.47917,26.33214625,24.47917C26.33214625,24.47917,43.667306249999996,24.47917,43.667306249999996,24.47917C43.667306249999996,24.47917,46.03120625,31.0417,46.03120625,31.0417C46.03120625,31.0417,23.96825625,31.0417,23.96825625,31.0417C23.96825625,31.0417,23.96825625,31.0417,23.96825625,31.0417Z" fill="#FFFFFF" fill-opacity="1"/></g></g></svg>