<svg xmlns="http://www.w3.org/2000/svg" xmlns:xlink="http://www.w3.org/1999/xlink" fill="none" version="1.1" width="34.7666015625" height="46" viewBox="0 0 34.7666015625 46"><g><g><g><path d="M17.384064832639694,8.084197265625C8.775604832639694,8.084197265625,1.7306348326396943,15.287497265625,1.7306348326396943,24.257697265625C1.7306348326396943,33.227197265625,8.776234832639695,40.429897265625,17.384064832639694,40.429897265625C25.991164832639694,40.429897265625,33.03616483263969,33.227297265625,33.03616483263969,24.257697265625C33.03616483263969,15.287477265625,25.990464832639695,8.084197265625,17.384064832639694,8.084197265625C17.384064832639694,8.084197265625,17.384064832639694,8.084197265625,17.384064832639694,8.084197265625ZM0.1768648326396942,24.257697265625C0.1768648326396942,14.524477265625,7.841604832639694,6.564697265625,17.384064832639694,6.564697265625C26.924464832639693,6.564697265625,34.58986483263969,14.524497265625001,34.58986483263969,24.257697265625C34.58986483263969,33.990297265625,26.925164832639695,41.949397265625,17.384064832639694,41.949397265625C7.842394832639695,41.949397265625,0.1768648326396942,33.990397265625,0.1768648326396942,24.257697265625C0.1768648326396942,24.257697265625,0.1768648326396942,24.257697265625,0.1768648326396942,24.257697265625Z" fill-rule="evenodd" fill="#CF4037" fill-opacity="1"/></g><g><path d="M22.34441156115532,20.54498903198242C21.58741156115532,15.297569031982423,17.16401156115532,12.706499031982421,14.400911561155318,11.154359031982422C11.836581561155318,9.714721031982421,9.540721561155319,9.060527031982422,9.48533156115532,9.229283931982422C12.401841561155319,11.574509031982423,14.27451156115532,15.228129031982423,14.27451156115532,19.33318903198242C14.27451156115532,26.06468903198242,9.235361561155319,31.58358903198242,2.833511561155319,32.098889031982424C2.833511561155319,32.098889031982424,3.238292561155319,32.723889031982424,3.238292561155319,32.723889031982424C11.433931561155319,31.44748903198242,33.36641156115532,27.37578903198242,33.36641156115532,27.37578903198242C33.36641156115532,27.37578903198242,33.42461156115532,26.89728903198242,33.42461156115532,26.89728903198242C33.42461156115532,26.89728903198242,20.11811156115532,26.44178903198242,20.11811156115532,26.44178903198242C21.58671156115532,24.88958903198242,22.59221156115532,22.254789031982423,22.34441156115532,20.54498903198242C22.34441156115532,20.54498903198242,22.34441156115532,20.54498903198242,22.34441156115532,20.54498903198242C22.34441156115532,20.54498903198242,22.34441156115532,20.54498903198242,22.34441156115532,20.54498903198242Z" fill-rule="evenodd" fill="#CF4037" fill-opacity="1"/></g></g></g></svg>