<svg xmlns="http://www.w3.org/2000/svg" xmlns:xlink="http://www.w3.org/1999/xlink" fill="none" version="1.1" width="30" height="30" viewBox="0 0 30 30"><defs><clipPath id="master_svg0_0_1325"><rect x="0" y="0" width="30" height="30" rx="0"/></clipPath></defs><g clip-path="url(#master_svg0_0_1325)"><g><path d="M15.00009765625,0.60009765625C7.04709765625,0.60009765625,0.60009765625,7.04709765625,0.60009765625,15.00009765625C0.60009765625,22.95309765625,7.04709765625,29.40009765625,15.00009765625,29.40009765625C22.95309765625,29.40009765625,29.40009765625,22.95309765625,29.40009765625,15.00009765625C29.40009765625,7.04709765625,22.95309765625,0.60009765625,15.00009765625,0.60009765625C15.00009765625,0.60009765625,15.00009765625,0.60009765625,15.00009765625,0.60009765625ZM20.85759765625,12.39609765625C20.86359765625,12.51909765625,20.86509765625,12.64209765625,20.86509765625,12.76209765625C20.86509765625,16.51209765625,18.01359765625,20.83359765625,12.79659765625,20.83359765625C11.25499765625,20.83619765625,9.74554765625,20.39339765625,8.449597656249999,19.55859765625C8.67009765625,19.58559765625,8.89659765625,19.59609765625,9.12609765625,19.59609765625C10.45509765625,19.59609765625,11.67759765625,19.14459765625,12.64809765625,18.38259765625C12.05669765625,18.37099765625,11.48359765625,18.17509765625,11.00879765625,17.82239765625C10.53392765625,17.46959765625,10.18097765625,16.97749765625,9.99909765625,16.414597656250002C10.42383765625,16.49539765625,10.86139765625,16.47839765625,11.27859765625,16.36509765625C10.63669765625,16.235297656249998,10.05939765625,15.88749765625,9.64465765625,15.38059765625C9.22992765625,14.87369765625,9.00325765625,14.23899765625,9.00309765625,13.58409765625C9.00309765625,13.58409765625,9.00309765625,13.54959765625,9.00309765625,13.54959765625C9.38559765625,13.76109765625,9.82359765625,13.89009765625,10.28859765625,13.90509765625C9.68679765625,13.50449765625,9.26077765625,12.88909765625,9.09766765625,12.18479765625C8.93455765625,11.48049765625,9.04667765625,10.74049765625,9.41109765625,10.11609765625C10.12352765625,10.99209765625,11.01199765625,11.70869765625,12.01899765625,12.21959765625C13.02589765625,12.73039765625,14.12889765625,13.02409765625,15.25659765625,13.08159765625C15.11319765625,12.47309765625,15.17489765625,11.83419765625,15.43209765625,11.26439765625C15.68929765625,10.69449765625,16.12749765625,10.22557765625,16.67869765625,9.93049765625C17.22989765625,9.63540765625,17.86309765625,9.53067765625,18.47989765625,9.63260765625C19.09679765625,9.73452765625,19.66269765625,10.03738765625,20.08959765625,10.49409765625C20.72439765625,10.36850765625,21.33309765625,10.13567765625,21.88959765625,9.80559765625C21.67799765625,10.46279765625,21.23509765625,11.02089765625,20.64309765625,11.37609765625C21.20539765625,11.30839765625,21.75439765625,11.15719765625,22.27209765625,10.92759765625C21.89179765625,11.49739765625,21.41279765625,11.99479765625,20.85759765625,12.39609765625C20.85759765625,12.39609765625,20.85759765625,12.39609765625,20.85759765625,12.39609765625C20.85759765625,12.39609765625,20.85759765625,12.39609765625,20.85759765625,12.39609765625Z" fill="#FFFFFF" fill-opacity="1"/></g></g></svg>