<svg xmlns="http://www.w3.org/2000/svg" xmlns:xlink="http://www.w3.org/1999/xlink" fill="none" version="1.1" width="16.643766403198242" height="17.189111709594727" viewBox="0 0 16.643766403198242 17.189111709594727"><g><path d="M16.1058,6.05277C16.1058,6.05277,11.1163,5.26854,11.1163,5.26854C11.1163,5.26854,8.88591,0.378305,8.88591,0.378305C8.825,0.244413,8.72477,0.136025,8.60097,0.0701416C8.29048,-0.0956291,7.91317,0.0425132,7.75793,0.378305C7.75793,0.378305,5.5275,5.26854,5.5275,5.26854C5.5275,5.26854,0.538023,6.05277,0.538023,6.05277C0.400464,6.07402,0.274695,6.14415,0.178403,6.25042C0.0619923,6.37982,-0.00215557,6.5539,0.0000553104,6.73443C0.00226619,6.91495,0.0706549,7.08714,0.190194,7.21316C0.190194,7.21316,3.80015,11.0195,3.80015,11.0195C3.80015,11.0195,2.94728,16.3943,2.94728,16.3943C2.92728,16.5193,2.94007,16.6479,2.98421,16.7655C3.02834,16.8831,3.10205,16.9849,3.19698,17.0595C3.29191,17.134,3.40426,17.1783,3.52129,17.1874C3.63832,17.1964,3.75535,17.1698,3.8591,17.1105C3.8591,17.1105,8.32192,14.573,8.32192,14.573C8.32192,14.573,12.7847,17.1105,12.7847,17.1105C12.9066,17.1807,13.0481,17.204,13.1837,17.1785C13.5256,17.1148,13.7555,16.7641,13.6966,16.3943C13.6966,16.3943,12.8437,11.0195,12.8437,11.0195C12.8437,11.0195,16.4536,7.21316,16.4536,7.21316C16.5519,7.10902,16.6168,6.97301,16.6364,6.82424C16.6895,6.45232,16.4497,6.10802,16.1058,6.05277C16.1058,6.05277,16.1058,6.05277,16.1058,6.05277C16.1058,6.05277,16.1058,6.05277,16.1058,6.05277Z" fill="#FDBF00" fill-opacity="1"/></g></svg>