<svg xmlns="http://www.w3.org/2000/svg" xmlns:xlink="http://www.w3.org/1999/xlink" fill="none" version="1.1" width="25" height="25" viewBox="0 0 25 25"><defs><clipPath id="master_svg0_0_459"><rect x="0" y="0" width="25" height="25" rx="0"/></clipPath></defs><g clip-path="url(#master_svg0_0_459)"><g><g><path d="M12.499943051624296,22.8033430516243C9.767353051624296,22.8033430516243,7.146633051624296,21.7178430516243,5.2143630516242965,19.7855430516243C3.2820930516242965,17.853343051624297,2.1965530516242966,15.232643051624297,2.1965530516242966,12.499943051624298C2.1965530516242966,9.767353051624298,3.2820930516242965,7.146633051624298,5.2143630516242965,5.214363051624298C7.146633051624296,3.2820930516242974,9.767353051624296,2.196553051624298,12.499943051624296,2.196553051624298C15.232643051624295,2.196553051624298,17.853343051624297,3.2820930516242974,19.7855430516243,5.214363051624298C21.7178430516243,7.146633051624298,22.8033430516243,9.767353051624298,22.8033430516243,12.499943051624298C22.8033430516243,15.232643051624297,21.7178430516243,17.853343051624297,19.7855430516243,19.7855430516243C17.853343051624297,21.7178430516243,15.232643051624295,22.8033430516243,12.499943051624296,22.8033430516243C12.499943051624296,22.8033430516243,12.499943051624296,22.8033430516243,12.499943051624296,22.8033430516243ZM12.499943051624296,24.275343051624297C15.622943051624297,24.275343051624297,18.618043051624298,23.034743051624297,20.8263430516243,20.8263430516243C23.034743051624297,18.618043051624298,24.275343051624297,15.622943051624299,24.275343051624297,12.499943051624298C24.275343051624297,9.376963051624298,23.034743051624297,6.381863051624298,20.8263430516243,4.173563051624298C18.618043051624298,1.9652530516242979,15.622943051624297,0.7246430516242999,12.499943051624296,0.7246430516242979C9.376963051624296,0.7246430516243002,6.381863051624296,1.9652530516242979,4.1735630516242965,4.173563051624298C1.9652530516242965,6.381863051624298,0.7246430516242998,9.376963051624298,0.7246430516242965,12.499943051624298C0.724643051624299,15.622943051624299,1.9652530516242965,18.618043051624298,4.1735630516242965,20.8263430516243C6.381863051624296,23.034743051624297,9.376963051624296,24.275343051624297,12.499943051624296,24.275343051624297C12.499943051624296,24.275343051624297,12.499943051624296,24.275343051624297,12.499943051624296,24.275343051624297C12.499943051624296,24.275343051624297,12.499943051624296,24.275343051624297,12.499943051624296,24.275343051624297Z" fill="#1262AF" fill-opacity="1"/></g><g><path d="M9.871276489124298,7.499980995374298C10.010130489124299,7.428479495374298,10.166017489124298,7.396670415374298,10.321784489124298,7.408053395374298C10.477556489124298,7.419436395374298,10.627156489124298,7.473570295374298,10.754146489124299,7.564498395374298C10.754146489124299,7.564498395374298,16.6965264891243,11.809055395374298,16.6965264891243,11.809055395374298C16.8065664891243,11.887585395374298,16.896266489124297,11.991265395374299,16.958146489124296,12.111445395374298C17.020036489124298,12.231645395374297,17.052326489124297,12.364875395374298,17.052326489124297,12.5000753953743C17.052326489124297,12.635265395374297,17.020036489124298,12.768495395374298,16.958146489124296,12.8886853953743C16.896266489124297,13.008875395374298,16.8065664891243,13.112555395374297,16.6965264891243,13.191085395374298C16.6965264891243,13.191085395374298,10.754146489124299,17.435695395374296,10.754146489124299,17.435695395374296C10.627196489124298,17.526495395374297,10.477666489124298,17.580595395374296,10.321982489124299,17.591995395374298C10.166296489124298,17.6033953953743,10.010484489124298,17.5715953953743,9.871679489124299,17.5001953953743C9.732872489124299,17.428795395374298,9.616447489124297,17.320435395374297,9.535203489124298,17.1871353953743C9.453958589124298,17.053845395374296,9.411040286124297,16.900725395374298,9.411166955042297,16.744635395374296C9.411166955042297,16.744635395374296,9.411166955042297,8.255512395374298,9.411166955042297,8.255512395374298C9.411003478124298,8.099453395374297,9.453862089124298,7.946368395374298,9.535033489124299,7.813079395374298C9.616204489124298,7.679790395374298,9.732546489124298,7.571456395374298,9.871276489124298,7.499980995374298C9.871276489124298,7.499980995374298,9.871276489124298,7.499980995374298,9.871276489124298,7.499980995374298C9.871276489124298,7.499980995374298,9.871276489124298,7.499980995374298,9.871276489124298,7.499980995374298Z" fill="#1262AF" fill-opacity="1"/></g></g></g></svg>